{"glyphs":{"0":{"ha":861,"x_min":71,"x_max":791,"o":"m 433 962 q 615 909 537 962 q 742 742 693 856 q 791 466 791 628 q 671 92 791 226 q 424 -16 573 -16 q 245 38 323 -16 q 119 199 167 92 q 71 473 71 307 q 118 747 71 641 q 246 907 165 852 q 433 962 328 962 m 429 895 q 305 844 359 895 q 231 703 258 799 q 200 460 200 593 q 219 273 200 357 q 271 143 239 189 q 343 74 302 96 q 428 52 383 52 q 553 104 495 52 q 627 231 600 146 q 660 473 660 334 q 627 718 660 617 q 545 857 593 818 q 429 895 496 895 z "},"1":{"ha":861,"x_min":232,"x_max":679,"o":"m 467 946 l 517 946 l 517 161 q 525 89 517 105 q 548 65 532 73 q 612 57 564 57 l 679 57 l 679 0 l 232 0 l 232 57 l 306 57 q 370 65 354 57 q 395 93 386 74 q 404 161 404 111 l 404 806 l 232 806 l 232 865 q 467 946 372 884 z "},"2":{"ha":861,"x_min":69,"x_max":759,"o":"m 157 589 l 92 581 q 86 660 86 629 q 130 811 86 740 q 251 922 173 882 q 429 962 328 962 q 599 925 526 962 q 711 822 672 887 q 750 672 750 756 q 725 540 750 601 q 643 418 699 479 q 473 277 601 372 q 225 102 311 156 l 578 102 q 659 113 640 102 q 695 182 686 128 l 701 221 l 759 221 l 713 -34 l 669 -34 l 662 0 l 69 0 l 69 57 l 178 139 q 359 279 301 231 q 523 437 468 372 q 599 555 578 503 q 620 665 620 608 q 558 822 620 761 q 399 883 497 883 q 273 852 328 883 q 186 767 218 822 q 154 648 154 712 q 157 589 154 625 z "},"3":{"ha":861,"x_min":67,"x_max":767,"o":"m 184 693 l 119 703 q 157 825 127 777 q 266 926 195 890 q 428 962 336 962 q 587 930 518 962 q 690 845 655 898 q 725 730 725 791 q 699 633 725 675 q 620 556 672 590 q 524 515 583 532 q 627 486 587 506 q 730 394 692 452 q 767 266 767 336 q 669 69 767 154 q 414 -16 570 -16 q 155 66 260 -16 q 67 206 67 136 q 85 253 67 234 q 130 271 103 271 q 181 248 160 271 q 208 186 193 235 q 279 82 229 118 q 404 46 329 46 q 523 75 470 46 q 606 158 575 104 q 636 275 636 212 q 614 368 636 327 q 551 437 592 409 q 472 469 520 460 q 385 477 423 477 l 321 477 l 321 543 l 361 543 q 475 557 421 543 q 562 614 530 571 q 595 713 595 658 q 572 798 595 760 q 505 859 549 836 q 404 881 461 881 q 300 858 347 881 q 224 796 253 835 q 184 693 196 758 z "},"4":{"ha":861,"x_min":58,"x_max":795,"o":"m 503 946 l 618 946 l 618 396 l 795 396 l 795 311 l 618 311 l 618 0 l 503 0 l 503 311 l 58 311 l 58 431 l 503 946 m 503 396 l 503 841 l 119 396 l 503 396 z "},"5":{"ha":861,"x_min":102,"x_max":784,"o":"m 186 946 l 608 946 q 655 950 647 946 q 669 979 667 957 l 718 979 l 718 836 l 250 836 l 238 597 q 312 611 267 606 q 415 618 370 618 q 612 577 528 618 q 740 466 696 536 q 784 307 784 395 q 682 78 784 172 q 423 -16 581 -16 q 259 16 332 -16 q 144 102 185 49 q 102 195 102 155 q 120 241 102 222 q 165 260 138 260 q 216 237 194 260 q 245 177 228 224 q 313 79 268 111 q 426 47 358 47 q 547 77 494 47 q 630 162 600 106 q 661 285 661 217 q 628 412 661 356 q 533 498 595 467 q 384 528 472 528 q 269 517 330 528 q 163 488 208 505 l 186 946 z "},"6":{"ha":861,"x_min":89,"x_max":802,"o":"m 703 964 l 703 902 q 432 853 535 900 q 279 713 328 806 q 224 484 231 620 q 295 566 259 536 q 380 611 332 595 q 486 627 429 627 q 650 587 578 627 q 762 476 722 546 q 802 313 802 407 q 712 77 802 163 q 454 -16 612 -16 q 260 31 339 -16 q 135 176 182 79 q 89 418 89 274 q 138 674 89 562 q 274 854 187 786 q 464 943 361 922 q 650 964 568 964 l 703 964 m 455 555 q 295 481 357 555 q 232 304 232 408 q 262 169 232 231 q 341 76 293 106 q 450 46 389 46 q 605 117 543 46 q 667 307 667 188 q 607 488 667 421 q 455 555 547 555 z "},"7":{"ha":861,"x_min":76,"x_max":796,"o":"m 151 981 l 195 981 l 203 946 l 796 946 l 796 888 q 603 609 690 766 q 469 289 517 452 q 413 0 435 172 l 274 0 q 341 283 294 151 q 475 558 387 414 q 688 844 563 701 l 266 844 q 203 840 220 844 q 176 825 186 835 q 160 789 167 814 l 157 776 l 134 696 l 76 708 l 151 981 z "},"8":{"ha":861,"x_min":78,"x_max":783,"o":"m 537 525 q 659 467 617 494 q 752 375 721 428 q 783 259 783 321 q 687 65 783 147 q 427 -16 591 -16 q 156 76 254 -16 q 78 243 78 150 q 131 378 78 319 q 313 490 195 450 q 180 578 220 533 q 127 720 127 637 q 205 885 127 822 q 442 962 300 962 q 653 896 572 962 q 733 743 733 829 q 713 661 733 700 q 652 588 693 622 q 537 525 610 555 m 475 550 q 576 631 553 608 q 611 684 599 654 q 624 741 624 713 q 600 818 624 781 q 531 876 576 854 q 428 899 485 899 q 288 852 344 899 q 233 745 233 806 q 267 657 233 696 q 396 581 302 618 l 475 550 m 380 463 q 229 354 284 421 q 185 244 185 301 q 254 107 185 167 q 431 47 322 47 q 615 115 541 47 q 675 235 675 171 q 636 331 675 285 q 488 420 596 376 l 380 463 z "},"9":{"ha":861,"x_min":60,"x_max":773,"o":"m 159 -16 l 159 47 q 431 95 328 49 q 583 235 534 142 q 637 465 631 329 q 567 382 603 412 q 482 337 530 353 q 376 321 433 321 q 212 361 284 321 q 100 471 140 402 q 60 634 60 541 q 150 869 60 783 q 409 962 250 962 q 602 915 524 962 q 727 770 681 867 q 773 530 773 672 q 725 275 773 387 q 590 96 677 163 q 400 6 504 28 q 212 -16 296 -16 l 159 -16 m 408 393 q 567 467 505 393 q 630 644 630 541 q 600 780 630 718 q 521 872 569 842 q 412 902 473 902 q 257 831 319 902 q 195 641 195 760 q 255 460 195 527 q 408 393 316 393 z "}," ":{"ha":444,"x_min":0,"x_max":0,"o":""},"!":{"ha":416,"x_min":123,"x_max":294,"o":"m 179 227 l 127 833 q 125 866 125 859 q 146 939 125 916 q 210 962 168 962 q 270 940 247 962 q 292 880 292 918 q 289 839 292 867 l 235 227 l 179 227 m 208 158 q 269 133 244 158 q 294 73 294 109 q 269 13 294 38 q 208 -12 243 -12 q 149 13 174 -12 q 123 73 123 38 q 148 133 123 109 q 208 158 173 158 z "},"\"":{"ha":528,"x_min":102,"x_max":426,"o":"m 136 614 l 104 851 q 102 888 102 869 q 116 944 102 926 q 155 962 131 962 q 192 946 178 962 q 205 898 205 930 q 201 853 205 880 l 164 614 l 136 614 m 357 614 l 325 851 q 322 888 322 869 q 337 944 322 926 q 376 962 351 962 q 412 946 399 962 q 426 899 426 930 q 422 853 426 880 l 385 614 l 357 614 z "},"#":{"ha":833,"x_min":78,"x_max":754,"o":"m 720 379 l 720 300 l 571 300 l 527 -1 l 446 -1 l 490 300 l 305 300 l 263 -1 l 180 -1 l 226 300 l 78 300 l 78 379 l 238 379 l 263 563 l 116 563 l 116 642 l 278 642 l 320 924 l 398 924 l 357 642 l 541 642 l 583 924 l 663 924 l 621 642 l 754 642 l 754 562 l 610 562 l 583 379 l 720 379 m 530 562 l 345 562 l 317 379 l 501 379 l 530 562 z "},"$":{"ha":861,"x_min":58,"x_max":794,"o":"m 393 1099 l 458 1099 l 458 938 q 542 916 506 932 q 614 869 577 901 l 644 929 l 692 929 l 762 654 l 701 633 q 627 762 665 713 q 552 837 590 811 q 458 877 513 863 l 458 547 q 548 515 477 540 q 642 481 627 488 q 720 426 684 460 q 775 350 757 392 q 794 260 794 307 q 756 134 794 191 q 639 39 718 76 q 458 0 561 1 l 458 -163 l 393 -163 l 393 7 q 293 44 339 20 q 199 112 246 69 l 166 18 l 119 18 l 58 345 l 119 358 q 198 214 161 263 q 281 131 234 165 q 393 75 328 97 l 393 447 q 326 469 374 454 q 242 500 262 490 q 153 559 192 524 q 97 632 114 595 q 80 709 80 668 q 116 826 80 772 q 224 912 152 880 q 393 946 297 945 l 393 1099 m 393 883 q 305 871 341 884 q 225 817 255 852 q 195 735 195 781 q 212 671 195 700 q 267 618 229 642 q 393 566 305 595 l 393 883 m 458 67 q 553 82 511 66 q 643 145 611 104 q 675 240 675 187 q 630 346 675 302 q 458 425 585 391 l 458 67 z "},"%":{"ha":1250,"x_min":49,"x_max":1201,"o":"m 271 962 q 427 898 370 962 q 490 704 490 827 q 428 520 490 588 q 265 453 365 453 q 100 532 161 453 q 49 708 49 598 q 110 896 49 829 q 271 962 171 962 m 269 919 q 206 898 233 919 q 160 825 179 878 q 142 702 142 772 q 159 587 142 633 q 204 518 176 541 q 267 496 233 496 q 332 518 302 496 q 379 589 361 541 q 397 708 397 637 q 365 861 397 803 q 269 919 332 919 m 981 962 l 351 -16 l 269 -16 l 899 962 l 981 962 m 982 492 q 1139 428 1082 492 q 1201 234 1201 357 q 1138 51 1201 119 q 976 -16 1076 -16 q 811 62 872 -16 q 760 239 760 128 q 821 426 760 360 q 982 492 882 492 m 980 450 q 917 429 945 450 q 871 356 890 408 q 852 233 852 303 q 870 117 852 163 q 916 49 887 71 q 978 27 945 27 q 1043 49 1013 27 q 1090 119 1072 71 q 1107 238 1107 167 q 1076 392 1107 334 q 980 450 1044 450 z "},"&":{"ha":1111,"x_min":66,"x_max":1093,"o":"m 692 597 l 1008 597 l 1008 540 l 970 540 q 914 534 928 540 q 889 514 900 528 q 873 471 878 500 q 771 204 848 326 q 817 126 785 167 q 872 72 848 85 q 923 58 896 58 q 981 80 958 58 q 1004 130 1004 101 q 995 167 1004 153 q 955 195 985 180 q 920 223 930 208 q 910 258 910 239 q 927 302 910 285 q 973 319 945 319 q 1057 277 1021 319 q 1093 172 1093 235 q 1035 40 1093 96 q 896 -16 977 -16 q 790 12 840 -16 q 692 106 741 39 q 570 20 623 45 q 405 -16 494 -16 q 229 23 307 -16 q 108 130 151 63 q 66 277 66 197 q 101 412 66 351 q 208 521 137 473 q 337 580 260 555 q 252 629 281 603 q 207 688 222 654 q 191 762 191 722 q 254 899 191 844 q 425 962 326 962 q 588 905 524 962 q 652 768 652 847 q 626 670 652 715 q 552 596 600 625 q 473 565 522 576 q 573 515 532 546 q 657 425 614 484 q 741 275 700 366 q 806 494 806 421 q 791 529 806 518 q 732 540 777 540 l 692 540 l 692 597 m 425 900 q 333 861 370 900 q 296 758 296 821 q 333 656 296 696 q 425 616 371 616 q 516 656 478 616 q 555 756 555 696 q 517 860 555 820 q 425 900 479 900 m 397 547 q 295 491 314 505 q 239 436 264 469 q 203 369 215 403 q 192 299 192 336 q 249 145 192 214 q 433 58 321 58 q 539 81 488 58 q 656 161 610 115 q 639 193 650 170 l 532 402 q 495 465 519 429 q 457 508 480 488 q 397 547 433 528 z "},"'":{"ha":306,"x_min":101,"x_max":205,"o":"m 136 614 l 103 851 q 101 888 101 869 q 116 944 101 926 q 155 962 130 962 q 191 946 177 962 q 205 898 205 930 q 200 853 205 880 l 163 614 l 136 614 z "},"(":{"ha":416,"x_min":122,"x_max":377,"o":"m 334 988 l 377 946 q 316 851 340 907 q 264 652 280 766 q 248 330 248 538 q 263 8 248 115 q 314 -182 278 -99 q 377 -282 338 -241 l 334 -321 q 219 -174 269 -262 q 146 32 170 -85 q 122 343 122 148 q 149 655 122 538 q 236 873 176 772 q 334 988 281 950 z "},")":{"ha":416,"x_min":40,"x_max":295,"o":"m 83 -321 l 40 -278 q 101 -183 77 -240 q 153 15 137 -99 q 169 338 169 130 q 154 659 169 552 q 104 850 139 766 q 40 949 79 908 l 83 988 q 198 841 149 930 q 271 636 247 752 q 295 324 295 520 q 269 13 295 130 q 182 -205 242 -104 q 83 -321 136 -283 z "},"*":{"ha":611,"x_min":58,"x_max":553,"o":"m 290 757 l 261 861 q 255 900 255 880 q 269 946 255 930 q 306 962 283 962 q 340 948 329 962 q 355 897 355 928 q 350 861 355 881 l 323 757 l 350 736 l 437 798 q 498 821 470 821 q 538 806 524 821 q 553 766 553 791 q 529 726 553 744 q 468 708 505 708 l 360 708 l 350 673 l 437 607 q 479 534 479 575 q 463 502 479 517 q 426 486 446 486 q 393 501 414 486 q 360 551 373 515 l 323 654 l 290 654 l 253 551 q 222 502 241 518 q 187 485 203 485 q 150 501 167 485 q 134 532 134 517 q 177 607 134 572 l 261 673 l 253 708 l 144 708 q 82 725 105 708 q 58 765 58 743 q 72 803 58 788 q 107 819 86 819 q 172 798 143 819 l 261 736 l 290 757 z "},"+":{"ha":833,"x_min":86,"x_max":747,"o":"m 747 515 l 747 431 l 458 431 l 458 142 l 375 142 l 375 431 l 86 431 l 86 515 l 375 515 l 375 804 l 458 804 l 458 515 l 747 515 z "},",":{"ha":444,"x_min":113,"x_max":329,"o":"m 150 -245 l 113 -201 q 252 -12 252 -87 q 251 10 252 -3 q 229 3 239 5 q 208 0 218 0 q 156 21 176 0 q 136 75 136 42 q 160 130 136 106 q 217 154 184 154 q 296 117 263 154 q 329 22 329 80 q 313 -58 329 -16 q 268 -135 298 -100 q 150 -245 238 -171 z "},"-":{"ha":555,"x_min":76,"x_max":479,"o":"m 76 387 l 479 387 l 479 303 l 76 303 l 76 387 z "},"­":{"ha":555,"x_min":76,"x_max":479,"o":"m 76 387 l 479 387 l 479 303 l 76 303 l 76 387 z "},".":{"ha":444,"x_min":137,"x_max":307,"o":"m 222 158 q 282 133 258 158 q 307 73 307 109 q 282 13 307 38 q 222 -12 257 -12 q 162 13 187 -12 q 137 73 137 38 q 162 133 137 109 q 222 158 186 158 z "},"/":{"ha":833,"x_min":115,"x_max":679,"o":"m 679 995 l 216 -302 l 115 -302 l 576 995 l 679 995 z "},":":{"ha":444,"x_min":137,"x_max":307,"o":"m 222 671 q 282 646 257 671 q 307 585 307 621 q 282 524 307 549 q 222 499 257 499 q 162 524 187 499 q 137 584 137 549 q 163 645 137 619 q 222 671 189 671 m 222 158 q 282 133 258 158 q 307 73 307 109 q 282 13 307 38 q 222 -12 257 -12 q 162 13 187 -12 q 137 73 137 38 q 162 133 137 109 q 222 158 186 158 z "},";":{"ha":444,"x_min":113,"x_max":329,"o":"m 222 671 q 282 646 258 671 q 307 585 307 621 q 282 524 307 549 q 222 499 258 499 q 162 524 187 499 q 137 584 137 549 q 163 645 137 619 q 222 671 189 671 m 150 -245 l 113 -201 q 252 -12 252 -87 q 251 10 252 -3 q 229 3 239 5 q 208 0 218 0 q 156 21 176 0 q 136 75 136 42 q 160 130 136 106 q 217 154 184 154 q 296 117 263 154 q 329 22 329 80 q 313 -58 329 -16 q 268 -135 298 -100 q 150 -245 238 -171 z "},";":{"ha":444,"x_min":113,"x_max":329,"o":"m 222 671 q 282 646 258 671 q 307 585 307 621 q 282 524 307 549 q 222 499 258 499 q 162 524 187 499 q 137 584 137 549 q 163 645 137 619 q 222 671 189 671 m 150 -245 l 113 -201 q 252 -12 252 -87 q 251 10 252 -3 q 229 3 239 5 q 208 0 218 0 q 156 21 176 0 q 136 75 136 42 q 160 130 136 106 q 217 154 184 154 q 296 117 263 154 q 329 22 329 80 q 313 -58 329 -16 q 268 -135 298 -100 q 150 -245 238 -171 z "},"<":{"ha":833,"x_min":99,"x_max":710,"o":"m 710 123 l 99 394 l 99 462 l 710 734 l 710 636 l 223 428 l 710 220 l 710 123 z "},"=":{"ha":833,"x_min":86,"x_max":747,"o":"m 747 621 l 747 538 l 86 538 l 86 621 l 747 621 m 747 408 l 747 325 l 86 325 l 86 408 l 747 408 z "},">":{"ha":833,"x_min":123,"x_max":734,"o":"m 123 734 l 734 462 l 734 394 l 123 123 l 123 220 l 610 428 l 123 636 l 123 734 z "},"?":{"ha":750,"x_min":64,"x_max":700,"o":"m 241 227 l 241 468 q 442 490 376 467 q 543 563 508 514 q 578 673 578 612 q 547 783 578 729 q 465 867 516 837 q 357 897 414 897 q 277 879 311 897 q 215 821 244 862 q 174 770 186 779 q 127 751 151 751 q 95 760 111 751 q 73 779 79 768 q 64 812 64 795 q 126 906 64 865 q 335 962 213 962 q 529 921 445 962 q 656 812 613 880 q 700 659 700 745 q 594 452 700 526 q 311 377 488 378 l 311 227 l 241 227 m 275 158 q 335 133 311 158 q 360 73 360 109 q 335 13 360 38 q 275 -12 310 -12 q 215 13 240 -12 q 190 73 190 38 q 215 133 190 109 q 275 158 239 158 z "},"@":{"ha":1139,"x_min":-29,"x_max":1150,"o":"m 860 650 l 781 379 l 735 217 q 720 152 724 179 q 718 123 718 134 q 732 85 718 100 q 769 70 746 70 q 892 123 823 70 q 1008 284 961 176 q 1056 512 1056 393 q 1000 727 1056 631 q 844 876 944 823 q 616 930 744 930 q 329 849 460 930 q 116 614 198 768 q 35 283 35 460 q 102 1 35 125 q 292 -190 170 -122 q 566 -258 413 -258 q 791 -215 686 -258 q 977 -89 895 -172 q 1111 117 1059 -6 l 1150 117 q 1099 0 1128 47 q 966 -156 1048 -87 q 780 -262 884 -224 q 562 -300 675 -300 q 260 -222 395 -300 q 48 -7 125 -144 q -29 301 -29 130 q 56 638 -29 486 q 291 877 142 790 q 612 964 439 964 q 866 906 758 964 q 1036 741 975 848 q 1097 500 1097 633 q 1036 243 1097 363 q 894 72 975 123 q 724 21 812 21 q 645 45 671 21 q 618 115 618 70 q 631 214 618 152 q 474 59 534 97 q 364 20 413 20 q 303 39 331 20 q 258 97 276 58 q 241 180 241 135 q 298 385 241 271 q 448 577 355 500 q 614 654 541 654 q 669 642 644 654 q 709 612 695 630 q 731 560 723 595 l 753 635 l 860 650 m 622 622 q 554 598 592 622 q 466 503 515 574 q 382 342 416 432 q 348 201 348 252 q 372 130 348 157 q 427 102 395 102 q 515 137 465 102 q 622 254 564 171 q 669 349 651 297 q 707 522 707 457 q 682 595 707 568 q 622 622 658 622 z "},"A":{"ha":945,"x_min":2,"x_max":941,"o":"m 418 946 l 530 946 l 823 155 q 867 76 845 96 q 926 57 889 57 l 941 57 l 941 0 l 604 0 l 604 57 q 636 58 621 58 q 679 65 669 58 q 699 98 699 78 q 680 168 699 112 l 617 351 l 274 351 l 201 146 q 189 102 189 114 q 196 78 189 88 q 216 63 203 68 q 255 58 228 58 q 285 57 273 58 l 285 0 l 2 0 l 2 57 q 59 65 41 57 q 89 90 76 73 q 123 163 102 107 l 418 946 m 299 417 l 591 417 l 445 824 l 299 417 z "},"B":{"ha":1027,"x_min":56,"x_max":965,"o":"m 56 946 l 506 946 q 732 931 671 946 q 874 852 822 909 q 927 715 927 795 q 899 612 927 658 q 819 534 871 566 q 726 498 785 513 q 839 465 800 484 q 931 384 897 437 q 965 264 965 331 q 932 145 965 200 q 838 55 899 90 q 696 10 777 20 q 530 0 616 0 l 56 0 l 56 57 l 88 57 q 151 71 134 57 q 176 136 176 91 l 176 793 q 168 857 176 840 q 146 881 161 873 q 88 888 131 888 l 56 888 l 56 946 m 302 871 l 302 524 l 475 524 q 642 536 597 524 q 748 598 711 554 q 785 711 785 642 q 752 809 785 770 q 662 862 718 848 q 510 871 625 871 l 302 871 m 302 459 l 302 149 q 307 93 302 102 q 328 76 312 81 q 393 73 340 73 l 486 73 q 681 88 623 73 q 781 152 740 103 q 823 271 823 201 q 789 374 823 329 q 696 439 755 419 q 486 459 637 459 l 302 459 z "},"C":{"ha":1027,"x_min":75,"x_max":982,"o":"m 819 946 l 868 946 l 954 631 l 891 613 q 814 760 840 722 q 706 855 770 820 q 563 890 641 890 q 394 841 471 890 q 270 697 317 792 q 222 484 222 602 q 270 266 222 361 q 401 119 319 170 q 580 67 484 67 q 764 119 670 67 q 928 263 859 170 l 982 226 q 891 120 940 163 q 730 17 814 50 q 547 -16 647 -16 q 189 147 327 -16 q 75 470 75 283 q 138 719 75 608 q 312 897 201 831 q 551 962 423 962 q 679 944 620 962 q 798 884 737 925 l 819 946 z "},"D":{"ha":1111,"x_min":66,"x_max":1039,"o":"m 66 888 l 66 946 l 404 946 q 727 917 635 946 q 946 758 862 874 q 1039 461 1039 629 q 993 249 1039 347 q 873 92 947 151 q 724 21 811 41 q 549 0 637 0 l 66 0 l 66 57 l 105 57 l 118 56 q 159 66 143 56 q 182 94 175 77 q 186 153 186 106 l 186 786 q 180 855 186 840 q 149 884 170 876 q 66 888 137 888 m 313 73 l 517 73 q 619 84 548 73 q 720 111 690 95 q 807 185 765 134 q 872 308 849 236 q 895 471 895 379 q 872 630 895 563 q 803 751 849 697 q 702 832 758 804 q 576 868 646 861 q 452 871 539 871 l 313 871 l 313 73 z "},"E":{"ha":1000,"x_min":66,"x_max":970,"o":"m 66 946 l 836 946 l 924 697 l 865 675 q 816 771 842 736 q 752 830 789 806 q 678 863 715 854 q 542 871 640 871 l 313 871 l 313 524 l 427 524 q 522 546 490 524 q 566 599 554 567 q 576 682 576 623 l 576 697 l 642 697 l 642 282 l 576 282 l 576 318 q 569 387 576 366 q 543 426 562 408 q 502 452 524 445 q 427 458 479 458 l 313 458 l 313 151 q 317 92 313 102 q 332 77 321 81 q 387 72 342 72 l 529 72 q 714 100 648 72 q 832 188 781 129 q 909 318 872 234 l 970 296 l 865 0 l 66 0 l 66 57 l 94 57 q 153 63 141 57 q 180 92 170 72 q 186 151 186 105 l 186 802 q 178 861 186 846 q 147 884 169 876 q 66 888 136 888 l 66 946 z "},"F":{"ha":889,"x_min":74,"x_max":885,"o":"m 74 946 l 798 946 l 885 698 l 826 675 q 753 800 789 762 q 669 854 717 838 q 520 871 622 871 l 316 871 l 316 507 l 409 507 q 514 522 482 507 q 563 567 546 536 q 580 654 580 597 l 580 680 l 646 680 l 646 264 l 580 264 l 580 301 q 564 385 580 355 q 519 428 547 414 q 419 441 491 441 l 316 441 l 316 146 q 325 90 316 106 q 350 65 333 74 q 409 57 366 57 l 434 57 l 434 0 l 74 0 l 74 57 l 97 57 q 157 65 140 57 q 181 91 174 73 q 189 153 189 108 l 189 797 q 182 856 189 839 q 159 881 174 873 q 106 888 144 888 l 74 888 l 74 946 z "},"G":{"ha":1111,"x_min":73,"x_max":1064,"o":"m 812 946 l 861 946 l 939 654 l 878 633 q 737 831 817 772 q 557 890 658 890 q 315 770 413 890 q 218 484 218 650 q 268 264 218 364 q 401 113 317 165 q 578 60 484 60 q 693 82 638 60 q 781 135 747 104 q 815 186 806 158 q 823 263 824 214 l 823 308 q 811 384 823 361 q 775 416 798 406 q 680 423 758 423 l 680 480 l 1064 480 l 1064 423 l 1033 423 q 978 415 993 423 q 957 391 964 408 q 950 328 950 375 l 950 0 l 883 0 l 847 83 q 726 18 790 41 q 535 -16 629 -16 q 209 124 345 -16 q 73 473 73 264 q 210 821 73 680 q 540 962 348 962 q 635 953 588 962 q 720 926 682 943 q 788 884 749 913 l 812 946 z "},"H":{"ha":1111,"x_min":66,"x_max":1045,"o":"m 66 946 l 431 946 l 431 888 l 406 888 q 343 880 362 888 q 317 852 325 872 q 311 789 311 837 l 311 525 l 802 525 l 802 782 q 798 845 802 834 q 775 878 793 867 q 720 888 757 888 l 683 888 l 683 946 l 1045 946 l 1045 888 l 1013 888 q 959 880 975 888 q 936 857 943 871 q 930 794 930 842 l 930 150 q 937 82 930 96 q 964 61 943 67 q 1045 57 976 57 l 1045 0 l 683 0 l 683 57 l 709 57 q 776 64 760 57 q 798 85 793 71 q 802 158 802 97 l 802 452 l 311 452 l 311 150 q 318 81 311 96 q 346 61 326 66 q 431 57 361 57 l 431 0 l 66 0 l 66 57 l 89 57 q 155 63 142 57 q 176 85 168 68 q 184 142 184 101 l 184 794 q 177 855 184 838 q 154 880 170 872 q 104 888 139 888 l 66 888 l 66 946 z "},"I":{"ha":472,"x_min":55,"x_max":417,"o":"m 55 946 l 417 946 l 417 888 l 389 888 q 332 878 350 888 q 307 847 315 867 q 298 769 298 827 l 298 159 q 307 94 298 113 q 332 66 316 75 q 389 57 348 57 l 417 57 l 417 0 l 55 0 l 55 57 l 85 57 q 141 66 125 57 q 165 93 158 75 q 173 159 173 110 l 173 783 q 165 853 173 836 q 141 880 158 871 q 85 888 125 888 l 55 888 l 55 946 z "},"J":{"ha":833,"x_min":-3,"x_max":779,"o":"m 416 946 l 779 946 l 779 888 l 743 888 q 691 881 706 888 q 667 857 675 873 q 659 808 659 841 l 659 309 q 623 131 659 195 q 506 25 586 67 q 317 -16 425 -16 q 84 60 172 -16 q -3 239 -3 137 q 20 317 -3 290 q 77 345 43 345 q 122 325 104 345 q 140 272 140 304 q 135 233 140 262 q 129 191 129 203 q 180 99 129 140 q 313 58 231 58 q 433 88 380 58 q 510 163 487 118 q 534 292 534 208 l 534 787 q 526 854 534 837 q 501 880 518 871 q 439 888 484 888 l 416 888 l 416 946 z "},"K":{"ha":1000,"x_min":70,"x_max":1000,"o":"m 70 946 l 435 946 l 435 888 l 409 888 q 346 878 364 888 q 320 844 328 867 q 314 788 314 827 l 314 431 l 669 807 q 702 846 697 837 q 707 864 707 854 q 695 882 707 876 q 644 888 684 888 l 623 888 l 623 946 l 962 946 l 962 888 q 889 880 922 889 q 838 856 857 870 q 779 807 796 825 l 525 547 l 814 163 q 877 92 854 111 q 924 65 900 73 q 1000 57 949 57 l 1000 0 l 599 0 l 599 57 l 623 57 q 670 59 663 57 q 688 70 682 62 q 695 87 695 78 q 648 168 695 104 l 435 458 l 314 333 l 314 152 q 323 88 314 105 q 353 63 333 71 q 435 57 368 57 l 435 0 l 70 0 l 70 57 l 98 57 q 157 65 141 57 q 181 94 172 74 q 189 163 189 113 l 189 788 q 181 856 189 838 q 157 881 173 873 q 91 888 142 888 l 70 888 l 70 946 z "},"L":{"ha":833,"x_min":64,"x_max":850,"o":"m 64 946 l 431 946 l 431 888 l 397 888 q 341 881 357 888 q 317 859 325 873 q 310 808 310 845 l 310 149 q 313 94 310 103 q 331 77 317 82 q 386 73 340 73 l 437 73 q 589 98 524 73 q 700 172 653 123 q 790 317 747 220 l 850 296 l 745 0 l 64 0 l 64 57 l 94 57 q 152 64 137 57 q 175 89 167 72 q 183 149 183 106 l 183 792 q 176 858 183 841 q 154 881 168 874 q 94 888 140 888 l 64 888 l 64 946 z "},"M":{"ha":1278,"x_min":65,"x_max":1204,"o":"m 65 946 l 364 946 l 644 197 l 916 946 l 1204 946 l 1204 888 l 1180 888 q 1121 881 1136 888 q 1097 855 1105 873 q 1088 793 1088 836 l 1088 170 q 1095 93 1088 111 q 1119 66 1102 75 q 1180 57 1135 57 l 1204 57 l 1204 0 l 843 0 l 843 57 l 869 57 q 919 62 903 57 q 946 80 935 68 q 958 106 956 93 q 961 150 961 134 l 961 846 l 652 0 l 585 0 l 274 834 l 274 163 q 283 95 274 113 q 310 67 292 77 q 377 57 329 57 l 399 57 l 399 0 l 65 0 l 65 57 l 84 57 q 153 67 132 57 q 182 96 174 77 q 191 170 191 115 l 191 787 q 184 856 191 839 q 159 880 176 872 q 98 888 142 888 l 65 888 l 65 946 z "},"N":{"ha":1027,"x_min":60,"x_max":979,"o":"m 60 946 l 350 946 l 781 237 l 781 777 q 771 846 781 825 q 743 878 762 867 q 686 888 724 888 l 662 888 l 662 946 l 979 946 l 979 888 l 962 888 q 905 882 920 888 q 873 847 884 872 q 863 777 863 822 l 863 0 l 781 0 l 262 852 l 262 177 q 265 109 262 121 q 282 80 270 93 q 312 62 295 67 q 380 57 329 58 l 380 0 l 60 0 l 60 57 l 77 57 q 143 66 125 57 q 170 99 160 76 q 179 177 179 122 l 179 777 q 176 845 179 833 q 153 878 170 868 q 84 888 136 888 l 60 888 l 60 946 z "},"O":{"ha":1111,"x_min":73,"x_max":1038,"o":"m 569 962 q 803 900 699 962 q 977 726 916 833 q 1038 477 1038 618 q 902 121 1038 259 q 556 -16 766 -16 q 184 149 321 -16 q 73 472 73 284 q 136 723 73 612 q 315 898 199 833 q 569 962 431 962 m 569 889 q 387 841 463 889 q 266 698 311 792 q 220 465 220 604 q 265 241 220 333 q 386 100 310 149 q 557 52 462 52 q 724 99 651 52 q 844 250 796 147 q 891 478 891 353 q 844 711 891 606 q 736 846 803 802 q 569 889 669 889 z "},"P":{"ha":861,"x_min":62,"x_max":857,"o":"m 62 946 l 436 946 q 671 924 606 946 q 804 836 751 899 q 857 677 857 774 q 817 536 857 595 q 700 434 768 464 q 483 404 631 404 l 310 404 l 310 161 q 316 92 310 106 q 338 65 324 73 q 396 57 353 57 l 429 57 l 429 0 l 62 0 l 62 57 l 85 57 q 149 65 132 57 q 173 89 165 73 q 181 152 181 106 l 181 799 q 174 859 181 844 q 150 881 167 874 q 85 888 134 888 l 62 888 l 62 946 m 310 872 l 310 475 l 456 475 q 611 495 566 475 q 684 563 655 515 q 713 677 713 612 q 680 796 713 748 q 587 861 646 844 q 429 872 547 872 l 310 872 z "},"Q":{"ha":1111,"x_min":73,"x_max":1038,"o":"m 621 -13 q 620 -38 620 -28 q 661 -129 620 -93 q 769 -165 703 -165 q 847 -154 808 -165 q 937 -113 886 -142 l 973 -167 q 734 -248 839 -248 q 598 -218 663 -248 q 521 -150 549 -195 q 493 -48 493 -104 q 495 -13 493 -37 q 192 141 311 5 q 73 473 73 277 q 136 723 73 612 q 314 898 199 834 q 566 962 429 962 q 802 901 698 962 q 977 726 916 833 q 1038 477 1038 618 q 922 143 1038 277 q 621 -13 807 10 m 569 889 q 387 841 463 889 q 266 698 311 792 q 220 465 220 604 q 265 241 220 333 q 386 100 310 149 q 557 52 462 52 q 724 99 651 52 q 844 250 796 147 q 891 478 891 353 q 844 711 891 606 q 736 846 803 802 q 569 889 669 889 z "},"R":{"ha":1000,"x_min":67,"x_max":998,"o":"m 67 946 l 555 946 q 766 917 694 946 q 875 834 837 888 q 913 707 913 779 q 876 576 913 633 q 769 486 839 519 q 583 452 699 453 l 832 146 q 872 100 863 109 q 922 68 896 79 q 981 57 948 57 l 998 57 l 998 0 l 782 0 l 435 452 l 313 452 l 313 160 q 317 99 313 111 q 341 66 324 76 q 406 57 357 57 l 430 57 l 430 0 l 67 0 l 67 57 l 100 57 q 149 62 136 57 q 171 78 161 66 q 185 109 181 90 q 187 177 186 116 l 187 797 q 179 855 187 838 q 156 881 171 873 q 106 888 142 888 l 67 888 l 67 946 m 313 872 l 313 516 l 508 516 q 647 528 607 516 q 737 588 704 545 q 770 699 770 631 q 746 794 770 755 q 681 853 722 833 q 559 872 640 872 l 313 872 z "},"S":{"ha":917,"x_min":81,"x_max":859,"o":"m 703 946 l 751 946 l 824 654 l 762 635 q 603 829 702 758 q 422 888 522 888 q 315 866 363 888 q 244 811 268 845 q 220 742 220 777 q 239 680 220 710 q 294 628 257 650 q 416 580 332 605 l 593 528 q 688 491 626 518 q 785 434 750 464 q 839 360 819 404 q 859 265 859 316 q 760 68 859 153 q 505 -16 661 -16 q 360 7 424 -16 q 222 90 296 31 l 191 0 l 144 0 l 81 340 l 144 353 q 236 193 178 258 q 362 93 293 127 q 504 60 432 60 q 675 119 602 60 q 736 235 736 168 q 692 336 736 297 q 532 410 647 376 l 362 458 q 161 564 220 500 q 103 712 103 629 q 141 832 103 777 q 258 925 179 888 q 430 962 336 962 q 581 935 509 962 q 674 881 631 916 l 703 946 z "},"T":{"ha":861,"x_min":-13,"x_max":874,"o":"m 85 978 l 132 978 l 139 946 l 720 946 l 725 978 l 774 978 l 874 700 l 813 678 q 709 834 769 789 q 554 880 648 880 q 507 877 515 880 q 497 866 500 873 q 494 819 494 859 l 494 162 q 499 99 494 115 q 513 74 504 83 q 539 61 523 65 q 614 57 556 58 l 614 0 l 249 0 l 249 57 q 323 61 309 58 q 357 87 347 68 q 367 157 367 106 l 367 827 q 364 865 367 859 q 352 876 361 872 q 317 880 344 880 q 199 861 243 880 q 115 796 155 842 q 48 678 76 751 l -13 700 l 85 978 z "},"U":{"ha":1083,"x_min":53,"x_max":1030,"o":"m 53 946 l 418 946 l 418 888 l 394 888 q 330 880 349 888 q 308 857 315 873 q 300 791 300 840 l 300 366 q 328 197 300 252 q 419 104 355 142 q 560 67 484 67 q 707 107 637 67 q 804 202 776 147 q 831 376 831 257 l 831 785 q 823 850 831 830 q 796 879 814 869 q 740 888 778 888 l 713 888 l 713 946 l 1030 946 l 1030 888 l 1008 888 q 935 868 955 888 q 915 791 915 848 l 915 355 q 870 156 915 236 q 740 30 825 77 q 541 -16 654 -16 q 345 31 434 -16 q 215 150 256 79 q 173 328 173 220 l 173 791 q 165 854 173 836 q 141 880 157 872 q 87 888 125 888 l 53 888 l 53 946 z "},"V":{"ha":972,"x_min":1,"x_max":971,"o":"m 1 946 l 347 946 l 347 888 l 320 888 q 274 886 283 888 q 253 872 260 882 q 246 852 246 863 q 260 799 246 833 l 511 144 l 764 799 q 778 851 778 833 q 764 880 778 871 q 709 888 751 888 l 677 888 l 677 946 l 971 946 l 971 888 q 915 882 933 889 q 886 861 897 874 q 854 799 871 842 l 532 0 l 436 0 l 118 799 q 96 848 102 838 q 75 871 87 862 q 47 884 63 880 q 1 888 31 888 l 1 946 z "},"W":{"ha":1333,"x_min":18,"x_max":1316,"o":"m 18 946 l 357 946 l 357 888 l 321 888 q 273 882 286 888 q 253 849 253 871 q 264 800 253 833 l 458 169 l 626 687 l 587 812 q 543 877 572 857 q 481 888 526 888 l 481 946 l 818 946 l 818 888 l 786 888 q 730 878 745 888 q 716 850 716 868 q 727 800 716 836 l 922 165 l 1118 800 q 1128 850 1128 833 q 1114 879 1128 869 q 1061 888 1101 888 l 1027 888 l 1027 946 l 1316 946 l 1316 888 q 1261 881 1279 889 q 1232 859 1243 873 q 1206 800 1220 844 l 945 0 l 847 0 l 665 566 l 481 0 l 384 0 l 127 800 q 82 876 109 857 q 18 888 62 888 l 18 946 z "},"X":{"ha":1000,"x_min":2,"x_max":999,"o":"m 45 946 l 406 946 l 406 888 l 378 888 q 326 883 337 888 q 315 865 315 878 q 319 849 315 857 q 344 814 323 841 l 521 572 l 714 814 q 741 865 741 848 q 731 882 741 876 q 686 888 720 888 l 652 888 l 652 946 l 959 946 l 959 888 q 880 877 904 888 q 813 814 856 865 l 566 517 l 857 136 q 904 84 885 99 q 941 63 923 68 q 999 57 958 57 l 999 0 l 636 0 l 636 57 l 665 57 q 718 63 707 57 q 729 81 729 68 q 725 97 729 89 q 698 136 724 100 l 481 425 l 245 127 q 220 94 223 100 q 216 80 216 87 q 232 61 216 67 q 280 57 242 57 l 309 57 l 309 0 l 2 0 l 2 57 q 63 63 44 57 q 102 83 83 68 q 153 136 122 98 l 438 479 l 184 814 q 122 876 146 864 q 45 888 98 888 l 45 946 z "},"Y":{"ha":889,"x_min":3,"x_max":885,"o":"m 3 946 l 357 946 l 357 888 l 317 888 q 270 882 281 888 q 260 859 260 875 q 273 823 260 846 q 281 807 276 817 l 466 465 l 670 820 q 685 848 682 842 q 687 861 687 854 q 682 877 687 871 q 666 887 677 884 q 628 888 659 888 l 593 888 l 593 946 l 885 946 l 885 888 q 828 884 846 889 q 797 867 809 878 q 764 820 785 856 l 507 393 l 507 155 q 516 87 507 102 q 543 64 524 71 q 628 57 561 57 l 628 0 l 258 0 l 258 57 l 287 57 q 348 65 332 57 q 372 92 363 73 q 378 155 378 104 l 378 368 l 127 812 q 78 877 98 866 q 3 888 58 887 l 3 946 z "},"Z":{"ha":889,"x_min":36,"x_max":877,"o":"m 166 946 l 825 946 l 825 888 l 207 73 l 434 73 q 670 125 589 73 q 814 315 751 177 l 877 294 l 768 0 l 36 0 l 36 57 l 655 873 l 458 873 q 302 854 359 873 q 201 794 244 835 q 110 668 157 754 l 52 696 l 166 946 z "},"[":{"ha":416,"x_min":141,"x_max":351,"o":"m 141 988 l 351 988 l 351 924 l 239 924 l 239 -256 l 351 -256 l 351 -321 l 141 -321 l 141 988 z "},"\\":{"ha":833,"x_min":163,"x_max":718,"o":"m 266 995 l 718 -302 l 617 -302 l 163 995 l 266 995 z "},"]":{"ha":416,"x_min":65,"x_max":275,"o":"m 275 -321 l 65 -321 l 65 -256 l 177 -256 l 177 924 l 65 924 l 65 988 l 275 988 l 275 -321 z "},"^":{"ha":833,"x_min":71,"x_max":762,"o":"m 167 404 l 71 404 l 370 962 l 462 962 l 762 404 l 666 404 l 416 852 l 167 404 z "},"_":{"ha":694,"x_min":-8,"x_max":703,"o":"m -8 -104 l 703 -104 l 703 -174 l -8 -174 l -8 -104 z "},"`":{"ha":472,"x_min":95,"x_max":378,"o":"m 378 793 l 184 834 q 114 862 133 845 q 95 905 95 880 q 109 942 95 928 q 144 957 123 957 q 252 909 188 957 l 378 817 l 378 793 z "},"a":{"ha":806,"x_min":54,"x_max":808,"o":"m 538 393 l 538 467 q 496 574 538 542 q 377 606 454 606 q 311 597 339 606 q 265 572 282 588 q 239 536 248 556 q 223 478 236 528 q 160 417 208 417 q 116 435 133 417 q 100 484 100 453 q 133 571 100 528 q 234 643 166 614 q 395 671 302 671 q 544 644 482 671 q 635 567 606 617 q 655 441 655 532 l 655 180 q 659 107 655 124 q 685 63 666 78 q 733 49 703 49 q 808 64 764 49 l 808 5 q 707 -12 751 -12 q 626 2 659 -12 q 572 42 593 16 q 545 104 551 68 q 397 14 463 40 q 264 -12 332 -12 q 113 39 171 -12 q 54 159 54 90 q 76 237 54 200 q 141 303 97 275 q 278 353 184 332 q 538 393 372 375 m 538 334 q 343 302 380 311 q 237 264 269 285 q 192 221 205 244 q 178 171 178 197 q 194 120 178 144 q 237 81 209 95 q 296 66 264 66 q 395 87 340 66 q 538 170 451 109 l 538 334 z "},"b":{"ha":861,"x_min":39,"x_max":798,"o":"m 39 882 l 39 938 q 125 954 83 941 q 218 995 167 967 l 268 995 l 268 581 q 391 648 328 626 q 519 671 454 671 q 660 630 595 671 q 761 515 724 589 q 798 340 798 441 q 705 79 798 181 q 487 -16 619 -16 q 345 17 408 -16 q 256 92 299 41 l 218 0 l 155 0 l 155 882 l 39 882 m 268 514 l 268 253 q 277 166 268 191 q 313 116 286 142 q 377 74 340 90 q 454 59 414 59 q 564 91 514 59 q 642 185 613 123 q 670 335 670 248 q 610 532 670 458 q 475 593 562 593 q 384 576 430 593 q 268 514 338 559 z "},"c":{"ha":722,"x_min":57,"x_max":693,"o":"m 650 189 l 693 154 q 387 -16 566 -16 q 153 83 248 -16 q 57 329 57 182 q 101 506 57 427 q 225 627 146 584 q 406 671 304 671 q 601 613 523 671 q 679 498 679 556 q 661 450 679 467 q 619 433 642 433 q 595 439 607 433 q 572 458 584 445 q 552 496 566 465 q 524 549 534 536 q 472 592 503 576 q 403 608 441 608 q 296 576 345 608 q 218 482 247 544 q 189 334 189 420 q 260 121 189 200 q 408 54 322 54 q 487 67 447 54 q 564 106 528 80 q 650 189 590 124 z "},"d":{"ha":861,"x_min":56,"x_max":822,"o":"m 473 880 l 473 938 q 557 954 519 942 q 653 995 595 966 l 704 995 l 704 172 q 707 103 704 115 q 730 67 713 77 q 793 57 746 57 l 822 57 l 822 0 l 587 -11 l 587 97 q 459 9 519 35 q 340 -16 400 -16 q 137 82 218 -16 q 56 320 56 181 q 99 502 56 419 q 212 627 142 584 q 367 671 283 671 q 486 648 431 671 q 587 581 541 626 l 587 880 l 473 880 m 587 164 l 587 420 q 566 510 587 475 q 498 571 545 545 q 401 597 451 597 q 293 565 342 597 q 215 472 243 532 q 186 325 186 411 q 213 184 186 243 q 283 94 239 125 q 373 63 327 63 q 476 89 418 63 q 587 164 534 115 z "},"e":{"ha":722,"x_min":58,"x_max":674,"o":"m 631 175 l 674 140 q 578 46 625 81 q 490 -2 532 12 q 393 -16 449 -16 q 224 24 294 -16 q 101 146 144 71 q 58 324 58 222 q 100 507 58 431 q 215 627 141 583 q 387 671 290 671 q 513 648 460 671 q 604 579 567 625 q 659 475 642 534 q 669 385 668 440 l 190 385 q 188 336 188 352 q 218 183 188 250 q 297 85 248 117 q 408 54 346 54 q 511 78 461 54 q 631 175 560 103 m 544 449 q 515 541 534 511 q 462 589 496 571 q 385 606 428 606 q 305 589 342 606 q 243 540 268 571 q 200 449 218 509 l 544 449 z "},"f":{"ha":444,"x_min":46,"x_max":571,"o":"m 46 654 l 162 654 l 162 756 q 232 928 162 861 q 413 995 301 995 q 529 964 488 995 q 571 896 571 932 q 554 855 571 871 q 513 838 538 838 q 474 846 490 838 q 424 887 458 854 q 355 921 388 921 q 315 907 333 921 q 287 866 297 893 q 277 784 277 840 l 277 654 l 405 654 l 405 585 l 277 585 l 277 145 q 284 84 277 100 q 304 63 291 69 q 368 57 318 57 l 395 57 l 395 0 l 46 0 l 46 57 l 67 57 q 135 64 121 57 q 156 86 150 71 q 162 155 163 101 l 162 585 l 46 585 l 46 654 z "},"g":{"ha":750,"x_min":47,"x_max":752,"o":"m 574 601 q 636 654 605 637 q 694 671 668 671 q 735 656 719 671 q 752 621 752 642 q 737 584 752 599 q 699 569 722 569 q 673 572 690 569 q 642 577 654 577 q 606 562 625 577 q 648 442 648 511 q 570 280 648 349 q 371 212 491 212 q 237 239 304 212 q 186 200 193 208 q 177 176 177 189 q 197 143 177 156 q 299 115 223 126 l 495 85 q 626 52 560 75 q 721 -10 692 28 q 751 -101 751 -48 q 668 -244 751 -191 q 356 -313 563 -313 q 180 -290 248 -313 q 75 -224 112 -267 q 47 -161 47 -194 q 75 -79 47 -119 q 202 35 102 -39 q 110 73 138 51 q 75 136 75 100 q 81 169 75 153 q 102 199 87 184 q 155 241 117 214 q 190 267 180 258 q 115 346 140 302 q 90 441 90 389 q 157 592 90 528 q 374 671 237 671 q 481 655 435 671 q 574 601 526 640 m 368 608 q 256 559 302 608 q 210 440 210 511 q 231 354 210 393 q 290 294 252 316 q 370 272 328 272 q 450 294 412 272 q 509 355 488 317 q 530 440 530 393 q 485 561 530 515 q 368 608 439 608 m 260 19 q 174 -71 195 -37 q 153 -138 153 -106 q 174 -190 153 -165 q 247 -232 195 -216 q 376 -248 298 -248 q 535 -228 469 -248 q 629 -177 601 -208 q 650 -119 650 -153 q 633 -71 650 -91 q 568 -37 616 -52 q 479 -16 520 -22 l 260 19 z "},"h":{"ha":917,"x_min":50,"x_max":882,"o":"m 50 880 l 50 938 q 153 959 116 947 q 229 995 189 970 l 282 995 l 282 547 q 427 641 359 611 q 558 671 496 671 q 708 616 649 671 q 766 484 766 562 l 766 151 q 774 86 766 102 q 800 64 782 71 q 882 57 819 57 l 882 0 l 532 0 l 532 57 l 558 57 q 623 65 608 57 q 646 91 639 73 q 653 165 653 109 l 653 396 q 648 496 653 473 q 606 559 637 535 q 524 583 574 583 q 408 555 469 583 q 282 473 347 528 l 282 133 q 289 82 282 95 q 311 63 296 69 q 374 57 327 57 l 401 57 l 401 0 l 50 0 l 50 57 l 71 57 q 143 69 121 57 q 161 93 155 75 q 166 191 166 111 l 166 880 l 50 880 z "},"i":{"ha":416,"x_min":45,"x_max":392,"o":"m 218 977 q 273 954 250 977 q 296 899 296 931 q 273 843 296 866 q 218 820 250 820 q 162 843 185 820 q 139 899 139 866 q 162 954 139 931 q 218 977 185 977 m 45 557 l 45 613 q 139 632 101 620 q 227 671 178 644 l 276 671 l 276 127 q 284 84 276 98 q 307 63 292 70 q 360 57 321 57 l 392 57 l 392 0 l 45 0 l 45 57 l 73 57 q 134 65 118 57 q 156 88 149 73 q 162 158 162 103 l 162 557 l 45 557 z "},"j":{"ha":416,"x_min":-122,"x_max":304,"o":"m 226 977 q 281 954 258 977 q 304 899 304 931 q 281 843 304 866 q 226 820 258 820 q 171 843 193 820 q 148 899 148 866 q 171 954 148 931 q 226 977 193 977 m 53 557 l 53 612 q 140 629 104 617 q 235 671 177 640 l 285 671 l 285 -68 q 254 -202 285 -148 q 169 -288 224 -256 q 38 -320 114 -320 q -79 -290 -35 -320 q -122 -227 -122 -259 q -105 -182 -122 -199 q -60 -164 -87 -164 q -32 -170 -43 -164 q 2 -198 -20 -176 q 54 -241 35 -231 q 86 -250 68 -250 q 153 -209 128 -250 q 171 -112 171 -179 l 171 557 l 53 557 z "},"k":{"ha":861,"x_min":41,"x_max":861,"o":"m 41 882 l 41 938 q 220 995 127 945 l 273 995 l 273 318 l 522 516 q 581 579 581 564 q 568 594 581 589 q 528 597 560 597 l 492 597 l 492 654 l 836 654 l 836 597 q 744 586 779 597 q 664 539 709 574 l 467 389 l 699 136 q 753 84 732 99 q 795 63 774 69 q 861 57 817 58 l 861 0 l 500 0 l 500 57 l 528 57 q 581 63 570 57 q 591 81 591 70 q 571 112 591 92 q 564 120 568 115 l 383 328 l 273 243 l 273 154 q 280 89 273 104 q 303 65 288 73 q 365 57 319 57 l 390 57 l 390 0 l 41 0 l 41 57 q 113 62 100 58 q 148 88 137 69 q 158 161 158 107 l 158 882 l 41 882 z "},"l":{"ha":416,"x_min":43,"x_max":392,"o":"m 43 882 l 43 938 q 222 995 135 945 l 273 995 l 273 160 q 279 94 273 107 q 305 66 288 75 q 370 57 322 57 l 392 57 l 392 0 l 43 0 l 43 57 l 78 57 q 128 67 111 57 q 152 95 144 77 q 159 165 159 113 l 159 882 l 43 882 z "},"m":{"ha":1305,"x_min":49,"x_max":1272,"o":"m 49 557 l 49 614 q 138 631 100 619 q 224 671 176 643 l 275 671 l 275 557 q 395 639 352 618 q 522 671 462 671 q 603 655 564 671 q 667 618 643 640 q 708 557 691 595 q 840 645 779 620 q 963 671 901 671 q 1068 646 1023 671 q 1135 584 1114 621 q 1156 475 1156 547 l 1156 160 q 1158 102 1156 111 q 1172 78 1161 90 q 1198 62 1183 66 q 1251 57 1212 57 l 1272 57 l 1272 0 l 931 0 l 931 57 q 1007 65 989 58 q 1033 91 1024 73 q 1041 160 1041 109 l 1041 459 q 1031 538 1041 516 q 995 574 1021 559 q 930 589 968 589 q 829 563 882 589 q 718 484 758 528 l 718 160 q 722 99 718 113 q 737 74 726 84 q 761 61 747 64 q 829 57 775 57 l 829 0 l 494 0 l 494 57 l 513 57 q 570 66 553 57 q 596 96 587 76 q 603 160 603 111 l 603 449 q 593 535 603 513 q 555 573 583 557 q 490 589 528 589 q 401 567 446 589 q 279 484 335 535 l 279 135 q 288 89 279 104 q 315 66 296 75 q 365 57 333 57 l 390 57 l 390 0 l 49 0 l 49 57 l 67 57 q 129 64 114 57 q 160 97 151 75 q 165 160 165 109 l 165 557 l 49 557 z "},"n":{"ha":917,"x_min":51,"x_max":882,"o":"m 51 557 l 51 614 q 141 630 111 621 q 227 671 171 640 l 276 671 l 276 542 q 429 644 366 617 q 557 671 492 671 q 656 652 613 671 q 725 602 699 633 q 761 529 752 570 q 766 453 766 504 l 766 155 q 774 86 766 101 q 799 64 782 71 q 882 57 816 57 l 882 0 l 533 0 l 533 57 l 552 57 q 618 66 601 57 q 644 92 636 75 q 652 161 652 109 l 652 410 q 639 517 652 488 q 596 566 627 547 q 520 585 566 585 q 403 556 465 585 q 282 473 340 528 l 282 161 q 290 90 282 108 q 315 64 298 73 q 380 57 328 57 l 400 57 l 400 0 l 51 0 l 51 57 l 68 57 q 136 65 118 57 q 162 96 155 74 q 166 170 166 106 l 166 557 l 51 557 z "},"o":{"ha":778,"x_min":56,"x_max":722,"o":"m 393 671 q 565 629 492 671 q 680 509 638 588 q 722 328 722 429 q 679 146 722 226 q 562 25 636 67 q 385 -16 488 -16 q 138 86 220 -16 q 56 327 56 189 q 98 506 56 428 q 218 628 141 585 q 393 671 295 671 m 387 605 q 256 544 310 605 q 189 323 189 468 q 246 110 189 183 q 388 45 298 45 q 491 75 446 45 q 564 173 536 106 q 591 330 591 239 q 562 488 591 418 q 492 574 538 543 q 387 605 446 605 z "},"p":{"ha":861,"x_min":43,"x_max":806,"o":"m 43 557 l 43 613 q 134 626 94 613 q 220 671 173 639 l 273 671 l 273 557 q 414 648 358 625 q 527 671 471 671 q 725 580 643 671 q 806 343 806 489 q 713 79 806 182 q 495 -16 629 -16 q 370 9 429 -16 q 273 72 328 26 l 273 -151 q 276 -210 273 -201 q 290 -232 279 -223 q 315 -243 300 -241 q 393 -245 327 -245 l 393 -302 l 43 -302 l 43 -245 l 74 -245 q 135 -238 121 -245 q 155 -216 149 -231 q 159 -146 159 -205 l 159 557 l 43 557 m 273 488 l 273 254 q 279 186 273 208 q 310 123 287 151 q 374 76 334 96 q 458 56 414 56 q 611 123 547 56 q 676 324 676 189 q 623 519 676 450 q 496 588 569 588 q 393 563 448 588 q 273 488 337 538 z "},"q":{"ha":806,"x_min":48,"x_max":815,"o":"m 621 654 l 695 654 l 695 -146 q 701 -210 695 -196 q 726 -237 710 -229 q 785 -245 743 -245 l 815 -245 l 815 -302 l 465 -302 l 465 -245 l 494 -245 q 549 -238 534 -245 q 571 -215 564 -231 q 579 -161 579 -200 l 579 81 q 507 31 551 54 q 417 -6 464 7 q 342 -16 382 -16 q 196 25 262 -16 q 89 146 129 66 q 48 323 48 226 q 129 559 48 460 q 366 671 220 671 q 478 649 429 671 q 593 568 528 628 l 621 654 m 579 147 l 579 402 q 560 508 579 473 q 493 570 541 544 q 393 596 445 596 q 286 564 336 596 q 207 471 236 532 q 178 326 178 410 q 237 134 178 206 q 376 61 296 61 q 468 80 418 61 q 579 147 517 100 z "},"r":{"ha":611,"x_min":49,"x_max":611,"o":"m 49 557 l 49 613 q 137 630 98 617 q 225 671 176 642 l 276 671 l 276 543 q 388 636 324 602 q 503 671 452 671 q 582 647 553 671 q 611 589 611 623 q 592 546 611 565 q 545 528 572 528 q 524 531 533 528 q 498 546 515 534 q 436 570 461 570 q 361 542 402 570 q 281 470 310 505 l 281 157 q 285 102 281 117 q 300 77 290 87 q 325 62 310 66 q 377 57 340 57 l 399 57 l 399 0 l 49 0 l 49 57 l 78 57 q 132 64 119 57 q 158 93 150 75 q 167 157 167 111 l 167 557 l 49 557 z "},"s":{"ha":722,"x_min":66,"x_max":655,"o":"m 509 654 l 557 654 l 618 447 l 557 427 q 454 558 520 510 q 320 606 388 606 q 235 580 268 606 q 203 522 203 555 q 227 468 203 490 q 330 416 250 445 l 463 369 q 615 283 574 329 q 655 179 655 237 q 625 84 655 130 q 539 11 595 38 q 409 -16 482 -16 q 214 49 295 -16 l 199 0 l 151 0 l 66 222 l 128 246 q 245 108 190 149 q 410 50 321 50 q 507 82 469 50 q 545 152 545 113 q 522 210 545 184 q 428 260 497 236 l 271 317 q 131 397 170 354 q 92 497 92 441 q 156 618 92 566 q 319 671 220 671 q 411 657 370 671 q 491 614 452 644 l 509 654 z "},"t":{"ha":528,"x_min":45,"x_max":509,"o":"m 229 885 l 277 885 l 277 654 l 478 654 l 478 587 l 277 587 l 277 178 q 286 103 277 125 q 317 66 295 81 q 366 52 339 52 q 509 110 431 52 l 509 44 q 329 -16 420 -16 q 236 7 277 -16 q 179 61 194 30 q 163 170 163 92 l 163 587 l 45 587 l 45 644 q 137 684 102 656 q 193 754 172 711 q 229 885 215 798 z "},"u":{"ha":945,"x_min":14,"x_max":904,"o":"m 14 654 l 271 665 l 271 228 q 287 136 271 170 q 335 84 302 102 q 412 65 368 65 q 535 94 467 65 q 673 181 604 123 l 673 497 q 665 563 673 547 q 639 588 658 578 q 579 597 620 597 l 530 597 l 530 654 l 787 665 l 787 159 q 795 91 787 110 q 819 65 803 73 q 883 57 835 57 l 904 57 l 904 0 l 679 -12 l 679 114 q 517 12 586 40 q 376 -16 448 -16 q 284 -2 323 -16 q 216 41 245 12 q 171 109 186 69 q 155 195 155 149 l 155 503 q 148 561 155 545 q 123 588 140 578 q 76 597 106 597 l 14 597 l 14 654 z "},"v":{"ha":722,"x_min":0,"x_max":723,"o":"m 0 654 l 311 654 l 311 597 l 292 597 q 243 595 253 597 q 223 582 230 591 q 216 561 216 573 q 231 506 216 544 l 386 120 l 536 506 q 550 560 550 543 q 536 588 550 578 q 488 597 523 597 l 455 597 l 455 654 l 723 654 l 723 597 q 676 589 695 597 q 647 568 658 581 q 616 506 637 555 l 399 0 l 318 0 l 100 517 q 71 570 87 549 q 42 590 60 583 q 0 597 24 597 l 0 654 z "},"w":{"ha":1083,"x_min":-1,"x_max":1084,"o":"m -1 654 l 311 654 l 311 597 l 290 597 q 237 591 250 597 q 216 562 216 582 q 232 500 216 543 l 372 130 l 509 474 l 497 506 q 448 582 476 561 q 394 597 430 595 l 394 654 l 705 654 l 705 597 l 678 597 q 630 591 641 597 q 611 557 611 581 q 625 500 611 536 l 766 130 l 903 506 q 914 541 913 536 q 916 556 916 548 q 901 586 916 575 q 846 597 886 597 l 821 597 l 821 654 l 1084 654 l 1084 597 q 1037 587 1055 596 q 1008 564 1019 578 q 977 500 997 550 l 779 0 l 698 0 l 541 391 l 387 0 l 306 0 l 106 500 q 75 564 87 549 q 44 589 62 580 q -1 597 26 597 l -1 654 z "},"x":{"ha":778,"x_min":-1,"x_max":779,"o":"m 25 654 l 366 654 l 366 597 l 342 597 q 305 593 322 597 q 289 582 295 590 q 282 568 282 574 q 308 521 282 552 l 405 399 l 518 521 q 549 572 549 555 q 538 591 549 584 q 492 597 528 597 l 466 597 l 466 654 l 755 654 l 755 597 q 682 580 713 595 q 609 521 651 564 l 454 359 l 647 139 l 654 130 q 718 71 683 93 q 779 57 738 58 l 779 0 l 446 0 l 446 57 l 475 57 q 516 61 507 57 q 531 84 531 68 q 498 139 531 99 l 375 290 l 237 139 l 224 123 l 216 115 q 199 82 199 96 q 210 63 199 69 q 257 57 220 57 l 284 57 l 284 0 l -1 0 l -1 57 q 51 64 32 58 q 87 84 70 71 q 132 123 118 109 l 330 327 l 161 521 q 111 571 130 557 q 75 592 92 586 q 25 597 57 597 l 25 654 z "},"y":{"ha":750,"x_min":-24,"x_max":757,"o":"m -7 654 l 322 654 l 322 597 l 295 597 q 249 595 256 597 q 234 584 240 593 q 228 563 228 576 q 246 501 228 545 l 404 132 l 549 485 q 575 568 575 547 q 564 590 575 583 q 511 597 552 597 l 479 597 l 479 654 l 757 654 l 757 597 l 741 597 q 688 592 700 597 q 664 570 675 587 q 627 494 652 553 l 378 -85 q 318 -201 351 -148 q 235 -283 285 -254 q 124 -313 184 -313 q 12 -281 54 -313 q -24 -213 -24 -254 q -8 -171 -24 -188 q 28 -155 7 -155 q 59 -161 45 -155 q 96 -190 68 -165 q 143 -227 130 -220 q 171 -233 157 -233 q 226 -214 199 -233 q 272 -161 253 -195 q 317 -68 299 -111 l 345 0 l 121 501 q 81 572 97 554 q 48 595 64 591 q -7 597 39 597 l -7 654 z "},"z":{"ha":667,"x_min":24,"x_max":657,"o":"m 139 654 l 633 654 l 633 597 l 176 63 l 289 63 q 479 95 421 63 q 597 246 558 140 l 657 224 l 574 0 l 24 0 l 24 57 l 481 587 l 348 587 q 203 553 255 587 q 107 427 151 520 l 49 455 l 139 654 z "},"{":{"ha":389,"x_min":54,"x_max":432,"o":"m 432 -276 l 432 -300 q 317 -262 366 -290 q 214 -164 251 -224 q 177 -36 177 -104 q 191 70 177 9 q 208 174 208 140 q 166 267 208 225 q 54 319 125 309 l 54 347 q 166 398 125 356 q 208 492 208 439 q 191 595 208 525 q 177 702 177 656 q 216 832 177 771 q 321 930 256 893 q 432 964 368 956 l 432 941 q 316 879 353 922 q 279 780 279 837 q 295 673 279 745 q 309 568 309 612 q 258 433 309 497 q 109 334 207 369 q 257 234 205 299 q 309 98 309 169 q 295 -8 309 53 q 279 -115 279 -79 q 316 -214 279 -171 q 432 -276 353 -256 z "},"|":{"ha":833,"x_min":368,"x_max":467,"o":"m 368 995 l 467 995 l 467 -302 l 368 -302 l 368 995 z "},"}":{"ha":389,"x_min":-18,"x_max":360,"o":"m -18 941 l -18 964 q 97 927 47 956 q 200 829 163 889 q 237 701 237 770 q 222 595 237 655 q 205 492 205 525 q 247 398 205 440 q 360 347 289 356 l 360 319 q 247 268 289 309 q 205 173 205 226 q 222 70 205 140 q 237 -37 237 9 q 197 -167 237 -106 q 92 -264 158 -228 q -18 -300 45 -291 l -18 -276 q 98 -214 60 -256 q 135 -115 135 -172 q 119 -8 135 -79 q 104 98 104 53 q 155 232 104 168 q 304 331 207 296 q 156 431 209 366 q 104 568 104 496 q 119 673 104 612 q 135 781 135 745 q 98 879 135 836 q -18 941 60 922 z "},"~":{"ha":833,"x_min":109,"x_max":724,"o":"m 665 570 l 724 505 q 676 421 703 452 q 617 376 650 391 q 548 360 585 360 q 493 370 521 360 q 410 410 479 375 l 320 454 q 286 460 303 460 q 233 437 253 460 q 173 338 213 414 l 109 405 q 163 488 136 459 q 222 532 191 517 q 285 547 253 547 q 336 538 309 547 q 435 492 363 529 q 516 453 500 459 q 544 446 533 446 q 604 474 576 446 q 665 570 623 493 z "},"Ä":{"ha":945,"x_min":2,"x_max":941,"o":"m 418 946 l 530 946 l 823 155 q 867 76 845 96 q 926 57 889 57 l 941 57 l 941 0 l 604 0 l 604 57 q 636 58 621 58 q 679 65 669 58 q 699 98 699 78 q 680 168 699 112 l 617 351 l 274 351 l 201 146 q 189 102 189 114 q 196 78 189 88 q 216 63 203 68 q 255 58 228 58 q 285 57 273 58 l 285 0 l 2 0 l 2 57 q 59 65 41 57 q 89 90 76 73 q 123 163 102 107 l 418 946 m 299 417 l 591 417 l 445 824 l 299 417 m 359 1159 q 417 1135 393 1159 q 441 1076 441 1110 q 417 1017 441 1042 q 359 993 393 993 q 300 1017 325 993 q 276 1076 276 1042 q 300 1135 276 1110 q 359 1159 324 1159 m 585 1159 q 644 1135 619 1159 q 668 1076 668 1110 q 644 1017 668 1042 q 585 993 619 993 q 527 1017 551 993 q 503 1076 503 1042 q 527 1135 503 1110 q 585 1159 551 1159 z "},"Å":{"ha":945,"x_min":2,"x_max":941,"o":"m 418 946 l 530 946 l 823 155 q 867 76 845 96 q 926 57 889 57 l 941 57 l 941 0 l 604 0 l 604 57 q 636 58 621 58 q 679 65 669 58 q 699 98 699 78 q 680 168 699 112 l 617 351 l 274 351 l 201 146 q 189 102 189 114 q 196 78 189 88 q 216 63 203 68 q 255 58 228 58 q 285 57 273 58 l 285 0 l 2 0 l 2 57 q 59 65 41 57 q 89 90 76 73 q 123 163 102 107 l 418 946 m 299 417 l 591 417 l 445 824 l 299 417 m 472 1242 q 563 1204 526 1242 q 600 1114 600 1166 q 563 1022 600 1060 q 472 985 525 985 q 382 1022 419 985 q 345 1114 345 1060 q 382 1204 345 1166 q 472 1242 419 1242 m 472 1194 q 415 1171 439 1194 q 392 1114 392 1147 q 415 1056 392 1080 q 472 1032 439 1032 q 529 1056 505 1032 q 553 1114 553 1080 q 529 1171 553 1147 q 472 1194 505 1194 z "},"Ç":{"ha":1027,"x_min":75,"x_max":982,"o":"m 819 946 l 868 946 l 954 631 l 891 613 q 814 760 840 722 q 706 855 770 820 q 563 890 641 890 q 394 841 471 890 q 270 697 317 792 q 222 484 222 602 q 270 266 222 361 q 401 119 319 170 q 580 67 484 67 q 764 119 670 67 q 928 263 859 170 l 982 226 q 891 120 940 163 q 730 17 814 50 q 547 -16 647 -16 q 189 147 327 -16 q 75 470 75 283 q 138 719 75 608 q 312 897 201 831 q 551 962 423 962 q 679 944 620 962 q 798 884 737 925 l 819 946 m 507 0 l 490 -59 q 523 -57 517 -57 q 593 -72 561 -57 q 632 -105 618 -83 q 646 -159 646 -128 q 611 -245 646 -212 q 517 -278 576 -278 q 415 -249 458 -278 q 383 -200 383 -228 q 393 -175 383 -185 q 418 -165 403 -165 q 444 -172 434 -165 q 462 -199 454 -179 q 479 -228 472 -222 q 515 -240 494 -240 q 562 -219 543 -240 q 581 -165 581 -199 q 560 -113 581 -131 q 497 -94 540 -94 q 431 -108 469 -94 l 465 0 l 507 0 z "},"É":{"ha":1000,"x_min":66,"x_max":970,"o":"m 66 946 l 836 946 l 924 697 l 865 675 q 816 771 842 736 q 752 830 789 806 q 678 863 715 854 q 542 871 640 871 l 313 871 l 313 524 l 427 524 q 522 546 490 524 q 566 599 554 567 q 576 682 576 623 l 576 697 l 642 697 l 642 282 l 576 282 l 576 318 q 569 387 576 366 q 543 426 562 408 q 502 452 524 445 q 427 458 479 458 l 313 458 l 313 151 q 317 92 313 102 q 332 77 321 81 q 387 72 342 72 l 529 72 q 714 100 648 72 q 832 188 781 129 q 909 318 872 234 l 970 296 l 865 0 l 66 0 l 66 57 l 94 57 q 153 63 141 57 q 180 92 170 72 q 186 151 186 105 l 186 802 q 178 861 186 846 q 147 884 169 876 q 66 888 136 888 l 66 946 m 359 1018 l 359 1042 l 484 1134 q 592 1181 549 1181 q 626 1167 612 1181 q 640 1131 640 1152 q 621 1087 640 1104 q 553 1059 602 1069 l 359 1018 z "},"Ñ":{"ha":1027,"x_min":60,"x_max":979,"o":"m 60 946 l 350 946 l 781 237 l 781 777 q 771 846 781 825 q 743 878 762 867 q 686 888 724 888 l 662 888 l 662 946 l 979 946 l 979 888 l 962 888 q 905 882 920 888 q 873 847 884 872 q 863 777 863 822 l 863 0 l 781 0 l 262 852 l 262 177 q 265 109 262 121 q 282 80 270 93 q 312 62 295 67 q 380 57 329 58 l 380 0 l 60 0 l 60 57 l 77 57 q 143 66 125 57 q 170 99 160 76 q 179 177 179 122 l 179 777 q 176 845 179 833 q 153 878 170 868 q 84 888 136 888 l 60 888 l 60 946 m 728 1124 q 677 1049 716 1079 q 590 1019 638 1019 q 562 1022 574 1019 q 500 1040 549 1025 q 395 1063 427 1063 q 340 1035 366 1063 l 300 1048 q 347 1117 313 1091 q 420 1143 380 1143 q 552 1118 461 1143 q 621 1105 597 1105 q 687 1136 664 1105 l 728 1124 z "},"Ö":{"ha":1111,"x_min":73,"x_max":1038,"o":"m 569 962 q 803 900 699 962 q 977 726 916 833 q 1038 477 1038 618 q 902 121 1038 259 q 556 -16 766 -16 q 184 149 321 -16 q 73 472 73 284 q 136 723 73 612 q 315 898 199 833 q 569 962 431 962 m 569 889 q 387 841 463 889 q 266 698 311 792 q 220 465 220 604 q 265 241 220 333 q 386 100 310 149 q 557 52 462 52 q 724 99 651 52 q 844 250 796 147 q 891 478 891 353 q 844 711 891 606 q 736 846 803 802 q 569 889 669 889 m 442 1159 q 500 1135 476 1159 q 525 1076 525 1110 q 500 1017 525 1042 q 442 993 476 993 q 384 1017 408 993 q 359 1076 359 1042 q 384 1135 359 1110 q 442 1159 408 1159 m 669 1159 q 727 1135 703 1159 q 751 1076 751 1110 q 727 1017 751 1042 q 669 993 703 993 q 610 1017 634 993 q 586 1076 586 1042 q 610 1135 586 1110 q 669 1159 634 1159 z "},"Ü":{"ha":1083,"x_min":53,"x_max":1030,"o":"m 53 946 l 418 946 l 418 888 l 394 888 q 330 880 349 888 q 308 857 315 873 q 300 791 300 840 l 300 366 q 328 197 300 252 q 419 104 355 142 q 560 67 484 67 q 707 107 637 67 q 804 202 776 147 q 831 376 831 257 l 831 785 q 823 850 831 830 q 796 879 814 869 q 740 888 778 888 l 713 888 l 713 946 l 1030 946 l 1030 888 l 1008 888 q 935 868 955 888 q 915 791 915 848 l 915 355 q 870 156 915 236 q 740 30 825 77 q 541 -16 654 -16 q 345 31 434 -16 q 215 150 256 79 q 173 328 173 220 l 173 791 q 165 854 173 836 q 141 880 157 872 q 87 888 125 888 l 53 888 l 53 946 m 429 1159 q 487 1135 463 1159 q 511 1076 511 1110 q 487 1017 511 1042 q 429 993 463 993 q 370 1017 395 993 q 346 1076 346 1042 q 370 1135 346 1110 q 429 1159 394 1159 m 655 1159 q 713 1135 689 1159 q 738 1076 738 1110 q 713 1017 738 1042 q 655 993 689 993 q 596 1017 621 993 q 572 1076 572 1042 q 596 1135 572 1110 q 655 1159 621 1159 z "},"á":{"ha":806,"x_min":54,"x_max":808,"o":"m 538 393 l 538 467 q 496 574 538 542 q 377 606 454 606 q 311 597 339 606 q 265 572 282 588 q 239 536 248 556 q 223 478 236 528 q 160 417 208 417 q 116 435 133 417 q 100 484 100 453 q 133 571 100 528 q 234 643 166 614 q 395 671 302 671 q 544 644 482 671 q 635 567 606 617 q 655 441 655 532 l 655 180 q 659 107 655 124 q 685 63 666 78 q 733 49 703 49 q 808 64 764 49 l 808 5 q 707 -12 751 -12 q 626 2 659 -12 q 572 42 593 16 q 545 104 551 68 q 397 14 463 40 q 264 -12 332 -12 q 113 39 171 -12 q 54 159 54 90 q 76 237 54 200 q 141 303 97 275 q 278 353 184 332 q 538 393 372 375 m 538 334 q 343 302 380 311 q 237 264 269 285 q 192 221 205 244 q 178 171 178 197 q 194 120 178 144 q 237 81 209 95 q 296 66 264 66 q 395 87 340 66 q 538 170 451 109 l 538 334 m 262 793 l 262 817 l 387 909 q 495 957 452 957 q 529 942 515 957 q 543 906 543 928 q 524 862 543 880 q 456 834 505 845 l 262 793 z "},"à":{"ha":806,"x_min":54,"x_max":808,"o":"m 538 393 l 538 467 q 496 574 538 542 q 377 606 454 606 q 311 597 339 606 q 265 572 282 588 q 239 536 248 556 q 223 478 236 528 q 160 417 208 417 q 116 435 133 417 q 100 484 100 453 q 133 571 100 528 q 234 643 166 614 q 395 671 302 671 q 544 644 482 671 q 635 567 606 617 q 655 441 655 532 l 655 180 q 659 107 655 124 q 685 63 666 78 q 733 49 703 49 q 808 64 764 49 l 808 5 q 707 -12 751 -12 q 626 2 659 -12 q 572 42 593 16 q 545 104 551 68 q 397 14 463 40 q 264 -12 332 -12 q 113 39 171 -12 q 54 159 54 90 q 76 237 54 200 q 141 303 97 275 q 278 353 184 332 q 538 393 372 375 m 538 334 q 343 302 380 311 q 237 264 269 285 q 192 221 205 244 q 178 171 178 197 q 194 120 178 144 q 237 81 209 95 q 296 66 264 66 q 395 87 340 66 q 538 170 451 109 l 538 334 m 530 793 l 336 834 q 267 862 286 845 q 248 905 248 880 q 261 942 248 928 q 297 957 275 957 q 405 909 340 957 l 530 817 l 530 793 z "},"â":{"ha":806,"x_min":54,"x_max":808,"o":"m 538 393 l 538 467 q 496 574 538 542 q 377 606 454 606 q 311 597 339 606 q 265 572 282 588 q 239 536 248 556 q 223 478 236 528 q 160 417 208 417 q 116 435 133 417 q 100 484 100 453 q 133 571 100 528 q 234 643 166 614 q 395 671 302 671 q 544 644 482 671 q 635 567 606 617 q 655 441 655 532 l 655 180 q 659 107 655 124 q 685 63 666 78 q 733 49 703 49 q 808 64 764 49 l 808 5 q 707 -12 751 -12 q 626 2 659 -12 q 572 42 593 16 q 545 104 551 68 q 397 14 463 40 q 264 -12 332 -12 q 113 39 171 -12 q 54 159 54 90 q 76 237 54 200 q 141 303 97 275 q 278 353 184 332 q 538 393 372 375 m 538 334 q 343 302 380 311 q 237 264 269 285 q 192 221 205 244 q 178 171 178 197 q 194 120 178 144 q 237 81 209 95 q 296 66 264 66 q 395 87 340 66 q 538 170 451 109 l 538 334 m 402 952 l 600 823 l 581 788 l 402 851 l 224 788 l 205 823 l 402 952 z "},"ä":{"ha":806,"x_min":54,"x_max":808,"o":"m 538 393 l 538 467 q 496 574 538 542 q 377 606 454 606 q 311 597 339 606 q 265 572 282 588 q 239 536 248 556 q 223 478 236 528 q 160 417 208 417 q 116 435 133 417 q 100 484 100 453 q 133 571 100 528 q 234 643 166 614 q 395 671 302 671 q 544 644 482 671 q 635 567 606 617 q 655 441 655 532 l 655 180 q 659 107 655 124 q 685 63 666 78 q 733 49 703 49 q 808 64 764 49 l 808 5 q 707 -12 751 -12 q 626 2 659 -12 q 572 42 593 16 q 545 104 551 68 q 397 14 463 40 q 264 -12 332 -12 q 113 39 171 -12 q 54 159 54 90 q 76 237 54 200 q 141 303 97 275 q 278 353 184 332 q 538 393 372 375 m 538 334 q 343 302 380 311 q 237 264 269 285 q 192 221 205 244 q 178 171 178 197 q 194 120 178 144 q 237 81 209 95 q 296 66 264 66 q 395 87 340 66 q 538 170 451 109 l 538 334 m 290 935 q 348 910 323 935 q 372 851 372 886 q 348 793 372 817 q 290 768 323 768 q 231 793 256 768 q 207 851 207 817 q 231 910 207 886 q 290 935 255 935 m 516 935 q 574 910 550 935 q 599 851 599 886 q 574 793 599 817 q 516 768 550 768 q 457 793 481 768 q 433 851 433 817 q 457 910 433 886 q 516 935 481 935 z "},"ã":{"ha":806,"x_min":54,"x_max":808,"o":"m 538 393 l 538 467 q 496 574 538 542 q 377 606 454 606 q 311 597 339 606 q 265 572 282 588 q 239 536 248 556 q 223 478 236 528 q 160 417 208 417 q 116 435 133 417 q 100 484 100 453 q 133 571 100 528 q 234 643 166 614 q 395 671 302 671 q 544 644 482 671 q 635 567 606 617 q 655 441 655 532 l 655 180 q 659 107 655 124 q 685 63 666 78 q 733 49 703 49 q 808 64 764 49 l 808 5 q 707 -12 751 -12 q 626 2 659 -12 q 572 42 593 16 q 545 104 551 68 q 397 14 463 40 q 264 -12 332 -12 q 113 39 171 -12 q 54 159 54 90 q 76 237 54 200 q 141 303 97 275 q 278 353 184 332 q 538 393 372 375 m 538 334 q 343 302 380 311 q 237 264 269 285 q 192 221 205 244 q 178 171 178 197 q 194 120 178 144 q 237 81 209 95 q 296 66 264 66 q 395 87 340 66 q 538 170 451 109 l 538 334 m 616 899 q 566 824 605 854 q 479 794 527 794 q 450 797 463 794 q 389 814 437 800 q 284 838 315 838 q 229 810 254 838 l 189 823 q 236 892 202 866 q 309 918 269 918 q 441 892 350 918 q 509 880 486 880 q 576 911 553 880 l 616 899 z "},"å":{"ha":806,"x_min":54,"x_max":808,"o":"m 538 393 l 538 467 q 496 574 538 542 q 377 606 454 606 q 311 597 339 606 q 265 572 282 588 q 239 536 248 556 q 223 478 236 528 q 160 417 208 417 q 116 435 133 417 q 100 484 100 453 q 133 571 100 528 q 234 643 166 614 q 395 671 302 671 q 544 644 482 671 q 635 567 606 617 q 655 441 655 532 l 655 180 q 659 107 655 124 q 685 63 666 78 q 733 49 703 49 q 808 64 764 49 l 808 5 q 707 -12 751 -12 q 626 2 659 -12 q 572 42 593 16 q 545 104 551 68 q 397 14 463 40 q 264 -12 332 -12 q 113 39 171 -12 q 54 159 54 90 q 76 237 54 200 q 141 303 97 275 q 278 353 184 332 q 538 393 372 375 m 538 334 q 343 302 380 311 q 237 264 269 285 q 192 221 205 244 q 178 171 178 197 q 194 120 178 144 q 237 81 209 95 q 296 66 264 66 q 395 87 340 66 q 538 170 451 109 l 538 334 m 402 1017 q 493 979 456 1017 q 530 888 530 941 q 493 797 530 835 q 402 760 455 760 q 312 797 349 760 q 275 888 275 835 q 312 979 275 941 q 402 1017 349 1017 m 402 969 q 346 945 369 969 q 322 888 322 922 q 346 831 322 854 q 402 807 369 807 q 459 831 435 807 q 483 888 483 854 q 459 945 483 922 q 402 969 435 969 z "},"ç":{"ha":722,"x_min":57,"x_max":693,"o":"m 650 189 l 693 154 q 387 -16 566 -16 q 153 83 248 -16 q 57 329 57 182 q 101 506 57 427 q 225 627 146 584 q 406 671 304 671 q 601 613 523 671 q 679 498 679 556 q 661 450 679 467 q 619 433 642 433 q 595 439 607 433 q 572 458 584 445 q 552 496 566 465 q 524 549 534 536 q 472 592 503 576 q 403 608 441 608 q 296 576 345 608 q 218 482 247 544 q 189 334 189 420 q 260 121 189 200 q 408 54 322 54 q 487 67 447 54 q 564 106 528 80 q 650 189 590 124 m 354 0 l 336 -59 q 370 -57 364 -57 q 440 -72 408 -57 q 478 -105 465 -83 q 492 -159 492 -128 q 457 -245 492 -212 q 363 -278 422 -278 q 262 -249 304 -278 q 230 -200 230 -228 q 240 -175 230 -185 q 265 -165 250 -165 q 291 -172 281 -165 q 309 -199 301 -179 q 326 -228 319 -222 q 362 -240 341 -240 q 408 -219 389 -240 q 427 -165 427 -199 q 407 -113 427 -131 q 344 -94 387 -94 q 277 -108 316 -94 l 312 0 l 354 0 z "},"é":{"ha":722,"x_min":58,"x_max":674,"o":"m 631 175 l 674 140 q 578 46 625 81 q 490 -2 532 12 q 393 -16 449 -16 q 224 24 294 -16 q 101 146 144 71 q 58 324 58 222 q 100 507 58 431 q 215 627 141 583 q 387 671 290 671 q 513 648 460 671 q 604 579 567 625 q 659 475 642 534 q 669 385 668 440 l 190 385 q 188 336 188 352 q 218 183 188 250 q 297 85 248 117 q 408 54 346 54 q 511 78 461 54 q 631 175 560 103 m 544 449 q 515 541 534 511 q 462 589 496 571 q 385 606 428 606 q 305 589 342 606 q 243 540 268 571 q 200 449 218 509 l 544 449 m 241 793 l 241 817 l 366 909 q 474 957 431 957 q 508 942 494 957 q 522 906 522 928 q 503 862 522 880 q 435 834 484 845 l 241 793 z "},"è":{"ha":722,"x_min":58,"x_max":674,"o":"m 631 175 l 674 140 q 578 46 625 81 q 490 -2 532 12 q 393 -16 449 -16 q 224 24 294 -16 q 101 146 144 71 q 58 324 58 222 q 100 507 58 431 q 215 627 141 583 q 387 671 290 671 q 513 648 460 671 q 604 579 567 625 q 659 475 642 534 q 669 385 668 440 l 190 385 q 188 336 188 352 q 218 183 188 250 q 297 85 248 117 q 408 54 346 54 q 511 78 461 54 q 631 175 560 103 m 544 449 q 515 541 534 511 q 462 589 496 571 q 385 606 428 606 q 305 589 342 606 q 243 540 268 571 q 200 449 218 509 l 544 449 m 503 793 l 309 834 q 239 862 258 845 q 220 905 220 880 q 234 942 220 928 q 269 957 248 957 q 377 909 313 957 l 503 817 l 503 793 z "},"ê":{"ha":722,"x_min":58,"x_max":674,"o":"m 631 175 l 674 140 q 578 46 625 81 q 490 -2 532 12 q 393 -16 449 -16 q 224 24 294 -16 q 101 146 144 71 q 58 324 58 222 q 100 507 58 431 q 215 627 141 583 q 387 671 290 671 q 513 648 460 671 q 604 579 567 625 q 659 475 642 534 q 669 385 668 440 l 190 385 q 188 336 188 352 q 218 183 188 250 q 297 85 248 117 q 408 54 346 54 q 511 78 461 54 q 631 175 560 103 m 544 449 q 515 541 534 511 q 462 589 496 571 q 385 606 428 606 q 305 589 342 606 q 243 540 268 571 q 200 449 218 509 l 544 449 m 415 952 l 612 823 l 594 788 l 415 851 l 237 788 l 218 823 l 415 952 z "},"ë":{"ha":722,"x_min":58,"x_max":674,"o":"m 631 175 l 674 140 q 578 46 625 81 q 490 -2 532 12 q 393 -16 449 -16 q 224 24 294 -16 q 101 146 144 71 q 58 324 58 222 q 100 507 58 431 q 215 627 141 583 q 387 671 290 671 q 513 648 460 671 q 604 579 567 625 q 659 475 642 534 q 669 385 668 440 l 190 385 q 188 336 188 352 q 218 183 188 250 q 297 85 248 117 q 408 54 346 54 q 511 78 461 54 q 631 175 560 103 m 544 449 q 515 541 534 511 q 462 589 496 571 q 385 606 428 606 q 305 589 342 606 q 243 540 268 571 q 200 449 218 509 l 544 449 m 269 935 q 327 910 302 935 q 351 851 351 886 q 327 793 351 817 q 269 768 302 768 q 210 793 235 768 q 186 851 186 817 q 210 910 186 886 q 269 935 234 935 m 495 935 q 553 910 529 935 q 578 851 578 886 q 553 793 578 817 q 495 768 529 768 q 436 793 460 768 q 412 851 412 817 q 436 910 412 886 q 495 935 460 935 z "},"í":{"ha":416,"x_min":41,"x_max":389,"o":"m 41 557 l 41 613 q 136 632 98 620 q 223 671 174 644 l 273 671 l 273 158 q 276 95 273 106 q 300 65 282 75 q 357 57 315 57 l 389 57 l 389 0 l 41 0 l 41 57 l 69 57 q 130 65 115 57 q 152 88 146 73 q 159 158 159 103 l 159 557 l 41 557 m 67 793 l 67 817 l 193 909 q 300 957 257 957 q 335 942 321 957 q 349 906 349 928 q 330 862 349 880 q 261 834 311 845 l 67 793 z "},"ì":{"ha":416,"x_min":40,"x_max":389,"o":"m 41 557 l 41 613 q 136 632 98 620 q 223 671 174 644 l 273 671 l 273 158 q 276 95 273 106 q 300 65 282 75 q 357 57 315 57 l 389 57 l 389 0 l 41 0 l 41 57 l 69 57 q 130 65 115 57 q 152 88 146 73 q 159 158 159 103 l 159 557 l 41 557 m 323 793 l 129 834 q 59 862 78 845 q 40 905 40 880 q 54 942 40 928 q 90 957 68 957 q 197 909 133 957 l 323 817 l 323 793 z "},"î":{"ha":416,"x_min":12,"x_max":406,"o":"m 41 557 l 41 613 q 136 632 98 620 q 223 671 174 644 l 273 671 l 273 158 q 276 95 273 106 q 300 65 282 75 q 357 57 315 57 l 389 57 l 389 0 l 41 0 l 41 57 l 69 57 q 130 65 115 57 q 152 88 146 73 q 159 158 159 103 l 159 557 l 41 557 m 208 952 l 406 823 l 387 788 l 208 851 l 30 788 l 12 823 l 208 952 z "},"ï":{"ha":416,"x_min":12,"x_max":404,"o":"m 41 557 l 41 613 q 136 632 98 620 q 223 671 174 644 l 273 671 l 273 158 q 276 95 273 106 q 300 65 282 75 q 357 57 315 57 l 389 57 l 389 0 l 41 0 l 41 57 l 69 57 q 130 65 115 57 q 152 88 146 73 q 159 158 159 103 l 159 557 l 41 557 m 95 935 q 153 910 129 935 q 178 851 178 886 q 153 793 178 817 q 95 768 129 768 q 37 793 61 768 q 12 851 12 817 q 36 910 12 886 q 95 935 60 935 m 321 935 q 380 910 355 935 q 404 851 404 886 q 380 793 404 817 q 321 768 355 768 q 263 793 287 768 q 239 851 239 817 q 263 910 239 886 q 321 935 287 935 z "},"ñ":{"ha":917,"x_min":51,"x_max":882,"o":"m 51 557 l 51 614 q 141 630 111 621 q 227 671 171 640 l 276 671 l 276 542 q 429 644 366 617 q 557 671 492 671 q 656 652 613 671 q 725 602 699 633 q 761 529 752 570 q 766 453 766 504 l 766 155 q 774 86 766 101 q 799 64 782 71 q 882 57 816 57 l 882 0 l 533 0 l 533 57 l 552 57 q 618 66 601 57 q 644 92 636 75 q 652 161 652 109 l 652 410 q 639 517 652 488 q 596 566 627 547 q 520 585 566 585 q 403 556 465 585 q 282 473 340 528 l 282 161 q 290 90 282 108 q 315 64 298 73 q 380 57 328 57 l 400 57 l 400 0 l 51 0 l 51 57 l 68 57 q 136 65 118 57 q 162 96 155 74 q 166 170 166 106 l 166 557 l 51 557 m 672 899 q 622 824 661 854 q 534 794 583 794 q 506 797 519 794 q 445 814 493 800 q 340 838 371 838 q 285 810 310 838 l 245 823 q 291 892 258 866 q 365 918 325 918 q 496 892 406 918 q 565 880 541 880 q 631 911 608 880 l 672 899 z "},"ó":{"ha":778,"x_min":56,"x_max":722,"o":"m 393 671 q 565 629 492 671 q 680 509 638 588 q 722 328 722 429 q 679 146 722 226 q 562 25 636 67 q 385 -16 488 -16 q 138 86 220 -16 q 56 327 56 189 q 98 506 56 428 q 218 628 141 585 q 393 671 295 671 m 387 605 q 256 544 310 605 q 189 323 189 468 q 246 110 189 183 q 388 45 298 45 q 491 75 446 45 q 564 173 536 106 q 591 330 591 239 q 562 488 591 418 q 492 574 538 543 q 387 605 446 605 m 278 793 l 278 817 l 404 909 q 511 957 468 957 q 546 942 532 957 q 559 906 559 928 q 541 862 559 880 q 472 834 522 845 l 278 793 z "},"ò":{"ha":778,"x_min":56,"x_max":722,"o":"m 393 671 q 565 629 492 671 q 680 509 638 588 q 722 328 722 429 q 679 146 722 226 q 562 25 636 67 q 385 -16 488 -16 q 138 86 220 -16 q 56 327 56 189 q 98 506 56 428 q 218 628 141 585 q 393 671 295 671 m 387 605 q 256 544 310 605 q 189 323 189 468 q 246 110 189 183 q 388 45 298 45 q 491 75 446 45 q 564 173 536 106 q 591 330 591 239 q 562 488 591 418 q 492 574 538 543 q 387 605 446 605 m 530 793 l 336 834 q 267 862 286 845 q 248 905 248 880 q 261 942 248 928 q 297 957 275 957 q 405 909 340 957 l 530 817 l 530 793 z "},"ô":{"ha":778,"x_min":56,"x_max":722,"o":"m 393 671 q 565 629 492 671 q 680 509 638 588 q 722 328 722 429 q 679 146 722 226 q 562 25 636 67 q 385 -16 488 -16 q 138 86 220 -16 q 56 327 56 189 q 98 506 56 428 q 218 628 141 585 q 393 671 295 671 m 387 605 q 256 544 310 605 q 189 323 189 468 q 246 110 189 183 q 388 45 298 45 q 491 75 446 45 q 564 173 536 106 q 591 330 591 239 q 562 488 591 418 q 492 574 538 543 q 387 605 446 605 m 389 952 l 586 823 l 568 788 l 389 851 l 210 788 l 192 823 l 389 952 z "},"ö":{"ha":778,"x_min":56,"x_max":722,"o":"m 393 671 q 565 629 492 671 q 680 509 638 588 q 722 328 722 429 q 679 146 722 226 q 562 25 636 67 q 385 -16 488 -16 q 138 86 220 -16 q 56 327 56 189 q 98 506 56 428 q 218 628 141 585 q 393 671 295 671 m 387 605 q 256 544 310 605 q 189 323 189 468 q 246 110 189 183 q 388 45 298 45 q 491 75 446 45 q 564 173 536 106 q 591 330 591 239 q 562 488 591 418 q 492 574 538 543 q 387 605 446 605 m 276 935 q 334 910 310 935 q 359 851 359 886 q 334 793 359 817 q 276 768 310 768 q 218 793 242 768 q 193 851 193 817 q 217 910 193 886 q 276 935 241 935 m 503 935 q 561 910 536 935 q 585 851 585 886 q 561 793 585 817 q 503 768 536 768 q 444 793 468 768 q 420 851 420 817 q 444 910 420 886 q 503 935 468 935 z "},"õ":{"ha":778,"x_min":56,"x_max":722,"o":"m 393 671 q 565 629 492 671 q 680 509 638 588 q 722 328 722 429 q 679 146 722 226 q 562 25 636 67 q 385 -16 488 -16 q 138 86 220 -16 q 56 327 56 189 q 98 506 56 428 q 218 628 141 585 q 393 671 295 671 m 387 605 q 256 544 310 605 q 189 323 189 468 q 246 110 189 183 q 388 45 298 45 q 491 75 446 45 q 564 173 536 106 q 591 330 591 239 q 562 488 591 418 q 492 574 538 543 q 387 605 446 605 m 603 899 q 552 824 591 854 q 465 794 513 794 q 437 797 450 794 q 376 814 424 800 q 271 838 302 838 q 216 810 241 838 l 176 823 q 222 892 189 866 q 296 918 256 918 q 427 892 336 918 q 496 880 472 880 q 562 911 539 880 l 603 899 z "},"ú":{"ha":945,"x_min":14,"x_max":904,"o":"m 14 654 l 271 665 l 271 228 q 287 136 271 170 q 335 84 302 102 q 412 65 368 65 q 535 94 467 65 q 673 181 604 123 l 673 497 q 665 563 673 547 q 639 588 658 578 q 579 597 620 597 l 530 597 l 530 654 l 787 665 l 787 159 q 795 91 787 110 q 819 65 803 73 q 883 57 835 57 l 904 57 l 904 0 l 679 -12 l 679 114 q 517 12 586 40 q 376 -16 448 -16 q 284 -2 323 -16 q 216 41 245 12 q 171 109 186 69 q 155 195 155 149 l 155 503 q 148 561 155 545 q 123 588 140 578 q 76 597 106 597 l 14 597 l 14 654 m 332 793 l 332 817 l 457 909 q 565 957 522 957 q 599 942 585 957 q 613 906 613 928 q 594 862 613 880 q 526 834 575 845 l 332 793 z "},"ù":{"ha":945,"x_min":14,"x_max":904,"o":"m 14 654 l 271 665 l 271 228 q 287 136 271 170 q 335 84 302 102 q 412 65 368 65 q 535 94 467 65 q 673 181 604 123 l 673 497 q 665 563 673 547 q 639 588 658 578 q 579 597 620 597 l 530 597 l 530 654 l 787 665 l 787 159 q 795 91 787 110 q 819 65 803 73 q 883 57 835 57 l 904 57 l 904 0 l 679 -12 l 679 114 q 517 12 586 40 q 376 -16 448 -16 q 284 -2 323 -16 q 216 41 245 12 q 171 109 186 69 q 155 195 155 149 l 155 503 q 148 561 155 545 q 123 588 140 578 q 76 597 106 597 l 14 597 l 14 654 m 614 793 l 420 834 q 350 862 369 845 q 331 905 331 880 q 345 942 331 928 q 380 957 359 957 q 488 909 424 957 l 614 817 l 614 793 z "},"û":{"ha":945,"x_min":14,"x_max":904,"o":"m 14 654 l 271 665 l 271 228 q 287 136 271 170 q 335 84 302 102 q 412 65 368 65 q 535 94 467 65 q 673 181 604 123 l 673 497 q 665 563 673 547 q 639 588 658 578 q 579 597 620 597 l 530 597 l 530 654 l 787 665 l 787 159 q 795 91 787 110 q 819 65 803 73 q 883 57 835 57 l 904 57 l 904 0 l 679 -12 l 679 114 q 517 12 586 40 q 376 -16 448 -16 q 284 -2 323 -16 q 216 41 245 12 q 171 109 186 69 q 155 195 155 149 l 155 503 q 148 561 155 545 q 123 588 140 578 q 76 597 106 597 l 14 597 l 14 654 m 472 952 l 669 823 l 651 788 l 472 851 l 294 788 l 275 823 l 472 952 z "},"ü":{"ha":945,"x_min":14,"x_max":904,"o":"m 14 654 l 271 665 l 271 228 q 287 136 271 170 q 335 84 302 102 q 412 65 368 65 q 535 94 467 65 q 673 181 604 123 l 673 497 q 665 563 673 547 q 639 588 658 578 q 579 597 620 597 l 530 597 l 530 654 l 787 665 l 787 159 q 795 91 787 110 q 819 65 803 73 q 883 57 835 57 l 904 57 l 904 0 l 679 -12 l 679 114 q 517 12 586 40 q 376 -16 448 -16 q 284 -2 323 -16 q 216 41 245 12 q 171 109 186 69 q 155 195 155 149 l 155 503 q 148 561 155 545 q 123 588 140 578 q 76 597 106 597 l 14 597 l 14 654 m 359 935 q 418 910 393 935 q 442 851 442 886 q 418 793 442 817 q 359 768 393 768 q 301 793 326 768 q 277 851 277 817 q 301 910 277 886 q 359 935 325 935 m 586 935 q 644 910 620 935 q 669 851 669 886 q 644 793 669 817 q 586 768 620 768 q 527 793 551 768 q 503 851 503 817 q 527 910 503 886 q 586 935 551 935 z "},"†":{"ha":750,"x_min":109,"x_max":642,"o":"m 408 -226 l 344 -226 l 344 57 q 285 425 344 290 q 329 494 321 477 q 354 564 338 511 l 247 534 q 170 521 199 521 q 125 539 141 521 q 109 590 109 557 q 127 636 109 619 q 176 653 145 653 q 205 650 191 653 q 235 642 210 650 l 354 610 q 342 690 349 656 q 316 793 335 724 q 301 854 303 841 q 298 892 298 873 q 318 943 298 924 q 375 962 338 962 q 433 943 412 962 q 453 889 453 924 q 431 770 453 854 l 413 700 l 396 610 l 507 642 q 576 653 549 653 q 623 634 604 653 q 642 589 642 616 q 625 540 642 558 q 581 522 608 522 q 502 534 549 522 l 396 564 q 416 501 406 524 q 460 425 422 486 q 408 57 408 269 l 408 -226 z "},"°":{"ha":555,"x_min":92,"x_max":463,"o":"m 277 962 q 409 908 355 962 q 463 777 463 854 q 409 646 463 700 q 277 591 355 591 q 146 646 201 591 q 92 777 92 700 q 146 908 92 854 q 277 962 201 962 m 277 895 q 193 861 228 895 q 157 777 157 826 q 193 693 157 728 q 277 658 228 658 q 363 693 328 658 q 398 777 398 728 q 363 861 398 826 q 277 895 328 895 z "},"¢":{"ha":861,"x_min":140,"x_max":745,"o":"m 430 946 l 495 946 l 495 800 q 630 762 576 789 q 709 700 683 734 q 734 634 734 665 q 716 590 734 608 q 671 572 698 572 q 629 586 646 572 q 595 644 612 600 q 555 710 579 688 q 495 739 531 732 l 495 231 q 598 266 555 241 q 701 356 640 291 l 745 319 q 621 203 682 241 q 495 159 560 166 l 495 0 l 430 0 l 430 159 q 279 210 346 167 q 177 322 213 252 q 140 481 140 393 q 175 638 140 570 q 278 749 210 706 q 430 800 346 793 l 430 946 m 430 736 q 364 709 392 728 q 313 659 336 690 q 279 584 290 627 q 268 483 268 541 q 290 360 268 413 q 357 272 313 308 q 430 235 385 249 l 430 736 z "},"£":{"ha":861,"x_min":14,"x_max":865,"o":"m 39 558 l 218 558 q 188 698 188 629 q 226 828 188 768 q 339 925 264 888 q 504 962 414 962 q 650 930 588 962 q 748 837 711 898 q 792 682 784 777 l 726 673 q 684 801 710 760 q 614 865 658 841 q 515 888 570 888 q 375 836 431 888 q 319 711 319 784 q 355 558 319 639 l 604 558 l 604 492 l 377 492 q 412 364 403 415 q 421 264 421 313 q 412 186 421 225 q 644 107 557 107 q 714 130 681 107 q 771 204 747 153 q 802 332 794 256 l 865 328 q 829 140 865 226 q 745 19 793 54 q 633 -16 696 -16 q 523 10 580 -16 q 388 108 467 37 q 307 17 355 45 q 187 -16 252 -16 q 96 5 136 -16 q 35 62 56 26 q 14 142 14 98 q 35 223 14 186 q 95 281 57 260 q 179 302 133 302 q 338 228 266 302 q 321 303 333 270 q 266 440 304 359 q 244 492 250 477 l 39 492 l 39 558 m 338 149 q 304 178 327 158 q 262 212 275 205 q 220 231 241 224 q 182 237 200 237 q 116 209 144 237 q 87 143 87 180 q 117 74 87 102 q 193 46 146 46 q 277 74 237 46 q 338 149 317 101 z "},"§":{"ha":722,"x_min":45,"x_max":677,"o":"m 197 559 q 98 638 131 592 q 65 742 65 684 q 145 898 65 833 q 365 962 226 962 q 587 899 505 962 q 652 782 652 848 q 633 727 652 747 q 584 707 614 707 q 554 715 568 707 q 532 739 541 724 q 517 788 524 754 q 501 839 510 824 q 472 868 492 854 q 424 890 453 882 q 361 898 395 898 q 229 860 277 898 q 180 767 180 822 q 201 701 180 728 q 277 652 222 675 q 412 610 298 642 q 567 546 516 580 q 642 469 618 513 q 667 374 667 426 q 638 269 667 325 q 557 163 610 214 q 640 99 610 139 q 677 -16 677 47 q 640 -134 677 -78 q 530 -223 602 -190 q 359 -256 458 -256 q 191 -227 261 -256 q 83 -147 121 -198 q 45 -50 45 -96 q 65 3 45 -20 q 109 26 85 26 q 142 16 126 26 q 164 -5 158 7 q 175 -52 171 -18 q 191 -114 180 -94 q 253 -171 208 -149 q 361 -193 297 -193 q 471 -173 424 -193 q 541 -118 519 -152 q 564 -42 564 -83 q 551 9 564 -14 q 515 50 539 32 q 451 83 490 68 q 376 102 438 87 q 256 134 291 123 q 142 189 184 159 q 78 260 100 218 q 56 347 56 302 q 86 449 56 398 q 197 559 117 500 m 251 538 q 181 457 202 496 q 160 385 160 418 q 182 316 160 351 q 251 260 205 282 q 406 212 298 237 q 504 186 478 195 q 551 254 534 216 q 568 327 568 292 q 550 399 568 367 q 495 454 532 431 q 366 504 458 477 q 251 538 274 530 z "},"•":{"ha":639,"x_min":123,"x_max":516,"o":"m 123 477 q 181 621 123 562 q 319 680 238 680 q 458 622 401 680 q 516 478 516 563 q 458 336 516 395 q 320 278 401 278 q 181 336 239 278 q 123 477 123 395 z "},"¶":{"ha":833,"x_min":96,"x_max":734,"o":"m 579 856 l 477 856 l 477 -301 l 412 -301 l 412 425 q 391 425 398 425 q 226 454 291 425 q 128 537 161 484 q 96 662 96 589 q 115 762 96 715 q 171 842 135 808 q 245 891 206 876 q 346 913 283 907 q 452 917 376 917 l 734 917 l 734 868 q 671 856 686 864 q 650 828 656 847 q 643 749 643 808 l 643 -301 l 579 -301 l 579 856 z "},"ß":{"ha":917,"x_min":48,"x_max":850,"o":"m 48 654 l 165 654 l 165 685 q 175 784 165 727 q 222 889 184 841 q 321 966 260 938 q 462 995 382 995 q 593 968 539 995 q 677 895 646 942 q 708 795 708 848 q 698 746 708 768 q 676 722 690 731 q 623 707 662 713 q 511 674 538 694 q 485 623 485 654 q 513 566 485 591 q 635 497 542 541 q 768 419 728 454 q 829 338 808 385 q 850 241 850 291 q 812 114 850 176 q 707 18 774 53 q 557 -16 640 -16 q 431 8 490 -16 q 347 65 373 32 q 320 131 320 99 q 337 170 320 153 q 376 188 355 188 q 415 175 397 188 q 453 130 434 163 q 508 67 481 83 q 576 50 536 50 q 696 99 644 50 q 748 211 748 149 q 726 291 748 254 q 660 357 705 328 q 557 410 629 378 q 494 439 507 432 q 430 489 457 461 q 394 539 404 516 q 384 594 384 562 q 407 671 384 636 q 480 731 430 707 q 609 762 531 755 q 597 780 600 772 q 591 830 593 795 q 585 859 590 847 q 565 891 577 877 q 537 914 553 905 q 500 928 521 924 q 456 933 480 933 q 317 869 367 933 q 278 713 278 820 l 278 0 l 48 0 l 48 57 l 86 57 q 134 65 121 57 q 159 94 151 75 q 165 159 165 109 l 165 586 l 48 586 l 48 654 z "},"®":{"ha":1028,"x_min":60,"x_max":1023,"o":"m 541 941 q 782 876 670 941 q 958 700 894 812 q 1023 460 1023 589 q 958 219 1023 331 q 782 43 894 108 q 541 -21 670 -21 q 301 43 412 -21 q 125 219 189 108 q 60 460 60 331 q 125 700 60 589 q 301 876 189 812 q 541 941 412 941 m 541 899 q 322 840 424 899 q 161 680 220 781 q 102 460 102 578 q 161 240 102 342 q 322 79 220 138 q 541 20 424 20 q 761 79 659 20 q 922 240 863 138 q 981 460 981 342 q 922 680 981 578 q 761 840 863 781 q 541 899 659 899 m 275 755 l 537 755 q 686 712 633 755 q 739 604 739 669 q 701 510 739 547 q 588 453 663 472 l 730 251 q 774 203 754 216 q 812 191 787 193 l 812 169 l 687 169 l 488 444 l 436 444 l 436 234 q 456 201 441 211 q 516 191 472 191 l 516 169 l 267 169 l 267 191 q 315 200 300 191 q 336 228 330 209 q 338 285 338 236 l 338 640 q 336 695 338 688 q 319 722 332 713 q 275 731 307 731 l 275 755 m 436 473 q 550 487 513 473 q 609 530 588 501 q 629 596 629 559 q 591 688 629 651 q 493 726 553 726 q 436 715 467 726 l 436 473 z "},"©":{"ha":1028,"x_min":60,"x_max":1023,"o":"m 541 941 q 782 876 670 941 q 958 700 894 812 q 1023 460 1023 589 q 958 219 1023 331 q 782 43 894 108 q 541 -21 670 -21 q 301 43 412 -21 q 125 219 189 108 q 60 460 60 331 q 125 700 60 589 q 301 876 189 812 q 541 941 412 941 m 541 899 q 322 840 424 899 q 161 680 220 781 q 102 460 102 578 q 161 240 102 342 q 322 79 220 138 q 541 20 424 20 q 761 79 659 20 q 922 240 863 138 q 981 460 981 342 q 922 680 981 578 q 761 840 863 781 q 541 899 659 899 m 779 769 l 793 579 l 766 579 q 722 669 749 636 q 652 720 694 701 q 561 739 610 739 q 447 708 497 739 q 374 625 397 676 q 343 475 343 559 q 370 320 343 380 q 448 228 396 260 q 568 195 500 195 q 650 208 610 195 q 720 243 690 221 q 779 305 750 265 l 804 292 q 709 199 762 231 q 545 155 637 155 q 384 194 455 155 q 272 304 313 234 q 231 456 231 374 q 274 613 231 541 q 394 728 317 686 q 568 770 471 770 q 620 766 600 770 q 694 744 641 762 q 719 739 711 739 q 738 745 730 739 q 752 769 745 751 l 779 769 z "},"™":{"ha":1361,"x_min":-7,"x_max":1311,"o":"m 7 920 l 501 920 l 516 783 l 493 783 q 457 856 486 833 q 361 879 428 879 l 311 879 l 311 486 q 316 428 311 442 q 335 406 322 413 q 382 397 348 398 l 382 372 l 129 372 l 129 397 q 176 407 165 400 q 192 428 186 414 q 197 486 197 441 l 197 879 l 145 879 q 54 858 81 879 q 16 783 26 837 l -7 783 l 7 920 m 757 920 l 942 532 l 1122 920 l 1311 920 l 1311 895 q 1260 887 1272 894 q 1242 865 1248 880 q 1236 803 1236 850 l 1236 486 q 1241 426 1236 439 q 1259 406 1246 413 q 1311 397 1273 399 l 1311 372 l 1041 372 l 1041 397 q 1095 405 1081 397 q 1115 427 1109 412 q 1122 485 1122 441 l 1122 819 l 913 372 l 892 372 l 683 812 l 683 486 q 688 429 683 441 q 707 404 694 412 q 746 397 720 397 l 770 397 l 770 372 l 563 372 l 563 397 q 614 404 602 397 q 633 425 627 411 q 640 486 640 439 l 640 802 q 634 866 640 852 q 614 887 629 880 q 563 895 600 895 l 563 920 l 757 920 z "},"´":{"ha":472,"x_min":95,"x_max":376,"o":"m 95 793 l 95 817 l 220 909 q 328 957 285 957 q 362 942 349 957 q 376 906 376 928 q 357 862 376 880 q 289 834 338 845 l 95 793 z "},"¨":{"ha":583,"x_min":96,"x_max":488,"o":"m 178 935 q 237 910 212 935 q 261 851 261 886 q 237 793 261 817 q 178 768 212 768 q 120 793 144 768 q 96 851 96 817 q 120 910 96 886 q 178 935 144 935 m 405 935 q 463 910 439 935 q 488 851 488 886 q 463 793 488 817 q 405 768 439 768 q 346 793 370 768 q 322 851 322 817 q 346 910 322 886 q 405 935 370 935 z "},"≠":{"ha":762,"x_min":51,"x_max":712,"o":"m 524 621 l 712 621 l 712 538 l 469 538 l 382 408 l 712 408 l 712 325 l 326 325 l 159 75 l 71 75 l 238 325 l 51 325 l 51 408 l 294 408 l 380 538 l 51 538 l 51 621 l 436 621 l 604 871 l 692 871 l 524 621 z "},"Æ":{"ha":1750,"x_min":1,"x_max":1720,"o":"m 500 946 l 1586 946 l 1674 700 l 1615 679 q 1513 829 1569 788 q 1316 875 1449 875 l 1026 875 l 1026 526 l 1164 526 q 1260 540 1230 526 q 1309 585 1291 555 q 1326 659 1326 614 l 1326 700 l 1392 700 l 1392 283 l 1326 283 l 1326 322 q 1310 404 1326 376 q 1264 446 1294 432 q 1164 459 1235 459 l 1026 459 l 1026 127 l 1027 111 q 1029 90 1027 94 q 1044 77 1035 81 q 1076 74 1051 74 l 1295 74 q 1456 98 1392 74 q 1566 170 1519 122 q 1658 318 1613 218 l 1720 298 l 1615 0 l 781 0 l 781 57 l 818 57 q 886 79 866 57 q 902 145 902 98 l 902 459 l 451 459 l 261 153 l 256 146 q 232 90 232 115 q 245 66 232 75 q 297 57 258 57 l 326 57 l 326 0 l 1 0 l 1 57 q 57 64 39 58 q 90 83 75 71 q 135 139 113 105 l 570 806 q 593 859 593 841 q 581 881 593 873 q 532 888 568 888 l 500 888 l 500 946 m 710 875 l 492 526 l 902 526 l 902 875 l 710 875 z "},"Ø":{"ha":1111,"x_min":73,"x_max":1038,"o":"m 859 861 l 949 962 l 1038 962 l 907 817 q 1006 665 975 746 q 1038 477 1038 583 q 902 121 1038 259 q 556 -16 766 -16 q 251 84 376 -16 l 161 -16 l 73 -16 l 203 129 q 73 472 73 270 q 136 723 73 612 q 314 898 199 833 q 568 962 430 962 q 859 861 732 962 m 797 791 q 701 865 757 841 q 568 889 645 889 q 387 841 463 889 q 266 698 311 792 q 220 467 220 604 q 279 214 220 313 l 797 791 m 833 733 l 319 159 q 557 52 412 52 q 724 99 651 52 q 844 250 797 147 q 891 479 891 353 q 833 733 891 620 z "},"∞":{"ha":990,"x_min":36,"x_max":954,"o":"m 443 452 q 509 568 477 532 q 586 622 541 604 q 694 640 631 640 q 827 604 768 640 q 920 505 886 568 q 954 357 954 441 q 863 136 954 219 q 717 73 795 73 q 593 121 650 73 q 488 267 554 154 q 425 173 456 205 q 354 125 393 141 q 269 109 315 109 q 103 179 170 109 q 36 359 36 249 q 98 538 36 469 q 244 608 159 608 q 355 571 308 608 q 443 452 395 541 m 508 315 q 607 174 557 212 q 720 136 656 136 q 863 201 811 136 q 915 357 915 266 q 857 522 915 456 q 724 587 798 587 q 647 567 680 587 q 585 500 614 547 q 508 315 566 467 m 423 400 q 343 513 387 481 q 242 545 299 545 q 122 494 170 545 q 73 359 73 444 q 120 216 73 271 q 229 161 168 161 q 336 212 288 161 q 416 377 374 251 l 423 400 z "},"±":{"ha":762,"x_min":51,"x_max":712,"o":"m 712 593 l 712 510 l 423 510 l 423 221 l 340 221 l 340 510 l 51 510 l 51 593 l 340 593 l 340 882 l 423 882 l 423 593 l 712 593 m 712 170 l 712 87 l 51 87 l 51 170 l 712 170 z "},"≤":{"ha":762,"x_min":63,"x_max":674,"o":"m 674 192 l 63 464 l 63 532 l 674 804 l 674 706 l 187 498 l 674 290 l 674 192 m 674 136 l 674 53 l 63 53 l 63 136 l 674 136 z "},"≥":{"ha":762,"x_min":88,"x_max":699,"o":"m 88 804 l 699 532 l 699 464 l 88 192 l 88 290 l 575 498 l 88 706 l 88 804 m 699 136 l 699 53 l 88 53 l 88 136 l 699 136 z "},"¥":{"ha":861,"x_min":-10,"x_max":871,"o":"m 536 465 l 790 465 l 790 399 l 497 399 l 494 393 l 494 307 l 790 307 l 790 241 l 494 241 l 494 155 q 502 87 494 102 q 529 64 511 71 q 614 57 547 57 l 614 0 l 245 0 l 245 57 l 273 57 q 334 65 319 57 q 358 92 349 73 q 364 155 364 104 l 364 241 l 72 241 l 72 307 l 364 307 l 364 368 l 347 399 l 72 399 l 72 465 l 309 465 l 114 812 q 64 877 84 866 q -10 888 44 887 l -10 946 l 344 946 l 344 888 l 304 888 q 257 882 267 888 q 246 859 246 875 q 259 823 246 846 q 268 807 262 817 l 452 465 l 656 820 q 671 848 669 842 q 673 861 673 854 q 668 877 673 871 q 652 887 663 884 q 614 888 646 888 l 579 888 l 579 946 l 871 946 l 871 888 q 814 884 833 889 q 784 867 795 878 q 750 820 772 856 l 536 465 z "},"µ":{"ha":800,"x_min":79,"x_max":749,"o":"m 138 654 l 254 654 l 254 232 q 266 132 254 165 q 304 80 279 98 q 362 62 330 62 q 441 90 397 62 q 538 170 486 117 l 538 654 l 651 654 l 651 158 q 658 96 651 109 q 692 77 668 77 q 749 94 712 77 l 749 57 q 660 1 688 13 q 616 -12 633 -12 q 577 1 595 -12 q 550 37 559 14 q 538 109 541 60 q 415 3 459 26 q 326 -21 372 -21 q 257 -7 290 -21 q 205 28 225 6 q 164 100 184 51 q 162 60 162 74 q 189 -103 162 5 q 203 -182 203 -163 q 186 -229 203 -210 q 142 -248 168 -248 q 97 -228 114 -248 q 79 -172 79 -208 q 94 -68 79 -146 q 128 173 118 60 q 138 444 138 286 l 138 654 z "},"∂":{"ha":686,"x_min":44,"x_max":675,"o":"m 631 486 q 639 612 639 563 q 575 801 639 733 q 404 868 511 868 q 322 856 359 868 q 257 823 285 844 q 200 760 229 802 l 169 760 q 245 882 209 842 q 329 943 281 922 q 427 964 378 964 q 564 919 505 964 q 650 799 624 874 q 675 624 675 724 q 637 356 675 486 q 538 138 600 227 q 411 15 476 50 q 274 -21 347 -21 q 120 28 182 -21 q 44 206 44 88 q 97 409 44 311 q 238 561 151 507 q 418 616 326 616 q 506 600 465 616 q 582 553 547 585 q 631 486 608 530 m 619 426 q 573 510 601 478 q 505 560 545 542 q 425 578 465 578 q 288 523 351 578 q 196 373 234 476 q 159 178 159 269 q 176 92 159 130 q 223 36 194 54 q 291 18 253 18 q 422 72 350 18 q 553 237 494 125 q 619 426 594 315 z "},"∑":{"ha":990,"x_min":29,"x_max":963,"o":"m 920 -300 l 29 -300 l 29 -275 l 483 336 l 29 938 l 29 963 l 896 963 l 914 734 l 887 734 q 868 816 882 783 q 835 868 854 849 q 788 898 816 887 q 718 908 760 908 l 216 908 l 597 395 l 171 -180 l 726 -180 q 819 -165 770 -180 q 893 -117 867 -150 q 936 -13 919 -83 l 963 -18 l 920 -300 z "},"∏":{"ha":1143,"x_min":31,"x_max":1112,"o":"m 841 910 l 302 910 l 302 -169 q 315 -233 302 -207 q 342 -260 324 -252 q 412 -274 374 -274 l 436 -274 l 436 -300 l 31 -300 l 31 -274 l 55 -274 q 123 -261 94 -274 q 151 -235 143 -252 q 165 -169 165 -206 l 165 833 q 152 897 165 871 q 125 923 142 916 q 55 938 93 938 l 31 938 l 31 963 l 1112 963 l 1112 938 l 1088 938 q 1021 924 1049 938 q 992 899 1000 915 q 979 833 979 869 l 979 -169 q 991 -233 979 -207 q 1018 -260 1001 -252 q 1088 -274 1050 -274 l 1112 -274 l 1112 -300 l 707 -300 l 707 -274 l 731 -274 q 799 -261 770 -274 q 827 -235 819 -252 q 841 -169 841 -206 l 841 910 z "},"":{"ha":762,"x_min":42,"x_max":694,"o":"m 694 621 l 694 522 l 537 522 q 518 361 526 454 q 511 212 511 268 q 534 123 511 152 q 595 94 557 94 q 646 113 626 94 q 670 170 666 132 l 694 170 q 666 63 687 106 q 615 1 645 20 q 555 -19 586 -19 q 471 26 507 -19 q 436 216 436 72 q 443 345 436 274 q 462 522 454 470 l 302 522 q 297 445 301 508 q 272 198 289 309 q 239 46 256 87 q 201 -9 222 5 q 171 -19 188 -19 q 127 -2 145 -19 q 110 37 110 14 q 117 73 110 56 q 154 129 121 83 q 180 173 171 152 q 197 225 190 193 q 214 332 208 270 l 227 522 l 208 522 q 151 514 172 522 q 110 487 130 506 q 66 427 90 467 l 42 427 q 93 546 62 502 q 156 606 124 591 q 262 621 188 621 l 694 621 z "},"∫":{"ha":380,"x_min":0,"x_max":380,"o":"m 136 607 q 143 898 136 732 q 157 1078 149 1024 q 192 1197 169 1149 q 236 1244 205 1225 q 295 1263 267 1263 q 354 1241 328 1263 q 380 1191 380 1219 q 362 1140 380 1160 q 317 1120 344 1120 q 266 1145 294 1120 q 239 1158 250 1158 q 219 1148 227 1158 q 212 1115 212 1139 q 218 1017 212 1087 q 243 567 243 738 q 238 355 243 519 l 231 130 q 210 -10 225 50 q 175 -97 195 -69 q 132 -137 155 -125 q 80 -149 108 -149 q 22 -126 45 -149 q 0 -67 0 -103 q 17 -19 0 -37 q 61 0 35 0 q 109 -22 88 0 q 127 -40 122 -37 q 141 -43 133 -43 q 160 -34 153 -43 q 168 -2 168 -24 q 161 79 168 26 q 143 316 151 166 q 136 607 136 466 z "},"ª":{"ha":583,"x_min":57,"x_max":563,"o":"m 372 795 l 372 835 q 349 896 372 876 q 275 915 326 915 q 230 908 248 915 q 203 890 212 901 q 186 854 194 880 q 166 811 177 821 q 134 801 155 801 q 99 813 112 801 q 86 845 86 825 q 139 926 86 889 q 286 962 193 962 q 390 944 349 962 q 450 897 431 926 q 464 819 464 875 l 464 663 q 468 614 464 627 q 481 595 472 602 q 507 589 490 589 q 563 601 525 589 l 563 555 q 488 544 520 544 q 437 551 455 544 q 395 577 412 561 q 378 606 384 587 q 290 559 334 575 q 202 544 246 544 q 97 576 136 544 q 57 651 57 608 q 113 738 57 703 q 372 795 170 774 m 372 750 q 243 730 267 735 q 173 699 193 718 q 154 659 154 680 q 173 616 154 633 q 222 600 193 600 q 283 612 249 600 q 372 658 318 624 l 372 750 z "},"º":{"ha":583,"x_min":66,"x_max":516,"o":"m 294 962 q 458 902 399 962 q 516 751 516 842 q 457 602 516 663 q 287 541 399 541 q 122 604 177 541 q 66 751 66 667 q 129 903 66 844 q 294 962 191 962 m 290 913 q 204 870 239 913 q 170 749 170 827 q 202 627 170 668 q 290 587 235 587 q 384 634 352 587 q 415 752 415 681 q 399 841 415 804 q 354 896 382 878 q 290 913 326 913 z "},"Ω":{"ha":1067,"x_min":58,"x_max":1008,"o":"m 58 212 l 83 212 q 97 162 85 182 q 128 134 110 142 q 193 126 146 126 l 376 126 l 376 172 q 187 277 273 193 q 82 541 82 381 q 135 739 82 654 q 297 886 193 832 q 536 941 400 941 q 773 887 671 941 q 933 741 876 833 q 985 543 985 658 q 908 308 985 406 q 690 172 831 210 l 690 126 l 876 126 q 939 135 920 126 q 969 161 958 143 q 983 212 981 180 l 1008 212 l 1008 0 l 629 0 l 644 205 q 771 309 724 231 q 819 528 819 387 q 781 725 819 646 q 676 846 743 803 q 532 890 610 890 q 391 848 456 890 q 288 725 327 806 q 248 538 248 644 q 273 364 248 446 q 327 266 291 304 q 422 205 363 227 l 437 0 l 58 0 l 58 212 z "},"æ":{"ha":1194,"x_min":58,"x_max":1147,"o":"m 1102 176 l 1147 140 q 1013 21 1084 59 q 854 -16 942 -16 q 703 21 769 -16 q 591 133 637 58 q 417 18 527 71 q 269 -16 344 -16 q 116 35 174 -16 q 58 156 58 85 q 79 237 58 200 q 146 303 100 274 q 290 356 193 333 q 541 393 388 378 l 541 449 q 526 540 541 511 q 473 588 510 570 q 380 606 435 606 q 304 593 336 606 q 256 559 273 581 q 230 494 239 538 q 214 445 222 458 q 193 423 205 431 q 164 416 180 416 q 120 433 136 416 q 104 484 104 450 q 183 613 104 555 q 395 671 262 671 q 500 658 456 671 q 579 622 545 646 q 627 570 605 604 q 855 671 727 671 q 1060 594 983 671 q 1140 387 1137 518 l 661 387 q 658 335 658 352 q 690 187 658 253 q 772 87 722 121 q 882 54 823 54 q 993 84 936 54 q 1102 176 1050 113 m 1016 449 q 966 564 1010 520 q 857 607 922 607 q 742 565 793 607 q 671 449 690 524 l 1016 449 m 541 332 q 356 303 435 321 q 243 265 276 285 q 196 222 210 245 q 182 173 182 199 q 197 120 182 146 q 240 80 212 95 q 300 65 269 65 q 406 91 341 65 q 541 170 471 117 l 541 332 z "},"ø":{"ha":778,"x_min":56,"x_max":722,"o":"m 597 609 l 650 671 l 722 671 l 637 572 q 700 464 677 528 q 722 328 722 399 q 679 146 722 226 q 562 25 636 66 q 383 -16 488 -16 q 180 45 260 -16 l 128 -16 l 56 -16 l 141 83 q 56 326 56 186 q 98 506 56 428 q 218 628 141 585 q 393 671 295 671 q 597 609 515 671 m 534 536 q 470 586 509 568 q 389 605 431 605 q 254 542 308 605 q 189 321 189 465 q 214 168 189 235 l 534 536 m 562 486 l 242 115 q 388 45 295 45 q 491 75 446 45 q 564 173 536 106 q 591 330 591 239 q 562 486 591 418 z "},"¿":{"ha":750,"x_min":50,"x_max":686,"o":"m 475 492 q 415 516 440 492 q 390 576 390 541 q 415 636 390 611 q 475 661 440 661 q 535 636 511 661 q 560 576 560 612 q 535 516 560 541 q 475 492 511 492 m 510 422 l 510 182 q 308 159 374 182 q 207 86 242 136 q 172 -24 172 37 q 203 -134 172 -79 q 285 -218 235 -188 q 393 -248 336 -248 q 473 -230 439 -248 q 535 -171 507 -212 q 576 -120 564 -130 q 623 -102 600 -102 q 655 -110 640 -102 q 677 -130 671 -119 q 686 -162 686 -146 q 624 -256 686 -216 q 415 -313 537 -313 q 221 -272 306 -313 q 94 -163 137 -231 q 50 -10 50 -95 q 156 198 50 124 q 439 272 262 272 l 439 422 l 510 422 z "},"¡":{"ha":416,"x_min":123,"x_max":294,"o":"m 208 492 q 148 516 173 492 q 123 576 123 541 q 149 636 123 611 q 208 661 174 661 q 269 636 243 661 q 294 576 294 612 q 269 516 294 541 q 208 492 243 492 m 238 422 l 290 -184 q 292 -216 292 -210 q 271 -289 292 -266 q 207 -313 249 -313 q 148 -290 170 -313 q 125 -231 125 -268 q 128 -189 125 -218 l 182 422 l 238 422 z "},"¬":{"ha":833,"x_min":86,"x_max":747,"o":"m 86 487 l 747 487 l 747 -13 l 668 -13 l 668 408 l 86 408 l 86 487 z "},"√":{"ha":762,"x_min":57,"x_max":762,"o":"m 712 1267 l 762 1267 l 551 -53 l 214 640 l 80 578 l 57 621 l 261 724 l 536 165 l 712 1267 z "},"ƒ":{"ha":861,"x_min":-73,"x_max":868,"o":"m 269 654 l 395 654 l 426 766 q 454 841 433 795 q 503 914 474 886 q 594 974 543 953 q 705 995 646 995 q 824 965 781 995 q 868 899 868 935 q 852 857 868 874 q 810 840 836 840 q 780 846 793 840 q 748 870 766 852 q 691 915 714 903 q 659 923 677 923 q 598 893 628 923 q 549 794 568 863 l 510 654 l 659 654 l 643 589 l 492 589 l 345 48 q 273 -129 314 -67 q 176 -220 232 -190 q 53 -250 119 -250 q -39 -225 -5 -250 q -73 -170 -73 -201 q -55 -129 -73 -146 q -14 -113 -38 -113 q 15 -118 2 -113 q 47 -142 27 -124 q 81 -169 68 -162 q 104 -175 93 -175 q 162 -142 135 -175 q 216 -9 189 -109 l 378 589 l 250 589 l 269 654 z "},"≈":{"ha":762,"x_min":73,"x_max":689,"o":"m 630 693 l 689 627 q 641 544 668 574 q 582 498 614 514 q 513 483 549 483 q 458 493 486 483 q 375 533 444 498 l 285 576 q 250 583 268 583 q 198 560 218 583 q 138 461 178 537 l 73 528 q 128 611 100 582 q 186 654 155 640 q 250 669 218 669 q 300 661 273 669 q 399 614 328 652 q 481 575 465 582 q 509 569 498 569 q 568 597 541 569 q 630 693 587 616 m 630 448 l 689 382 q 641 299 668 329 q 582 253 614 269 q 513 237 549 237 q 458 248 486 237 q 375 288 444 252 l 285 331 q 250 338 268 338 q 198 315 218 338 q 138 216 178 292 l 73 282 q 128 365 100 336 q 186 409 155 394 q 250 424 218 424 q 300 415 273 424 q 399 370 328 406 q 481 330 465 336 q 509 323 498 323 q 568 351 541 323 q 630 448 587 370 z "},"∆":{"ha":850,"x_min":18,"x_max":831,"o":"m 831 0 l 18 0 l 444 941 l 831 0 m 671 56 l 401 711 l 102 56 l 671 56 z "},"«":{"ha":500,"x_min":61,"x_max":405,"o":"m 186 577 l 238 553 l 165 336 l 238 125 l 186 100 l 61 336 l 186 577 m 353 577 l 405 553 l 332 336 l 405 125 l 353 100 l 228 336 l 353 577 z "},"»":{"ha":500,"x_min":96,"x_max":439,"o":"m 314 100 l 262 124 l 335 340 l 262 551 l 314 577 l 439 340 l 314 100 m 147 100 l 96 124 l 168 340 l 96 551 l 147 577 l 273 340 l 147 100 z "},"…":{"ha":1389,"x_min":146,"x_max":1242,"o":"m 1158 160 q 1218 135 1193 160 q 1242 75 1242 110 q 1217 14 1242 39 q 1158 -12 1192 -12 q 1097 14 1122 -12 q 1072 74 1072 39 q 1098 135 1072 109 q 1158 160 1124 160 m 694 160 q 755 135 730 160 q 780 75 780 110 q 755 14 780 39 q 694 -12 730 -12 q 634 14 659 -12 q 610 74 610 39 q 635 135 610 109 q 694 160 661 160 m 231 158 q 292 133 267 158 q 317 73 317 109 q 292 13 317 38 q 231 -12 267 -12 q 172 13 197 -12 q 146 73 146 38 q 171 133 146 109 q 231 158 196 158 z "}," ":{"ha":472,"x_min":0,"x_max":0,"o":""},"À":{"ha":945,"x_min":2,"x_max":941,"o":"m 418 946 l 530 946 l 823 155 q 867 76 845 96 q 926 57 889 57 l 941 57 l 941 0 l 604 0 l 604 57 q 636 58 621 58 q 679 65 669 58 q 699 98 699 78 q 680 168 699 112 l 617 351 l 274 351 l 201 146 q 189 102 189 114 q 196 78 189 88 q 216 63 203 68 q 255 58 228 58 q 285 57 273 58 l 285 0 l 2 0 l 2 57 q 59 65 41 57 q 89 90 76 73 q 123 163 102 107 l 418 946 m 299 417 l 591 417 l 445 824 l 299 417 m 572 1018 l 378 1059 q 309 1087 328 1069 q 290 1129 290 1104 q 303 1167 290 1152 q 339 1181 317 1181 q 447 1134 382 1181 l 572 1042 l 572 1018 z "},"Ã":{"ha":945,"x_min":2,"x_max":941,"o":"m 418 946 l 530 946 l 823 155 q 867 76 845 96 q 926 57 889 57 l 941 57 l 941 0 l 604 0 l 604 57 q 636 58 621 58 q 679 65 669 58 q 699 98 699 78 q 680 168 699 112 l 617 351 l 274 351 l 201 146 q 189 102 189 114 q 196 78 189 88 q 216 63 203 68 q 255 58 228 58 q 285 57 273 58 l 285 0 l 2 0 l 2 57 q 59 65 41 57 q 89 90 76 73 q 123 163 102 107 l 418 946 m 299 417 l 591 417 l 445 824 l 299 417 m 686 1124 q 635 1049 674 1079 q 548 1019 596 1019 q 519 1022 532 1019 q 458 1040 507 1025 q 353 1063 385 1063 q 298 1035 323 1063 l 258 1048 q 305 1117 271 1091 q 378 1143 338 1143 q 510 1118 419 1143 q 578 1105 555 1105 q 645 1136 622 1105 l 686 1124 z "},"Õ":{"ha":1111,"x_min":73,"x_max":1038,"o":"m 569 962 q 803 900 699 962 q 977 726 916 833 q 1038 477 1038 618 q 902 121 1038 259 q 556 -16 766 -16 q 184 149 321 -16 q 73 472 73 284 q 136 723 73 612 q 315 898 199 833 q 569 962 431 962 m 569 889 q 387 841 463 889 q 266 698 311 792 q 220 465 220 604 q 265 241 220 333 q 386 100 310 149 q 557 52 462 52 q 724 99 651 52 q 844 250 796 147 q 891 478 891 353 q 844 711 891 606 q 736 846 803 802 q 569 889 669 889 m 769 1124 q 719 1049 758 1079 q 631 1019 680 1019 q 603 1022 616 1019 q 542 1040 590 1025 q 437 1063 468 1063 q 382 1035 407 1063 l 342 1048 q 388 1117 355 1091 q 462 1143 422 1143 q 593 1118 503 1143 q 662 1105 638 1105 q 728 1136 705 1105 l 769 1124 z "},"Œ":{"ha":1722,"x_min":78,"x_max":1681,"o":"m 1546 946 l 1634 697 l 1575 675 q 1526 771 1552 736 q 1463 830 1500 806 q 1388 863 1426 854 q 1253 871 1350 871 l 1023 871 l 1023 524 l 1137 524 q 1232 546 1200 524 q 1277 599 1264 567 q 1286 682 1286 623 l 1286 697 l 1352 697 l 1352 282 l 1286 282 l 1286 318 q 1279 387 1286 366 q 1253 426 1272 408 q 1212 452 1234 445 q 1137 458 1190 458 l 1023 458 l 1023 149 q 1027 92 1023 102 q 1042 77 1031 81 q 1097 72 1053 72 l 1239 72 q 1424 100 1358 72 q 1543 188 1491 129 q 1619 318 1583 234 l 1681 296 l 1575 0 l 897 0 l 897 149 q 830 77 863 102 q 706 7 773 31 q 553 -16 640 -16 q 313 42 413 -16 q 140 217 203 106 q 78 468 78 328 q 140 725 78 612 q 312 900 203 837 q 559 962 421 962 q 773 912 680 962 q 897 807 839 877 l 897 946 l 1546 946 m 562 893 q 327 785 418 893 q 225 471 225 665 q 269 245 225 340 q 388 103 313 151 q 557 55 464 55 q 801 173 705 55 q 897 475 897 290 q 793 789 897 666 q 562 893 706 893 z "},"œ":{"ha":1250,"x_min":57,"x_max":1202,"o":"m 1160 177 l 1202 143 q 907 -16 1088 -16 q 804 -1 848 -16 q 723 47 760 15 q 656 130 686 79 q 585 47 623 77 q 495 0 547 17 q 382 -16 444 -16 q 147 77 237 -16 q 57 326 57 170 q 149 577 57 483 q 392 671 241 671 q 516 651 463 671 q 609 596 570 632 q 656 537 632 576 q 912 671 750 671 q 1069 632 1002 671 q 1171 517 1135 593 q 1197 388 1196 462 l 718 388 q 714 331 714 350 q 746 188 714 253 q 828 89 777 122 q 933 56 878 56 q 1160 177 1048 56 m 1072 451 q 1019 565 1065 522 q 911 608 974 608 q 787 557 840 608 q 727 451 749 520 l 1072 451 m 391 606 q 290 575 336 606 q 216 479 243 543 q 189 323 189 415 q 215 169 189 231 q 285 77 241 106 q 388 47 329 47 q 534 121 475 47 q 592 328 592 194 q 524 549 592 475 q 391 606 470 606 z "},"–":{"ha":694,"x_min":-8,"x_max":703,"o":"m 703 401 l 703 322 l -8 322 l -8 401 l 703 401 z "},"—":{"ha":1389,"x_min":-8,"x_max":1397,"o":"m 1397 401 l 1397 322 l -8 322 l -8 401 l 1397 401 z "},"“":{"ha":555,"x_min":50,"x_max":508,"o":"m 471 995 l 508 950 q 369 761 369 837 q 370 739 369 752 q 393 747 382 745 q 414 749 404 749 q 465 728 446 749 q 485 675 485 707 q 461 619 485 643 q 404 595 437 595 q 326 632 359 595 q 292 728 292 669 q 308 807 292 766 q 353 885 323 849 q 471 995 383 920 m 229 995 l 266 950 q 127 761 127 837 q 128 739 127 752 q 151 747 140 745 q 172 749 162 749 q 223 728 203 749 q 243 675 243 707 q 219 619 243 643 q 162 595 195 595 q 83 632 117 595 q 50 728 50 669 q 66 807 50 766 q 111 885 81 849 q 229 995 141 920 z "},"”":{"ha":555,"x_min":47,"x_max":505,"o":"m 84 595 l 47 640 q 186 829 186 753 q 185 851 186 838 q 163 844 174 846 q 142 841 152 841 q 90 862 110 841 q 71 916 71 883 q 94 971 71 947 q 151 995 118 995 q 230 958 197 995 q 263 863 263 921 q 248 783 263 825 q 202 706 232 741 q 84 595 172 670 m 326 595 l 290 640 q 429 829 429 753 q 427 851 429 838 q 405 844 416 846 q 384 841 394 841 q 332 862 352 841 q 313 916 313 883 q 336 971 313 947 q 393 995 360 995 q 472 958 439 995 q 505 863 505 921 q 490 783 505 825 q 444 706 474 741 q 326 595 414 670 z "},"‘":{"ha":306,"x_min":115,"x_max":331,"o":"m 294 995 l 331 950 q 192 761 192 837 q 193 739 192 752 q 216 747 205 745 q 237 749 227 749 q 289 728 269 749 q 309 675 309 707 q 284 619 309 643 q 227 595 260 595 q 149 632 182 595 q 115 728 115 669 q 131 807 115 766 q 176 885 146 849 q 294 995 206 920 z "},"’":{"ha":306,"x_min":113,"x_max":329,"o":"m 150 595 l 113 640 q 252 829 252 753 q 251 851 252 838 q 229 844 239 846 q 208 841 218 841 q 156 862 176 841 q 136 916 136 883 q 160 971 136 947 q 217 995 184 995 q 296 958 263 995 q 329 863 329 921 q 313 783 329 825 q 268 706 298 741 q 150 595 238 670 z "},"÷":{"ha":762,"x_min":51,"x_max":712,"o":"m 382 765 q 430 746 410 765 q 450 699 450 726 q 429 650 450 670 q 381 629 409 629 q 333 650 353 629 q 313 699 313 670 q 333 746 313 726 q 382 765 353 765 m 712 515 l 712 431 l 51 431 l 51 515 l 712 515 m 381 317 q 429 297 409 317 q 448 250 448 278 q 428 201 448 221 q 380 180 408 180 q 332 201 352 180 q 312 250 312 221 q 332 297 312 278 q 381 317 352 317 z "},"◊":{"ha":686,"x_min":32,"x_max":656,"o":"m 372 964 l 656 481 l 372 0 l 297 0 l 32 481 l 297 964 l 372 964 m 336 899 l 105 481 l 336 64 l 579 481 l 336 899 z "},"ÿ":{"ha":750,"x_min":-24,"x_max":757,"o":"m -7 654 l 322 654 l 322 597 l 295 597 q 249 595 256 597 q 234 584 240 593 q 228 563 228 576 q 246 501 228 545 l 404 132 l 549 485 q 575 568 575 547 q 564 590 575 583 q 511 597 552 597 l 479 597 l 479 654 l 757 654 l 757 597 l 741 597 q 688 592 700 597 q 664 570 675 587 q 627 494 652 553 l 378 -85 q 318 -201 351 -148 q 235 -283 285 -254 q 124 -313 184 -313 q 12 -281 54 -313 q -24 -213 -24 -254 q -8 -171 -24 -188 q 28 -155 7 -155 q 59 -161 45 -155 q 96 -190 68 -165 q 143 -227 130 -220 q 171 -233 157 -233 q 226 -214 199 -233 q 272 -161 253 -195 q 317 -68 299 -111 l 345 0 l 121 501 q 81 572 97 554 q 48 595 64 591 q -7 597 39 597 l -7 654 m 262 935 q 320 910 296 935 q 345 851 345 886 q 320 793 345 817 q 262 768 296 768 q 203 793 228 768 q 179 851 179 817 q 203 910 179 886 q 262 935 227 935 m 488 935 q 547 910 522 935 q 571 851 571 886 q 547 793 571 817 q 488 768 522 768 q 430 793 454 768 q 406 851 406 817 q 430 910 406 886 q 488 935 454 935 z "},"Ÿ":{"ha":889,"x_min":3,"x_max":885,"o":"m 3 946 l 357 946 l 357 888 l 317 888 q 270 882 281 888 q 260 859 260 875 q 273 823 260 846 q 281 807 276 817 l 466 465 l 670 820 q 685 848 682 842 q 687 861 687 854 q 682 877 687 871 q 666 887 677 884 q 628 888 659 888 l 593 888 l 593 946 l 885 946 l 885 888 q 828 884 846 889 q 797 867 809 878 q 764 820 785 856 l 507 393 l 507 155 q 516 87 507 102 q 543 64 524 71 q 628 57 561 57 l 628 0 l 258 0 l 258 57 l 287 57 q 348 65 332 57 q 372 92 363 73 q 378 155 378 104 l 378 368 l 127 812 q 78 877 98 866 q 3 888 58 887 l 3 946 m 331 1159 q 389 1135 365 1159 q 414 1076 414 1110 q 389 1017 414 1042 q 331 993 365 993 q 273 1017 297 993 q 248 1076 248 1042 q 272 1135 248 1110 q 331 1159 296 1159 m 557 1159 q 616 1135 591 1159 q 640 1076 640 1110 q 616 1017 640 1042 q 557 993 591 993 q 499 1017 523 993 q 475 1076 475 1042 q 499 1135 475 1110 q 557 1159 523 1159 z "},"⁄":{"ha":195,"x_min":-258,"x_max":453,"o":"m 453 962 l -178 -16 l -258 -16 l 371 962 l 453 962 z "},"∕":{"ha":195,"x_min":-258,"x_max":453,"o":"m 453 962 l -178 -16 l -258 -16 l 371 962 l 453 962 z "},"€":{"ha":861,"x_min":3,"x_max":800,"o":"m 241 570 l 624 570 l 614 505 l 237 505 l 237 481 q 238 440 237 450 l 606 440 l 596 376 l 245 376 q 341 148 271 229 q 505 66 411 66 q 746 241 633 66 l 800 205 q 651 37 730 92 q 470 -17 572 -17 q 229 89 332 -17 q 96 376 125 194 l 3 376 l 13 440 l 91 440 q 90 471 90 452 q 91 505 90 493 l 3 505 l 13 570 l 96 570 q 230 852 125 741 q 474 962 336 962 q 645 897 570 962 l 657 946 l 706 946 l 781 659 l 717 642 q 610 840 667 789 q 488 890 553 890 q 330 806 397 890 q 241 570 263 722 z "},"‹":{"ha":333,"x_min":61,"x_max":238,"o":"m 186 577 l 238 553 l 165 336 l 238 125 l 186 100 l 61 336 l 186 577 z "},"›":{"ha":333,"x_min":96,"x_max":273,"o":"m 147 100 l 96 124 l 168 340 l 96 551 l 147 577 l 273 340 l 147 100 z "},"":{"ha":861,"x_min":50,"x_max":827,"o":"m 50 654 l 168 654 l 168 729 q 176 817 168 786 q 223 905 186 864 q 316 971 259 947 q 449 995 373 995 q 604 954 545 995 q 663 871 663 913 q 648 828 663 844 q 606 812 632 812 q 579 817 592 812 q 553 833 566 822 q 528 864 545 840 q 505 894 511 888 q 463 922 486 912 q 416 931 441 931 q 353 915 383 931 q 307 873 323 899 q 286 811 291 847 q 281 749 281 775 l 281 654 l 604 654 q 645 659 633 654 q 660 671 653 661 l 710 671 l 710 159 q 716 93 710 106 q 741 66 724 75 q 801 57 757 57 l 827 57 l 827 0 l 479 0 l 479 57 l 507 57 q 564 64 549 57 q 588 90 579 72 q 597 146 597 109 l 597 581 l 281 581 l 281 146 q 289 90 281 107 q 312 65 296 73 q 366 57 328 57 l 399 57 l 399 0 l 50 0 l 50 57 l 72 57 q 129 62 118 57 q 161 94 151 73 q 168 153 168 110 l 168 581 l 50 581 l 50 654 z "},"ﬁ":{"ha":861,"x_min":50,"x_max":827,"o":"m 50 654 l 168 654 l 168 729 q 176 817 168 786 q 223 905 186 864 q 316 971 259 947 q 449 995 373 995 q 604 954 545 995 q 663 871 663 913 q 648 828 663 844 q 606 812 632 812 q 579 817 592 812 q 553 833 566 822 q 528 864 545 840 q 505 894 511 888 q 463 922 486 912 q 416 931 441 931 q 353 915 383 931 q 307 873 323 899 q 286 811 291 847 q 281 749 281 775 l 281 654 l 604 654 q 645 659 633 654 q 660 671 653 661 l 710 671 l 710 159 q 716 93 710 106 q 741 66 724 75 q 801 57 757 57 l 827 57 l 827 0 l 479 0 l 479 57 l 507 57 q 564 64 549 57 q 588 90 579 72 q 597 146 597 109 l 597 581 l 281 581 l 281 146 q 289 90 281 107 q 312 65 296 73 q 366 57 328 57 l 399 57 l 399 0 l 50 0 l 50 57 l 72 57 q 129 62 118 57 q 161 94 151 73 q 168 153 168 110 l 168 581 l 50 581 l 50 654 z "},"":{"ha":861,"x_min":51,"x_max":827,"o":"m 711 995 l 711 150 q 716 95 711 108 q 731 72 721 81 q 754 60 742 62 q 827 57 767 57 l 827 0 l 479 0 l 479 57 l 504 57 q 564 66 548 57 q 589 94 581 75 q 597 163 597 113 l 597 587 l 281 587 l 281 150 q 289 89 281 104 q 314 65 297 73 q 374 57 330 57 l 399 57 l 399 0 l 51 0 l 51 57 l 77 57 q 136 66 119 57 q 161 94 153 75 q 169 163 169 113 l 169 587 l 51 587 l 51 654 l 169 654 l 169 739 q 200 874 169 821 q 294 962 231 928 q 439 995 357 995 q 515 989 465 995 q 576 983 559 983 q 661 995 610 983 l 711 995 m 597 654 l 597 871 q 565 865 578 865 q 543 870 554 865 q 502 898 532 875 q 412 932 457 932 q 319 889 357 932 q 281 762 281 846 l 281 654 l 597 654 z "},"ﬂ":{"ha":861,"x_min":51,"x_max":827,"o":"m 711 995 l 711 150 q 716 95 711 108 q 731 72 721 81 q 754 60 742 62 q 827 57 767 57 l 827 0 l 479 0 l 479 57 l 504 57 q 564 66 548 57 q 589 94 581 75 q 597 163 597 113 l 597 587 l 281 587 l 281 150 q 289 89 281 104 q 314 65 297 73 q 374 57 330 57 l 399 57 l 399 0 l 51 0 l 51 57 l 77 57 q 136 66 119 57 q 161 94 153 75 q 169 163 169 113 l 169 587 l 51 587 l 51 654 l 169 654 l 169 739 q 200 874 169 821 q 294 962 231 928 q 439 995 357 995 q 515 989 465 995 q 576 983 559 983 q 661 995 610 983 l 711 995 m 597 654 l 597 871 q 565 865 578 865 q 543 870 554 865 q 502 898 532 875 q 412 932 457 932 q 319 889 357 932 q 281 762 281 846 l 281 654 l 597 654 z "},"‡":{"ha":750,"x_min":110,"x_max":640,"o":"m 295 368 q 334 446 322 410 q 355 559 346 482 l 231 525 q 177 517 201 517 q 126 533 142 517 q 110 580 110 549 q 117 619 110 605 q 138 639 125 633 q 182 649 159 649 q 222 643 200 649 l 355 607 q 319 783 342 699 q 298 886 298 859 q 317 943 298 923 q 375 962 337 962 q 433 943 413 962 q 453 886 453 924 q 450 851 453 871 q 427 756 446 832 q 395 607 399 637 l 528 643 q 572 649 551 649 q 623 632 605 649 q 640 585 640 616 q 625 533 640 550 q 578 517 609 517 q 519 525 549 517 l 395 559 q 414 452 404 489 q 450 368 425 415 q 414 283 425 321 q 395 176 404 246 l 519 211 q 572 218 547 218 q 624 203 608 218 q 640 156 640 187 q 633 117 640 131 q 613 97 625 102 q 568 87 591 87 q 528 93 551 87 l 395 129 q 433 -47 403 69 q 453 -150 453 -123 q 433 -206 453 -186 q 376 -226 413 -226 q 317 -207 337 -226 q 298 -151 298 -188 q 319 -47 298 -123 q 337 31 328 -13 q 355 129 351 98 l 222 93 q 178 87 200 87 q 128 104 146 87 q 110 151 110 121 q 126 203 110 186 q 173 220 142 220 q 231 211 198 220 l 355 176 q 332 294 343 260 q 295 368 321 328 z "},"∙":{"ha":444,"x_min":137,"x_max":307,"o":"m 222 559 q 282 534 257 559 q 307 473 307 509 q 282 412 307 437 q 222 387 257 387 q 162 412 187 387 q 137 472 137 437 q 163 533 137 507 q 222 559 189 559 z "},"‚":{"ha":306,"x_min":113,"x_max":329,"o":"m 150 -245 l 113 -201 q 252 -12 252 -87 q 251 10 252 -3 q 229 3 239 5 q 208 0 218 0 q 156 21 176 0 q 136 75 136 42 q 160 130 136 106 q 217 154 184 154 q 296 117 263 154 q 329 22 329 80 q 313 -58 329 -16 q 268 -135 298 -100 q 150 -245 238 -171 z "},"„":{"ha":555,"x_min":47,"x_max":505,"o":"m 84 -245 l 47 -201 q 186 -12 186 -87 q 185 10 186 -3 q 163 3 174 5 q 142 0 152 0 q 90 21 110 0 q 71 75 71 42 q 94 130 71 106 q 151 154 118 154 q 230 117 197 154 q 263 22 263 80 q 248 -58 263 -16 q 202 -135 232 -100 q 84 -245 172 -171 m 326 -245 l 290 -201 q 429 -12 429 -87 q 427 10 429 -3 q 405 3 416 5 q 384 0 394 0 q 332 21 352 0 q 313 75 313 42 q 336 130 313 106 q 393 154 360 154 q 472 117 439 154 q 505 22 505 80 q 490 -58 505 -16 q 444 -135 474 -100 q 326 -245 414 -171 z "},"‰":{"ha":1777,"x_min":49,"x_max":1729,"o":"m 271 962 q 427 898 370 962 q 490 704 490 827 q 428 520 490 588 q 265 453 365 453 q 100 532 161 453 q 49 708 49 598 q 110 896 49 829 q 271 962 171 962 m 269 919 q 206 898 233 919 q 160 825 179 878 q 142 702 142 772 q 159 587 142 633 q 204 518 176 541 q 267 496 233 496 q 332 518 302 496 q 379 589 361 541 q 397 708 397 637 q 365 861 397 803 q 269 919 332 919 m 960 962 l 330 -16 l 249 -16 l 878 962 l 960 962 m 941 492 q 1097 428 1041 492 q 1160 234 1160 357 q 1098 51 1160 119 q 935 -16 1035 -16 q 770 62 831 -16 q 719 239 719 128 q 780 426 719 360 q 941 492 841 492 m 939 450 q 876 429 903 450 q 830 356 849 408 q 812 233 812 303 q 829 117 812 163 q 875 49 846 71 q 937 27 903 27 q 1002 49 972 27 q 1049 119 1031 71 q 1067 238 1067 167 q 1035 392 1067 334 q 939 450 1002 450 m 1510 492 q 1666 428 1609 492 q 1729 234 1729 357 q 1666 51 1729 119 q 1504 -16 1603 -16 q 1339 62 1400 -16 q 1288 239 1288 128 q 1349 426 1288 360 q 1510 492 1409 492 m 1508 450 q 1445 429 1472 450 q 1399 356 1417 408 q 1380 233 1380 303 q 1397 117 1380 163 q 1443 49 1415 71 q 1506 27 1472 27 q 1570 49 1541 27 q 1617 119 1600 71 q 1635 238 1635 167 q 1603 392 1635 334 q 1508 450 1571 450 z "},"Â":{"ha":945,"x_min":2,"x_max":941,"o":"m 418 946 l 530 946 l 823 155 q 867 76 845 96 q 926 57 889 57 l 941 57 l 941 0 l 604 0 l 604 57 q 636 58 621 58 q 679 65 669 58 q 699 98 699 78 q 680 168 699 112 l 617 351 l 274 351 l 201 146 q 189 102 189 114 q 196 78 189 88 q 216 63 203 68 q 255 58 228 58 q 285 57 273 58 l 285 0 l 2 0 l 2 57 q 59 65 41 57 q 89 90 76 73 q 123 163 102 107 l 418 946 m 299 417 l 591 417 l 445 824 l 299 417 m 471 1177 l 669 1048 l 650 1013 l 471 1076 l 293 1013 l 275 1048 l 471 1177 z "},"Ê":{"ha":1000,"x_min":66,"x_max":970,"o":"m 66 946 l 836 946 l 924 697 l 865 675 q 816 771 842 736 q 752 830 789 806 q 678 863 715 854 q 542 871 640 871 l 313 871 l 313 524 l 427 524 q 522 546 490 524 q 566 599 554 567 q 576 682 576 623 l 576 697 l 642 697 l 642 282 l 576 282 l 576 318 q 569 387 576 366 q 543 426 562 408 q 502 452 524 445 q 427 458 479 458 l 313 458 l 313 151 q 317 92 313 102 q 332 77 321 81 q 387 72 342 72 l 529 72 q 714 100 648 72 q 832 188 781 129 q 909 318 872 234 l 970 296 l 865 0 l 66 0 l 66 57 l 94 57 q 153 63 141 57 q 180 92 170 72 q 186 151 186 105 l 186 802 q 178 861 186 846 q 147 884 169 876 q 66 888 136 888 l 66 946 m 499 1177 l 696 1048 l 678 1013 l 499 1076 l 321 1013 l 302 1048 l 499 1177 z "},"Á":{"ha":945,"x_min":2,"x_max":941,"o":"m 418 946 l 530 946 l 823 155 q 867 76 845 96 q 926 57 889 57 l 941 57 l 941 0 l 604 0 l 604 57 q 636 58 621 58 q 679 65 669 58 q 699 98 699 78 q 680 168 699 112 l 617 351 l 274 351 l 201 146 q 189 102 189 114 q 196 78 189 88 q 216 63 203 68 q 255 58 228 58 q 285 57 273 58 l 285 0 l 2 0 l 2 57 q 59 65 41 57 q 89 90 76 73 q 123 163 102 107 l 418 946 m 299 417 l 591 417 l 445 824 l 299 417 m 372 1018 l 372 1042 l 498 1134 q 606 1181 562 1181 q 640 1167 626 1181 q 654 1131 654 1152 q 635 1087 654 1104 q 566 1059 616 1069 l 372 1018 z "},"Ë":{"ha":1000,"x_min":66,"x_max":970,"o":"m 66 946 l 836 946 l 924 697 l 865 675 q 816 771 842 736 q 752 830 789 806 q 678 863 715 854 q 542 871 640 871 l 313 871 l 313 524 l 427 524 q 522 546 490 524 q 566 599 554 567 q 576 682 576 623 l 576 697 l 642 697 l 642 282 l 576 282 l 576 318 q 569 387 576 366 q 543 426 562 408 q 502 452 524 445 q 427 458 479 458 l 313 458 l 313 151 q 317 92 313 102 q 332 77 321 81 q 387 72 342 72 l 529 72 q 714 100 648 72 q 832 188 781 129 q 909 318 872 234 l 970 296 l 865 0 l 66 0 l 66 57 l 94 57 q 153 63 141 57 q 180 92 170 72 q 186 151 186 105 l 186 802 q 178 861 186 846 q 147 884 169 876 q 66 888 136 888 l 66 946 m 387 1159 q 445 1135 420 1159 q 469 1076 469 1110 q 445 1017 469 1042 q 387 993 420 993 q 328 1017 353 993 q 304 1076 304 1042 q 328 1135 304 1110 q 387 1159 352 1159 m 613 1159 q 671 1135 647 1159 q 696 1076 696 1110 q 671 1017 696 1042 q 613 993 647 993 q 554 1017 578 993 q 530 1076 530 1042 q 554 1135 530 1110 q 613 1159 578 1159 z "},"È":{"ha":1000,"x_min":66,"x_max":970,"o":"m 66 946 l 836 946 l 924 697 l 865 675 q 816 771 842 736 q 752 830 789 806 q 678 863 715 854 q 542 871 640 871 l 313 871 l 313 524 l 427 524 q 522 546 490 524 q 566 599 554 567 q 576 682 576 623 l 576 697 l 642 697 l 642 282 l 576 282 l 576 318 q 569 387 576 366 q 543 426 562 408 q 502 452 524 445 q 427 458 479 458 l 313 458 l 313 151 q 317 92 313 102 q 332 77 321 81 q 387 72 342 72 l 529 72 q 714 100 648 72 q 832 188 781 129 q 909 318 872 234 l 970 296 l 865 0 l 66 0 l 66 57 l 94 57 q 153 63 141 57 q 180 92 170 72 q 186 151 186 105 l 186 802 q 178 861 186 846 q 147 884 169 876 q 66 888 136 888 l 66 946 m 641 1018 l 447 1059 q 377 1087 396 1069 q 358 1129 358 1104 q 372 1167 358 1152 q 408 1181 386 1181 q 515 1134 451 1181 l 641 1042 l 641 1018 z "},"Í":{"ha":472,"x_min":55,"x_max":418,"o":"m 55 946 l 417 946 l 417 888 l 389 888 q 332 878 350 888 q 307 847 315 867 q 298 769 298 827 l 298 159 q 307 94 298 113 q 332 66 316 75 q 389 57 348 57 l 417 57 l 417 0 l 55 0 l 55 57 l 85 57 q 141 66 125 57 q 165 93 158 75 q 173 159 173 110 l 173 783 q 165 853 173 836 q 141 880 158 871 q 85 888 125 888 l 55 888 l 55 946 m 136 1018 l 136 1042 l 262 1134 q 370 1181 326 1181 q 404 1167 390 1181 q 418 1131 418 1152 q 399 1087 418 1104 q 330 1059 380 1069 l 136 1018 z "},"Î":{"ha":472,"x_min":39,"x_max":433,"o":"m 55 946 l 417 946 l 417 888 l 389 888 q 332 878 350 888 q 307 847 315 867 q 298 769 298 827 l 298 159 q 307 94 298 113 q 332 66 316 75 q 389 57 348 57 l 417 57 l 417 0 l 55 0 l 55 57 l 85 57 q 141 66 125 57 q 165 93 158 75 q 173 159 173 110 l 173 783 q 165 853 173 836 q 141 880 158 871 q 85 888 125 888 l 55 888 l 55 946 m 235 1177 l 433 1048 l 414 1013 l 235 1076 l 57 1013 l 39 1048 l 235 1177 z "},"Ï":{"ha":472,"x_min":40,"x_max":432,"o":"m 55 946 l 417 946 l 417 888 l 389 888 q 332 878 350 888 q 307 847 315 867 q 298 769 298 827 l 298 159 q 307 94 298 113 q 332 66 316 75 q 389 57 348 57 l 417 57 l 417 0 l 55 0 l 55 57 l 85 57 q 141 66 125 57 q 165 93 158 75 q 173 159 173 110 l 173 783 q 165 853 173 836 q 141 880 158 871 q 85 888 125 888 l 55 888 l 55 946 m 123 1159 q 181 1135 157 1159 q 205 1076 205 1110 q 181 1017 205 1042 q 123 993 157 993 q 64 1017 89 993 q 40 1076 40 1042 q 64 1135 40 1110 q 123 1159 88 1159 m 349 1159 q 408 1135 383 1159 q 432 1076 432 1110 q 408 1017 432 1042 q 349 993 383 993 q 291 1017 315 993 q 267 1076 267 1042 q 291 1135 267 1110 q 349 1159 315 1159 z "},"Ì":{"ha":472,"x_min":54,"x_max":417,"o":"m 55 946 l 417 946 l 417 888 l 389 888 q 332 878 350 888 q 307 847 315 867 q 298 769 298 827 l 298 159 q 307 94 298 113 q 332 66 316 75 q 389 57 348 57 l 417 57 l 417 0 l 55 0 l 55 57 l 85 57 q 141 66 125 57 q 165 93 158 75 q 173 159 173 110 l 173 783 q 165 853 173 836 q 141 880 158 871 q 85 888 125 888 l 55 888 l 55 946 m 336 1018 l 142 1059 q 73 1087 92 1069 q 54 1129 54 1104 q 67 1167 54 1152 q 103 1181 81 1181 q 211 1134 146 1181 l 336 1042 l 336 1018 z "},"Ó":{"ha":1111,"x_min":73,"x_max":1038,"o":"m 569 962 q 803 900 699 962 q 977 726 916 833 q 1038 477 1038 618 q 902 121 1038 259 q 556 -16 766 -16 q 184 149 321 -16 q 73 472 73 284 q 136 723 73 612 q 315 898 199 833 q 569 962 431 962 m 569 889 q 387 841 463 889 q 266 698 311 792 q 220 465 220 604 q 265 241 220 333 q 386 100 310 149 q 557 52 462 52 q 724 99 651 52 q 844 250 796 147 q 891 478 891 353 q 844 711 891 606 q 736 846 803 802 q 569 889 669 889 m 455 1018 l 455 1042 l 581 1134 q 688 1181 645 1181 q 723 1167 709 1181 q 736 1131 736 1152 q 718 1087 736 1104 q 649 1059 699 1069 l 455 1018 z "},"Ô":{"ha":1111,"x_min":73,"x_max":1038,"o":"m 569 962 q 803 900 699 962 q 977 726 916 833 q 1038 477 1038 618 q 902 121 1038 259 q 556 -16 766 -16 q 184 149 321 -16 q 73 472 73 284 q 136 723 73 612 q 315 898 199 833 q 569 962 431 962 m 569 889 q 387 841 463 889 q 266 698 311 792 q 220 465 220 604 q 265 241 220 333 q 386 100 310 149 q 557 52 462 52 q 724 99 651 52 q 844 250 796 147 q 891 478 891 353 q 844 711 891 606 q 736 846 803 802 q 569 889 669 889 m 555 1177 l 752 1048 l 734 1013 l 555 1076 l 376 1013 l 358 1048 l 555 1177 z "},"":{"ha":1097,"x_min":0,"x_max":0,"o":""},"Ò":{"ha":1111,"x_min":73,"x_max":1038,"o":"m 569 962 q 803 900 699 962 q 977 726 916 833 q 1038 477 1038 618 q 902 121 1038 259 q 556 -16 766 -16 q 184 149 321 -16 q 73 472 73 284 q 136 723 73 612 q 315 898 199 833 q 569 962 431 962 m 569 889 q 387 841 463 889 q 266 698 311 792 q 220 465 220 604 q 265 241 220 333 q 386 100 310 149 q 557 52 462 52 q 724 99 651 52 q 844 250 796 147 q 891 478 891 353 q 844 711 891 606 q 736 846 803 802 q 569 889 669 889 m 656 1018 l 462 1059 q 392 1087 411 1069 q 373 1129 373 1104 q 387 1167 373 1152 q 422 1181 401 1181 q 530 1134 466 1181 l 656 1042 l 656 1018 z "},"Ú":{"ha":1083,"x_min":53,"x_max":1030,"o":"m 53 946 l 418 946 l 418 888 l 394 888 q 330 880 349 888 q 308 857 315 873 q 300 791 300 840 l 300 366 q 328 197 300 252 q 419 104 355 142 q 560 67 484 67 q 707 107 637 67 q 804 202 776 147 q 831 376 831 257 l 831 785 q 823 850 831 830 q 796 879 814 869 q 740 888 778 888 l 713 888 l 713 946 l 1030 946 l 1030 888 l 1008 888 q 935 868 955 888 q 915 791 915 848 l 915 355 q 870 156 915 236 q 740 30 825 77 q 541 -16 654 -16 q 345 31 434 -16 q 215 150 256 79 q 173 328 173 220 l 173 791 q 165 854 173 836 q 141 880 157 872 q 87 888 125 888 l 53 888 l 53 946 m 441 1018 l 441 1042 l 567 1134 q 675 1181 631 1181 q 709 1167 695 1181 q 723 1131 723 1152 q 704 1087 723 1104 q 635 1059 685 1069 l 441 1018 z "},"Û":{"ha":1083,"x_min":53,"x_max":1030,"o":"m 53 946 l 418 946 l 418 888 l 394 888 q 330 880 349 888 q 308 857 315 873 q 300 791 300 840 l 300 366 q 328 197 300 252 q 419 104 355 142 q 560 67 484 67 q 707 107 637 67 q 804 202 776 147 q 831 376 831 257 l 831 785 q 823 850 831 830 q 796 879 814 869 q 740 888 778 888 l 713 888 l 713 946 l 1030 946 l 1030 888 l 1008 888 q 935 868 955 888 q 915 791 915 848 l 915 355 q 870 156 915 236 q 740 30 825 77 q 541 -16 654 -16 q 345 31 434 -16 q 215 150 256 79 q 173 328 173 220 l 173 791 q 165 854 173 836 q 141 880 157 872 q 87 888 125 888 l 53 888 l 53 946 m 541 1177 l 739 1048 l 720 1013 l 541 1076 l 363 1013 l 345 1048 l 541 1177 z "},"Ù":{"ha":1083,"x_min":53,"x_max":1030,"o":"m 53 946 l 418 946 l 418 888 l 394 888 q 330 880 349 888 q 308 857 315 873 q 300 791 300 840 l 300 366 q 328 197 300 252 q 419 104 355 142 q 560 67 484 67 q 707 107 637 67 q 804 202 776 147 q 831 376 831 257 l 831 785 q 823 850 831 830 q 796 879 814 869 q 740 888 778 888 l 713 888 l 713 946 l 1030 946 l 1030 888 l 1008 888 q 935 868 955 888 q 915 791 915 848 l 915 355 q 870 156 915 236 q 740 30 825 77 q 541 -16 654 -16 q 345 31 434 -16 q 215 150 256 79 q 173 328 173 220 l 173 791 q 165 854 173 836 q 141 880 157 872 q 87 888 125 888 l 53 888 l 53 946 m 642 1018 l 448 1059 q 378 1087 397 1069 q 359 1129 359 1104 q 373 1167 359 1152 q 409 1181 387 1181 q 517 1134 452 1181 l 642 1042 l 642 1018 z "},"ı":{"ha":416,"x_min":41,"x_max":389,"o":"m 41 557 l 41 613 q 136 632 98 620 q 223 671 174 644 l 273 671 l 273 158 q 276 95 273 106 q 300 65 282 75 q 357 57 315 57 l 389 57 l 389 0 l 41 0 l 41 57 l 69 57 q 130 65 115 57 q 152 88 146 73 q 159 158 159 103 l 159 557 l 41 557 z "},"ˆ":{"ha":583,"x_min":94,"x_max":488,"o":"m 291 952 l 488 823 l 470 788 l 291 851 l 113 788 l 94 823 l 291 952 z "},"˜":{"ha":611,"x_min":92,"x_max":519,"o":"m 519 899 q 469 824 508 854 q 382 794 430 794 q 353 797 366 794 q 292 814 340 800 q 187 838 218 838 q 132 810 157 838 l 92 823 q 139 892 105 866 q 212 918 172 918 q 344 892 253 918 q 412 880 389 880 q 479 911 456 880 l 519 899 z "},"ˉ":{"ha":611,"x_min":100,"x_max":511,"o":"m 511 885 l 511 815 l 100 815 l 100 885 l 511 885 z "},"˘":{"ha":639,"x_min":92,"x_max":548,"o":"m 92 929 l 124 955 q 321 882 211 882 q 430 903 376 882 q 517 955 484 924 l 548 929 q 453 828 517 867 q 317 789 390 789 q 223 806 268 789 q 145 854 178 823 q 92 929 113 884 z "},"˙":{"ha":361,"x_min":97,"x_max":264,"o":"m 180 933 q 239 909 215 933 q 264 851 264 885 q 239 792 264 817 q 180 768 215 768 q 121 792 146 768 q 97 851 97 817 q 121 909 97 885 q 180 933 146 933 z "},"˚":{"ha":444,"x_min":94,"x_max":350,"o":"m 222 1017 q 313 979 275 1017 q 350 888 350 941 q 312 797 350 835 q 222 760 275 760 q 132 797 169 760 q 94 888 94 835 q 132 979 94 941 q 222 1017 169 1017 m 222 969 q 165 945 189 969 q 142 888 142 922 q 165 831 142 854 q 222 807 189 807 q 279 831 255 807 q 302 888 302 854 q 279 945 302 922 q 222 969 255 969 z "},"¸":{"ha":444,"x_min":91,"x_max":353,"o":"m 215 0 l 197 -59 q 231 -57 225 -57 q 301 -72 269 -57 q 339 -105 326 -83 q 353 -159 353 -128 q 318 -245 353 -212 q 224 -278 283 -278 q 123 -249 165 -278 q 91 -200 91 -228 q 101 -175 91 -185 q 126 -165 111 -165 q 152 -172 142 -165 q 170 -199 162 -179 q 186 -228 180 -222 q 223 -240 202 -240 q 269 -219 250 -240 q 288 -165 288 -199 q 268 -113 288 -131 q 205 -94 248 -94 q 138 -108 177 -94 l 173 0 l 215 0 z "},"˝":{"ha":528,"x_min":137,"x_max":474,"o":"m 159 749 l 137 764 l 186 890 q 222 956 205 939 q 258 972 239 972 q 284 963 274 972 q 294 939 294 953 q 266 873 294 907 l 159 749 m 339 749 l 317 764 l 366 890 q 401 955 385 939 q 438 972 418 972 q 464 962 454 972 q 474 939 474 952 q 446 873 474 907 l 339 749 z "},"˛":{"ha":444,"x_min":98,"x_max":345,"o":"m 220 0 q 176 -48 194 -19 q 163 -88 163 -68 q 180 -129 163 -113 q 220 -146 197 -146 q 269 -133 241 -146 q 323 -95 297 -120 l 345 -124 q 269 -180 298 -165 q 187 -201 224 -201 q 124 -175 149 -201 q 98 -111 98 -149 q 121 -45 98 -80 q 168 0 136 -22 l 220 0 z "},"ˇ":{"ha":583,"x_min":94,"x_max":488,"o":"m 291 769 l 94 899 l 113 933 l 291 870 l 470 933 l 488 899 l 291 769 z "},"Ł":{"ha":833,"x_min":64,"x_max":850,"o":"m 310 558 l 562 770 l 562 684 l 310 473 l 310 149 q 313 94 310 103 q 331 77 317 82 q 386 73 340 73 l 437 73 q 589 98 524 73 q 700 172 653 123 q 790 317 747 220 l 850 296 l 745 0 l 64 0 l 64 57 l 94 57 q 152 64 137 57 q 175 89 167 72 q 183 149 183 106 l 183 366 l 64 266 l 64 351 l 183 452 l 183 792 q 176 858 183 841 q 154 881 168 874 q 94 888 140 888 l 64 888 l 64 946 l 431 946 l 431 888 l 397 888 q 341 881 357 888 q 317 859 325 873 q 310 808 310 845 l 310 558 z "},"ł":{"ha":444,"x_min":57,"x_max":406,"o":"m 287 582 l 406 683 l 406 606 l 287 506 l 287 160 q 294 94 287 107 q 319 66 302 75 q 385 57 336 57 l 406 57 l 406 0 l 57 0 l 57 57 l 92 57 q 142 67 125 57 q 166 95 159 77 q 173 165 173 113 l 173 410 l 57 313 l 57 389 l 173 486 l 173 882 l 57 882 l 57 938 q 237 995 149 945 l 287 995 l 287 582 z "},"Š":{"ha":917,"x_min":81,"x_max":859,"o":"m 703 946 l 751 946 l 824 654 l 762 635 q 603 829 702 758 q 422 888 522 888 q 315 866 363 888 q 244 811 268 845 q 220 742 220 777 q 239 680 220 710 q 294 628 257 650 q 416 580 332 605 l 593 528 q 688 491 626 518 q 785 434 750 464 q 839 360 819 404 q 859 265 859 316 q 760 68 859 153 q 505 -16 661 -16 q 360 7 424 -16 q 222 90 296 31 l 191 0 l 144 0 l 81 340 l 144 353 q 236 193 178 258 q 362 93 293 127 q 504 60 432 60 q 675 119 602 60 q 736 235 736 168 q 692 336 736 297 q 532 410 647 376 l 362 458 q 161 564 220 500 q 103 712 103 629 q 141 832 103 777 q 258 925 179 888 q 430 962 336 962 q 581 935 509 962 q 674 881 631 916 l 703 946 m 458 994 l 261 1124 l 279 1158 l 458 1095 l 637 1158 l 655 1124 l 458 994 z "},"š":{"ha":722,"x_min":66,"x_max":655,"o":"m 509 654 l 557 654 l 618 447 l 557 427 q 454 558 520 510 q 320 606 388 606 q 235 580 268 606 q 203 522 203 555 q 227 468 203 490 q 330 416 250 445 l 463 369 q 615 283 574 329 q 655 179 655 237 q 625 84 655 130 q 539 11 595 38 q 409 -16 482 -16 q 214 49 295 -16 l 199 0 l 151 0 l 66 222 l 128 246 q 245 108 190 149 q 410 50 321 50 q 507 82 469 50 q 545 152 545 113 q 522 210 545 184 q 428 260 497 236 l 271 317 q 131 397 170 354 q 92 497 92 441 q 156 618 92 566 q 319 671 220 671 q 411 657 370 671 q 491 614 452 644 l 509 654 m 361 769 l 164 899 l 182 933 l 361 870 l 540 933 l 558 899 l 361 769 z "},"Ž":{"ha":889,"x_min":36,"x_max":877,"o":"m 166 946 l 825 946 l 825 888 l 207 73 l 434 73 q 670 125 589 73 q 814 315 751 177 l 877 294 l 768 0 l 36 0 l 36 57 l 655 873 l 458 873 q 302 854 359 873 q 201 794 244 835 q 110 668 157 754 l 52 696 l 166 946 m 444 994 l 247 1124 l 265 1158 l 444 1095 l 623 1158 l 641 1124 l 444 994 z "},"ž":{"ha":667,"x_min":24,"x_max":657,"o":"m 139 654 l 633 654 l 633 597 l 176 63 l 289 63 q 479 95 421 63 q 597 246 558 140 l 657 224 l 574 0 l 24 0 l 24 57 l 481 587 l 348 587 q 203 553 255 587 q 107 427 151 520 l 49 455 l 139 654 m 333 769 l 136 899 l 155 933 l 333 870 l 512 933 l 530 899 l 333 769 z "},"¦":{"ha":833,"x_min":368,"x_max":467,"o":"m 368 995 l 467 995 l 467 429 l 368 374 l 368 995 m 368 262 l 467 318 l 467 -302 l 368 -302 l 368 262 z "},"Ð":{"ha":1111,"x_min":66,"x_max":1039,"o":"m 186 440 l 66 440 l 66 506 l 186 506 l 186 786 q 180 855 186 840 q 149 884 170 876 q 66 888 137 888 l 66 946 l 404 946 q 727 917 635 946 q 946 758 862 874 q 1039 461 1039 629 q 993 249 1039 347 q 873 92 947 151 q 724 21 811 41 q 549 0 637 0 l 66 0 l 66 57 l 105 57 l 118 56 q 159 66 143 56 q 182 94 175 77 q 186 153 186 106 l 186 440 m 313 440 l 313 73 l 517 73 q 619 84 548 73 q 720 111 690 95 q 807 185 765 134 q 872 308 849 236 q 895 471 895 379 q 872 630 895 563 q 803 751 849 697 q 702 832 758 804 q 576 868 646 861 q 452 871 539 871 l 313 871 l 313 506 l 604 506 l 604 440 l 313 440 z "},"ð":{"ha":778,"x_min":56,"x_max":722,"o":"m 675 979 l 690 925 l 517 878 q 629 718 578 808 q 700 547 679 627 q 722 382 722 467 q 676 168 722 258 q 556 30 630 77 q 378 -16 481 -16 q 139 85 223 -16 q 56 328 56 187 q 97 507 56 428 q 212 628 139 586 q 376 671 284 671 q 461 660 420 671 q 527 630 501 648 q 576 578 552 612 q 440 859 549 711 l 239 805 l 224 859 l 400 907 q 370 941 384 928 l 315 995 l 406 995 q 473 925 441 963 l 675 979 m 389 606 q 288 573 336 606 q 215 478 241 541 q 189 321 189 415 q 249 111 189 188 q 385 46 299 46 q 489 76 444 46 q 562 171 534 106 q 590 326 590 236 q 563 480 590 416 q 491 575 536 545 q 389 606 446 606 z "},"Ý":{"ha":889,"x_min":3,"x_max":885,"o":"m 3 946 l 357 946 l 357 888 l 317 888 q 270 882 281 888 q 260 859 260 875 q 273 823 260 846 q 281 807 276 817 l 466 465 l 670 820 q 685 848 682 842 q 687 861 687 854 q 682 877 687 871 q 666 887 677 884 q 628 888 659 888 l 593 888 l 593 946 l 885 946 l 885 888 q 828 884 846 889 q 797 867 809 878 q 764 820 785 856 l 507 393 l 507 155 q 516 87 507 102 q 543 64 524 71 q 628 57 561 57 l 628 0 l 258 0 l 258 57 l 287 57 q 348 65 332 57 q 372 92 363 73 q 378 155 378 104 l 378 368 l 127 812 q 78 877 98 866 q 3 888 58 887 l 3 946 m 345 1018 l 345 1042 l 470 1134 q 578 1181 534 1181 q 612 1167 598 1181 q 626 1131 626 1152 q 607 1087 626 1104 q 538 1059 588 1069 l 345 1018 z "},"ý":{"ha":750,"x_min":-24,"x_max":757,"o":"m -7 654 l 322 654 l 322 597 l 295 597 q 249 595 256 597 q 234 584 240 593 q 228 563 228 576 q 246 501 228 545 l 404 132 l 549 485 q 575 568 575 547 q 564 590 575 583 q 511 597 552 597 l 479 597 l 479 654 l 757 654 l 757 597 l 741 597 q 688 592 700 597 q 664 570 675 587 q 627 494 652 553 l 378 -85 q 318 -201 351 -148 q 235 -283 285 -254 q 124 -313 184 -313 q 12 -281 54 -313 q -24 -213 -24 -254 q -8 -171 -24 -188 q 28 -155 7 -155 q 59 -161 45 -155 q 96 -190 68 -165 q 143 -227 130 -220 q 171 -233 157 -233 q 226 -214 199 -233 q 272 -161 253 -195 q 317 -68 299 -111 l 345 0 l 121 501 q 81 572 97 554 q 48 595 64 591 q -7 597 39 597 l -7 654 m 261 793 l 261 817 l 387 909 q 494 957 451 957 q 529 942 515 957 q 543 906 543 928 q 524 862 543 880 q 455 834 505 845 l 261 793 z "},"Þ":{"ha":861,"x_min":62,"x_max":857,"o":"m 62 946 l 429 946 l 429 888 l 409 888 q 333 875 353 888 q 313 819 313 862 l 313 799 l 310 744 l 436 744 q 669 724 605 744 q 804 635 751 698 q 857 476 857 572 q 817 334 857 393 q 700 232 768 262 q 483 202 631 202 l 310 202 l 310 161 q 316 92 310 106 q 338 65 324 73 q 396 57 353 57 l 429 57 l 429 0 l 62 0 l 62 57 l 85 57 q 149 65 132 57 q 173 89 165 73 q 181 152 181 106 l 181 799 q 174 859 181 844 q 150 881 167 874 q 85 888 134 888 l 62 888 l 62 946 m 310 671 l 310 275 l 456 275 q 611 294 566 275 q 684 362 655 314 q 713 476 713 411 q 680 595 713 547 q 587 659 646 643 q 429 671 547 671 l 310 671 z "},"þ":{"ha":861,"x_min":43,"x_max":806,"o":"m 43 881 l 43 937 q 134 950 94 937 q 220 995 173 962 l 273 995 l 273 557 q 414 648 358 625 q 527 671 471 671 q 725 580 643 671 q 806 343 806 489 q 713 79 806 182 q 495 -16 629 -16 q 370 9 429 -16 q 273 72 328 26 l 273 -151 q 276 -210 273 -201 q 290 -232 279 -223 q 315 -243 300 -241 q 393 -245 327 -245 l 393 -302 l 43 -302 l 43 -245 l 74 -245 q 135 -238 121 -245 q 155 -216 149 -231 q 159 -146 159 -205 l 159 881 l 43 881 m 273 488 l 273 254 q 279 186 273 208 q 310 123 287 151 q 374 76 334 96 q 458 56 414 56 q 611 123 547 56 q 676 324 676 189 q 623 519 676 450 q 496 588 569 588 q 393 563 448 588 q 273 488 337 538 z "},"−":{"ha":833,"x_min":86,"x_max":747,"o":"m 747 515 l 747 431 l 86 431 l 86 515 l 747 515 z "},"×":{"ha":833,"x_min":132,"x_max":702,"o":"m 702 247 l 643 188 l 416 414 l 191 188 l 132 247 l 358 473 l 132 699 l 191 758 l 416 532 l 643 758 l 702 699 l 475 473 l 702 247 z "},"¹":{"ha":517,"x_min":133,"x_max":413,"o":"m 318 954 l 318 548 q 325 507 318 514 q 366 500 332 500 l 413 500 l 413 462 l 133 462 l 133 500 l 184 500 q 219 503 212 500 q 230 515 226 507 q 234 548 234 524 l 234 873 l 133 873 l 133 911 q 226 930 172 916 q 264 946 259 939 q 276 954 269 954 l 318 954 z "},"²":{"ha":517,"x_min":37,"x_max":461,"o":"m 105 764 l 51 758 q 47 803 47 787 q 72 880 47 843 q 145 940 97 918 q 257 962 194 962 q 401 919 349 962 q 454 810 454 875 q 435 733 454 770 q 371 661 416 696 q 156 523 326 627 l 345 523 q 386 526 377 523 q 398 538 394 530 q 410 583 403 546 l 461 583 l 432 444 l 392 444 l 387 462 l 37 462 l 37 496 l 106 542 q 275 663 223 618 q 347 745 327 707 q 361 804 361 772 q 329 883 361 852 q 239 913 296 913 q 140 879 178 913 q 103 798 103 846 q 105 764 103 787 z "},"³":{"ha":517,"x_min":35,"x_max":465,"o":"m 119 815 l 65 822 q 83 880 71 859 q 149 939 104 916 q 256 962 193 962 q 391 925 342 962 q 439 837 439 888 q 416 780 439 806 q 336 730 385 746 q 430 683 396 719 q 465 602 465 646 q 405 499 465 545 q 248 453 346 453 q 95 494 154 453 q 35 572 35 534 q 48 598 35 587 q 81 609 60 609 q 112 600 100 609 q 134 564 125 590 q 241 494 158 494 q 335 527 300 494 q 371 607 371 559 q 362 646 371 629 q 336 678 354 663 q 298 698 318 693 q 231 706 267 706 l 185 706 l 185 748 l 217 748 q 316 770 286 748 q 347 831 347 793 q 319 889 347 866 q 242 911 292 911 q 183 900 209 911 q 142 869 157 888 q 119 815 127 850 z "},"½":{"ha":1292,"x_min":165,"x_max":1204,"o":"m 350 954 l 350 548 q 357 507 350 514 q 397 500 364 500 l 445 500 l 445 462 l 165 462 l 165 500 l 216 500 q 251 503 243 500 q 262 515 258 507 q 266 548 266 524 l 266 873 l 165 873 l 165 911 q 258 930 203 916 q 296 946 291 939 q 308 954 300 954 l 350 954 m 1002 962 l 371 -16 l 290 -16 l 920 962 l 1002 962 m 848 302 l 794 296 q 790 342 790 326 q 815 419 790 382 q 889 479 840 456 q 1000 501 937 501 q 1145 457 1092 501 q 1198 349 1198 414 q 1178 272 1198 309 q 1114 200 1159 235 q 899 62 1069 165 l 1088 62 q 1129 65 1120 62 q 1142 77 1137 68 q 1154 122 1146 85 l 1204 122 l 1175 -17 l 1135 -17 l 1131 1 l 780 1 l 780 35 l 849 81 q 1018 201 966 157 q 1090 284 1070 246 q 1105 343 1105 311 q 1072 421 1105 391 q 983 452 1039 452 q 884 418 921 452 q 846 336 846 385 q 848 302 846 326 z "},"¼":{"ha":1292,"x_min":165,"x_max":1225,"o":"m 350 954 l 350 548 q 357 507 350 514 q 397 500 364 500 l 445 500 l 445 462 l 165 462 l 165 500 l 216 500 q 251 503 243 500 q 262 515 258 507 q 266 548 266 524 l 266 873 l 165 873 l 165 911 q 258 930 203 916 q 296 946 291 939 q 308 954 300 954 l 350 954 m 1018 962 l 387 -16 l 307 -16 l 936 962 l 1018 962 m 1040 492 l 1120 492 l 1120 211 l 1225 211 l 1225 159 l 1120 159 l 1120 0 l 1036 0 l 1036 159 l 773 159 l 773 225 l 1040 492 m 1036 211 l 1036 417 l 831 211 l 1036 211 z "},"¾":{"ha":1292,"x_min":68,"x_max":1225,"o":"m 152 815 l 98 822 q 115 880 103 859 q 181 939 136 916 q 289 962 226 962 q 424 925 375 962 q 472 837 472 888 q 449 780 472 806 q 369 730 417 746 q 463 683 429 719 q 497 602 497 646 q 438 499 497 545 q 281 453 378 453 q 127 494 186 453 q 68 572 68 534 q 80 598 68 587 q 113 609 93 609 q 145 600 132 609 q 166 564 157 590 q 274 494 191 494 q 368 527 332 494 q 404 607 404 559 q 395 646 404 629 q 369 678 387 663 q 331 698 351 693 q 263 706 299 706 l 218 706 l 218 748 l 250 748 q 349 770 319 748 q 379 831 379 793 q 352 889 379 866 q 275 911 324 911 q 215 900 241 911 q 174 869 189 888 q 152 815 159 850 m 1035 962 l 404 -16 l 323 -16 l 953 962 l 1035 962 m 1040 492 l 1120 492 l 1120 211 l 1225 211 l 1225 159 l 1120 159 l 1120 0 l 1037 0 l 1037 159 l 774 159 l 774 225 l 1040 492 m 1037 211 l 1037 417 l 831 211 l 1037 211 z "},"₣":{"ha":889,"x_min":74,"x_max":885,"o":"m 316 252 l 434 252 l 434 186 l 316 186 l 316 146 q 325 90 316 106 q 350 65 333 74 q 409 57 366 57 l 434 57 l 434 0 l 74 0 l 74 57 l 97 57 q 157 65 140 57 q 181 91 174 73 q 189 153 189 108 l 189 186 l 74 186 l 74 252 l 189 252 l 189 797 q 182 856 189 839 q 159 881 174 873 q 106 888 144 888 l 74 888 l 74 946 l 798 946 l 885 698 l 826 675 q 753 800 789 762 q 669 854 717 838 q 520 871 622 871 l 316 871 l 316 507 l 409 507 q 514 522 482 507 q 563 567 546 536 q 580 654 580 597 l 580 680 l 646 680 l 646 264 l 580 264 l 580 301 q 564 385 580 355 q 519 428 547 414 q 419 441 491 441 l 316 441 l 316 252 z "},"Ğ":{"ha":1111,"x_min":73,"x_max":1064,"o":"m 812 946 l 861 946 l 939 654 l 878 633 q 737 831 817 772 q 557 890 658 890 q 315 770 413 890 q 218 484 218 650 q 268 264 218 364 q 401 113 317 165 q 578 60 484 60 q 693 82 638 60 q 781 135 747 104 q 815 186 806 158 q 823 263 824 214 l 823 308 q 811 384 823 361 q 775 416 798 406 q 680 423 758 423 l 680 480 l 1064 480 l 1064 423 l 1033 423 q 978 415 993 423 q 957 391 964 408 q 950 328 950 375 l 950 0 l 883 0 l 847 83 q 726 18 790 41 q 535 -16 629 -16 q 209 124 345 -16 q 73 473 73 264 q 210 821 73 680 q 540 962 348 962 q 635 953 588 962 q 720 926 682 943 q 788 884 749 913 l 812 946 m 328 1154 l 360 1179 q 557 1107 447 1107 q 666 1128 612 1107 q 753 1179 720 1149 l 784 1154 q 689 1053 753 1092 q 553 1013 626 1013 q 459 1030 504 1013 q 381 1078 414 1048 q 328 1154 349 1109 z "},"ğ":{"ha":750,"x_min":47,"x_max":752,"o":"m 574 601 q 636 654 605 637 q 694 671 668 671 q 735 656 719 671 q 752 621 752 642 q 737 584 752 599 q 699 569 722 569 q 673 572 690 569 q 642 577 654 577 q 606 562 625 577 q 648 442 648 511 q 570 280 648 349 q 371 212 491 212 q 237 239 304 212 q 186 200 193 208 q 177 176 177 189 q 197 143 177 156 q 299 115 223 126 l 495 85 q 626 52 560 75 q 721 -10 692 28 q 751 -101 751 -48 q 668 -244 751 -191 q 356 -313 563 -313 q 180 -290 248 -313 q 75 -224 112 -267 q 47 -161 47 -194 q 75 -79 47 -119 q 202 35 102 -39 q 110 73 138 51 q 75 136 75 100 q 81 169 75 153 q 102 199 87 184 q 155 241 117 214 q 190 267 180 258 q 115 346 140 302 q 90 441 90 389 q 157 592 90 528 q 374 671 237 671 q 481 655 435 671 q 574 601 526 640 m 368 608 q 256 559 302 608 q 210 440 210 511 q 231 354 210 393 q 290 294 252 316 q 370 272 328 272 q 450 294 412 272 q 509 355 488 317 q 530 440 530 393 q 485 561 530 515 q 368 608 439 608 m 260 19 q 174 -71 195 -37 q 153 -138 153 -106 q 174 -190 153 -165 q 247 -232 195 -216 q 376 -248 298 -248 q 535 -228 469 -248 q 629 -177 601 -208 q 650 -119 650 -153 q 633 -71 650 -91 q 568 -37 616 -52 q 479 -16 520 -22 l 260 19 m 171 929 l 203 955 q 401 882 290 882 q 509 903 455 882 q 596 955 564 924 l 627 929 q 533 828 596 867 q 397 789 469 789 q 302 806 347 789 q 225 854 258 823 q 171 929 192 884 z "},"İ":{"ha":472,"x_min":55,"x_max":417,"o":"m 55 946 l 417 946 l 417 888 l 389 888 q 332 878 350 888 q 307 847 315 867 q 298 769 298 827 l 298 159 q 307 94 298 113 q 332 66 316 75 q 389 57 348 57 l 417 57 l 417 0 l 55 0 l 55 57 l 85 57 q 141 66 125 57 q 165 93 158 75 q 173 159 173 110 l 173 783 q 165 853 173 836 q 141 880 158 871 q 85 888 125 888 l 55 888 l 55 946 m 236 1167 q 295 1143 271 1167 q 319 1085 319 1119 q 295 1026 319 1050 q 236 1002 271 1002 q 177 1026 201 1002 q 153 1085 153 1050 q 177 1143 153 1119 q 236 1167 201 1167 z "},"Ş":{"ha":917,"x_min":81,"x_max":859,"o":"m 703 946 l 751 946 l 824 654 l 762 635 q 603 829 702 758 q 422 888 522 888 q 315 866 363 888 q 244 811 268 845 q 220 742 220 777 q 239 680 220 710 q 294 628 257 650 q 416 580 332 605 l 593 528 q 688 491 626 518 q 785 434 750 464 q 839 360 819 404 q 859 265 859 316 q 760 68 859 153 q 505 -16 661 -16 q 360 7 424 -16 q 222 90 296 31 l 191 0 l 144 0 l 81 340 l 144 353 q 236 193 178 258 q 362 93 293 127 q 504 60 432 60 q 675 119 602 60 q 736 235 736 168 q 692 336 736 297 q 532 410 647 376 l 362 458 q 161 564 220 500 q 103 712 103 629 q 141 832 103 777 q 258 925 179 888 q 430 962 336 962 q 581 935 509 962 q 674 881 631 916 l 703 946 m 517 0 l 499 -59 q 532 -57 527 -57 q 603 -72 570 -57 q 641 -105 627 -83 q 655 -159 655 -128 q 620 -245 655 -212 q 526 -278 585 -278 q 425 -249 467 -278 q 393 -200 393 -228 q 402 -175 393 -185 q 428 -165 412 -165 q 454 -172 444 -165 q 471 -199 464 -179 q 488 -228 481 -222 q 525 -240 504 -240 q 571 -219 552 -240 q 590 -165 590 -199 q 570 -113 590 -131 q 507 -94 549 -94 q 440 -108 479 -94 l 475 0 l 517 0 z "},"ş":{"ha":722,"x_min":66,"x_max":655,"o":"m 509 654 l 557 654 l 618 447 l 557 427 q 454 558 520 510 q 320 606 388 606 q 235 580 268 606 q 203 522 203 555 q 227 468 203 490 q 330 416 250 445 l 463 369 q 615 283 574 329 q 655 179 655 237 q 625 84 655 130 q 539 11 595 38 q 409 -16 482 -16 q 214 49 295 -16 l 199 0 l 151 0 l 66 222 l 128 246 q 245 108 190 149 q 410 50 321 50 q 507 82 469 50 q 545 152 545 113 q 522 210 545 184 q 428 260 497 236 l 271 317 q 131 397 170 354 q 92 497 92 441 q 156 618 92 566 q 319 671 220 671 q 411 657 370 671 q 491 614 452 644 l 509 654 m 395 0 l 377 -59 q 410 -57 405 -57 q 481 -72 448 -57 q 519 -105 505 -83 q 533 -159 533 -128 q 498 -245 533 -212 q 404 -278 463 -278 q 302 -249 345 -278 q 271 -200 271 -228 q 280 -175 271 -185 q 306 -165 290 -165 q 332 -172 321 -165 q 349 -199 342 -179 q 366 -228 359 -222 q 403 -240 382 -240 q 449 -219 430 -240 q 468 -165 468 -199 q 448 -113 468 -131 q 385 -94 427 -94 q 318 -108 357 -94 l 353 0 l 395 0 z "},"Ć":{"ha":1027,"x_min":75,"x_max":982,"o":"m 819 946 l 868 946 l 954 631 l 891 613 q 814 760 840 722 q 706 855 770 820 q 563 890 641 890 q 394 841 471 890 q 270 697 317 792 q 222 484 222 602 q 270 266 222 361 q 401 119 319 170 q 580 67 484 67 q 764 119 670 67 q 928 263 859 170 l 982 226 q 891 120 940 163 q 730 17 814 50 q 547 -16 647 -16 q 189 147 327 -16 q 75 470 75 283 q 138 719 75 608 q 312 897 201 831 q 551 962 423 962 q 679 944 620 962 q 798 884 737 925 l 819 946 m 455 1013 l 455 1037 l 581 1129 q 688 1177 645 1177 q 723 1162 709 1177 q 736 1126 736 1147 q 718 1082 736 1099 q 649 1054 699 1065 l 455 1013 z "},"ć":{"ha":722,"x_min":57,"x_max":693,"o":"m 650 189 l 693 154 q 387 -16 566 -16 q 153 83 248 -16 q 57 329 57 182 q 101 506 57 427 q 225 627 146 584 q 406 671 304 671 q 601 613 523 671 q 679 498 679 556 q 661 450 679 467 q 619 433 642 433 q 595 439 607 433 q 572 458 584 445 q 552 496 566 465 q 524 549 534 536 q 472 592 503 576 q 403 608 441 608 q 296 576 345 608 q 218 482 247 544 q 189 334 189 420 q 260 121 189 200 q 408 54 322 54 q 487 67 447 54 q 564 106 528 80 q 650 189 590 124 m 310 793 l 310 817 l 435 909 q 543 957 500 957 q 577 942 564 957 q 591 906 591 928 q 572 862 591 880 q 504 834 553 845 l 310 793 z "},"Č":{"ha":1027,"x_min":75,"x_max":982,"o":"m 819 946 l 868 946 l 954 631 l 891 613 q 814 760 840 722 q 706 855 770 820 q 563 890 641 890 q 394 841 471 890 q 270 697 317 792 q 222 484 222 602 q 270 266 222 361 q 401 119 319 170 q 580 67 484 67 q 764 119 670 67 q 928 263 859 170 l 982 226 q 891 120 940 163 q 730 17 814 50 q 547 -16 647 -16 q 189 147 327 -16 q 75 470 75 283 q 138 719 75 608 q 312 897 201 831 q 551 962 423 962 q 679 944 620 962 q 798 884 737 925 l 819 946 m 568 1013 l 371 1143 l 389 1177 l 568 1114 l 747 1177 l 765 1143 l 568 1013 z "},"č":{"ha":722,"x_min":57,"x_max":693,"o":"m 650 189 l 693 154 q 387 -16 566 -16 q 153 83 248 -16 q 57 329 57 182 q 101 506 57 427 q 225 627 146 584 q 406 671 304 671 q 601 613 523 671 q 679 498 679 556 q 661 450 679 467 q 619 433 642 433 q 595 439 607 433 q 572 458 584 445 q 552 496 566 465 q 524 549 534 536 q 472 592 503 576 q 403 608 441 608 q 296 576 345 608 q 218 482 247 544 q 189 334 189 420 q 260 121 189 200 q 408 54 322 54 q 487 67 447 54 q 564 106 528 80 q 650 189 590 124 m 393 769 l 197 899 l 215 933 l 393 870 l 572 933 l 591 899 l 393 769 z "},"đ":{"ha":861,"x_min":56,"x_max":822,"o":"m 704 804 l 822 804 l 822 748 l 704 748 l 704 172 q 707 103 704 115 q 730 67 713 77 q 793 57 746 57 l 822 57 l 822 0 l 587 -11 l 587 97 q 459 9 519 35 q 340 -16 400 -16 q 137 82 218 -16 q 56 320 56 181 q 99 502 56 419 q 212 627 142 584 q 367 671 283 671 q 486 648 431 671 q 587 581 541 626 l 587 748 l 321 747 l 321 804 l 587 804 l 587 880 l 473 880 l 473 938 q 557 954 519 942 q 653 995 595 966 l 704 995 l 704 804 m 587 164 l 587 420 q 566 510 587 475 q 498 571 545 545 q 401 597 451 597 q 293 565 342 597 q 215 472 243 532 q 186 325 186 411 q 213 184 186 243 q 283 94 239 125 q 373 63 327 63 q 476 89 418 63 q 587 164 534 115 z "},"¯":{"ha":694,"x_min":-8,"x_max":703,"o":"m -8 1082 l 703 1082 l 703 1013 l -8 1013 l -8 1082 z "},"·":{"ha":361,"x_min":97,"x_max":264,"o":"m 180 580 q 239 556 215 580 q 264 498 264 532 q 239 439 264 463 q 180 415 215 415 q 121 439 146 415 q 97 498 97 463 q 121 556 97 532 q 180 580 146 580 z "},"":{"ha":517,"x_min":31,"x_max":482,"o":"m 297 954 l 377 954 l 377 673 l 482 673 l 482 621 l 377 621 l 377 462 l 294 462 l 294 621 l 31 621 l 31 687 l 297 954 m 294 673 l 294 879 l 88 673 l 294 673 z "},"Ă":{"ha":945,"x_min":2,"x_max":941,"o":"m 418 946 l 530 946 l 823 155 q 867 76 845 96 q 926 57 889 57 l 941 57 l 941 0 l 604 0 l 604 57 q 636 58 621 58 q 679 65 669 58 q 699 98 699 78 q 680 168 699 112 l 617 351 l 274 351 l 201 146 q 189 102 189 114 q 196 78 189 88 q 216 63 203 68 q 255 58 228 58 q 285 57 273 58 l 285 0 l 2 0 l 2 57 q 59 65 41 57 q 89 90 76 73 q 123 163 102 107 l 418 946 m 299 417 l 591 417 l 445 824 l 299 417 m 244 1154 l 277 1180 q 474 1107 363 1107 q 583 1128 528 1107 q 669 1180 637 1149 l 701 1154 q 606 1053 669 1093 q 470 1014 543 1014 q 376 1031 420 1014 q 298 1079 331 1048 q 244 1154 265 1109 z "},"ă":{"ha":806,"x_min":54,"x_max":808,"o":"m 538 393 l 538 467 q 496 574 538 542 q 377 606 454 606 q 311 597 339 606 q 265 572 282 588 q 239 536 248 556 q 223 478 236 528 q 160 417 208 417 q 116 435 133 417 q 100 484 100 453 q 133 571 100 528 q 234 643 166 614 q 395 671 302 671 q 544 644 482 671 q 635 567 606 617 q 655 441 655 532 l 655 180 q 659 107 655 124 q 685 63 666 78 q 733 49 703 49 q 808 64 764 49 l 808 5 q 707 -12 751 -12 q 626 2 659 -12 q 572 42 593 16 q 545 104 551 68 q 397 14 463 40 q 264 -12 332 -12 q 113 39 171 -12 q 54 159 54 90 q 76 237 54 200 q 141 303 97 275 q 278 353 184 332 q 538 393 372 375 m 538 334 q 343 302 380 311 q 237 264 269 285 q 192 221 205 244 q 178 171 178 197 q 194 120 178 144 q 237 81 209 95 q 296 66 264 66 q 395 87 340 66 q 538 170 451 109 l 538 334 m 174 929 l 207 955 q 404 882 294 882 q 513 903 458 882 q 600 955 567 924 l 631 929 q 536 828 600 867 q 400 789 473 789 q 306 806 351 789 q 228 854 261 823 q 174 929 195 884 z "},"Ą":{"ha":945,"x_min":2,"x_max":941,"o":"m 418 946 l 530 946 l 823 155 q 867 76 845 96 q 926 57 889 57 l 941 57 l 941 0 l 604 0 l 604 57 q 636 58 621 58 q 679 65 669 58 q 699 98 699 78 q 680 168 699 112 l 617 351 l 274 351 l 201 146 q 189 102 189 114 q 196 78 189 88 q 216 63 203 68 q 255 58 228 58 q 285 57 273 58 l 285 0 l 2 0 l 2 57 q 59 65 41 57 q 89 90 76 73 q 123 163 102 107 l 418 946 m 299 417 l 591 417 l 445 824 l 299 417 m 796 0 q 752 -48 770 -19 q 740 -88 740 -68 q 757 -129 740 -113 q 797 -146 774 -146 q 846 -133 818 -146 q 899 -95 873 -120 l 922 -124 q 845 -180 874 -165 q 764 -201 801 -201 q 700 -175 726 -201 q 675 -111 675 -149 q 697 -45 675 -80 q 745 0 713 -22 l 796 0 z "},"ą":{"ha":806,"x_min":54,"x_max":822,"o":"m 538 393 l 538 467 q 496 574 538 542 q 377 606 454 606 q 311 597 339 606 q 265 572 282 588 q 239 536 248 556 q 223 478 236 528 q 160 417 208 417 q 116 435 133 417 q 100 484 100 453 q 133 571 100 528 q 234 643 166 614 q 395 671 302 671 q 544 644 482 671 q 635 567 606 617 q 655 441 655 532 l 655 180 q 659 107 655 124 q 685 63 666 78 q 733 49 703 49 q 808 64 764 49 l 808 5 q 707 -12 751 -12 q 626 2 659 -12 q 572 42 593 16 q 545 104 551 68 q 397 14 463 40 q 264 -12 332 -12 q 113 39 171 -12 q 54 159 54 90 q 76 237 54 200 q 141 303 97 275 q 278 353 184 332 q 538 393 372 375 m 538 334 q 343 302 380 311 q 237 264 269 285 q 192 221 205 244 q 178 171 178 197 q 194 120 178 144 q 237 81 209 95 q 296 66 264 66 q 395 87 340 66 q 538 170 451 109 l 538 334 m 696 0 q 652 -48 671 -19 q 640 -88 640 -68 q 657 -129 640 -113 q 697 -146 674 -146 q 746 -133 718 -146 q 800 -95 774 -120 l 822 -124 q 745 -180 774 -165 q 664 -201 701 -201 q 601 -175 626 -201 q 575 -111 575 -149 q 597 -45 575 -80 q 645 0 613 -22 l 696 0 z "},"Ď":{"ha":1111,"x_min":66,"x_max":1039,"o":"m 66 888 l 66 946 l 404 946 q 727 917 635 946 q 946 758 862 874 q 1039 461 1039 629 q 993 249 1039 347 q 873 92 947 151 q 724 21 811 41 q 549 0 637 0 l 66 0 l 66 57 l 105 57 l 118 56 q 159 66 143 56 q 182 94 175 77 q 186 153 186 106 l 186 786 q 180 855 186 840 q 149 884 170 876 q 66 888 137 888 m 313 73 l 517 73 q 619 84 548 73 q 720 111 690 95 q 807 185 765 134 q 872 308 849 236 q 895 471 895 379 q 872 630 895 563 q 803 751 849 697 q 702 832 758 804 q 576 868 646 861 q 452 871 539 871 l 313 871 l 313 73 m 539 994 l 342 1124 l 361 1158 l 539 1095 l 718 1158 l 736 1124 l 539 994 z "},"ď":{"ha":926,"x_min":56,"x_max":928,"o":"m 473 880 l 473 938 q 557 954 519 942 q 653 995 595 966 l 704 995 l 704 172 q 707 103 704 115 q 730 67 713 77 q 793 57 746 57 l 822 57 l 822 0 l 587 -11 l 587 97 q 459 9 519 35 q 340 -16 400 -16 q 137 82 218 -16 q 56 320 56 181 q 99 502 56 419 q 212 627 142 584 q 367 671 283 671 q 486 648 431 671 q 587 581 541 626 l 587 880 l 473 880 m 587 164 l 587 420 q 566 510 587 475 q 498 571 545 545 q 401 597 451 597 q 293 565 342 597 q 215 472 243 532 q 186 325 186 411 q 213 184 186 243 q 283 94 239 125 q 373 63 327 63 q 476 89 418 63 q 587 164 534 115 m 767 629 l 734 669 q 859 836 859 771 q 857 859 859 844 q 821 850 837 850 q 772 869 789 850 q 754 917 754 888 q 774 965 754 943 q 827 988 794 988 q 899 955 869 988 q 928 869 928 922 q 903 771 928 823 q 767 629 878 719 z "},"Đ":{"ha":1111,"x_min":66,"x_max":1039,"o":"m 186 440 l 66 440 l 66 506 l 186 506 l 186 786 q 180 855 186 840 q 149 884 170 876 q 66 888 137 888 l 66 946 l 404 946 q 727 917 635 946 q 946 758 862 874 q 1039 461 1039 629 q 993 249 1039 347 q 873 92 947 151 q 724 21 811 41 q 549 0 637 0 l 66 0 l 66 57 l 105 57 l 118 56 q 159 66 143 56 q 182 94 175 77 q 186 153 186 106 l 186 440 m 313 440 l 313 73 l 517 73 q 619 84 548 73 q 720 111 690 95 q 807 185 765 134 q 872 308 849 236 q 895 471 895 379 q 872 630 895 563 q 803 751 849 697 q 702 832 758 804 q 576 868 646 861 q 452 871 539 871 l 313 871 l 313 506 l 604 506 l 604 440 l 313 440 z "},"Ę":{"ha":1000,"x_min":66,"x_max":970,"o":"m 66 946 l 836 946 l 924 697 l 865 675 q 816 771 842 736 q 752 830 789 806 q 678 863 715 854 q 542 871 640 871 l 313 871 l 313 524 l 427 524 q 522 546 490 524 q 566 599 554 567 q 576 682 576 623 l 576 697 l 642 697 l 642 282 l 576 282 l 576 318 q 569 387 576 366 q 543 426 562 408 q 502 452 524 445 q 427 458 479 458 l 313 458 l 313 151 q 317 92 313 102 q 332 77 321 81 q 387 72 342 72 l 529 72 q 714 100 648 72 q 832 188 781 129 q 909 318 872 234 l 970 296 l 865 0 l 66 0 l 66 57 l 94 57 q 153 63 141 57 q 180 92 170 72 q 186 151 186 105 l 186 802 q 178 861 186 846 q 147 884 169 876 q 66 888 136 888 l 66 946 m 762 0 q 718 -48 736 -19 q 706 -88 706 -68 q 723 -129 706 -113 q 763 -146 740 -146 q 812 -133 784 -146 q 865 -95 840 -120 l 888 -124 q 811 -180 840 -165 q 730 -201 767 -201 q 666 -175 692 -201 q 641 -111 641 -149 q 663 -45 641 -80 q 711 0 679 -22 l 762 0 z "},"ę":{"ha":722,"x_min":58,"x_max":674,"o":"m 631 175 l 674 140 q 578 46 625 81 q 490 -2 532 12 q 393 -16 449 -16 q 224 24 294 -16 q 101 146 144 71 q 58 324 58 222 q 100 507 58 431 q 215 627 141 583 q 387 671 290 671 q 513 648 460 671 q 604 579 567 625 q 659 475 642 534 q 669 385 668 440 l 190 385 q 188 336 188 352 q 218 183 188 250 q 297 85 248 117 q 408 54 346 54 q 511 78 461 54 q 631 175 560 103 m 544 449 q 515 541 534 511 q 462 589 496 571 q 385 606 428 606 q 305 589 342 606 q 243 540 268 571 q 200 449 218 509 l 544 449 m 406 0 q 362 -48 380 -19 q 350 -88 350 -68 q 367 -129 350 -113 q 407 -146 384 -146 q 456 -133 428 -146 q 509 -95 484 -120 l 532 -124 q 455 -180 484 -165 q 374 -201 411 -201 q 310 -175 336 -201 q 285 -111 285 -149 q 307 -45 285 -80 q 355 0 323 -22 l 406 0 z "},"Ě":{"ha":1000,"x_min":66,"x_max":970,"o":"m 66 946 l 836 946 l 924 697 l 865 675 q 816 771 842 736 q 752 830 789 806 q 678 863 715 854 q 542 871 640 871 l 313 871 l 313 524 l 427 524 q 522 546 490 524 q 566 599 554 567 q 576 682 576 623 l 576 697 l 642 697 l 642 282 l 576 282 l 576 318 q 569 387 576 366 q 543 426 562 408 q 502 452 524 445 q 427 458 479 458 l 313 458 l 313 151 q 317 92 313 102 q 332 77 321 81 q 387 72 342 72 l 529 72 q 714 100 648 72 q 832 188 781 129 q 909 318 872 234 l 970 296 l 865 0 l 66 0 l 66 57 l 94 57 q 153 63 141 57 q 180 92 170 72 q 186 151 186 105 l 186 802 q 178 861 186 846 q 147 884 169 876 q 66 888 136 888 l 66 946 m 499 994 l 302 1124 l 321 1158 l 499 1095 l 678 1158 l 696 1124 l 499 994 z "},"ě":{"ha":722,"x_min":58,"x_max":674,"o":"m 631 175 l 674 140 q 578 46 625 81 q 490 -2 532 12 q 393 -16 449 -16 q 224 24 294 -16 q 101 146 144 71 q 58 324 58 222 q 100 507 58 431 q 215 627 141 583 q 387 671 290 671 q 513 648 460 671 q 604 579 567 625 q 659 475 642 534 q 669 385 668 440 l 190 385 q 188 336 188 352 q 218 183 188 250 q 297 85 248 117 q 408 54 346 54 q 511 78 461 54 q 631 175 560 103 m 544 449 q 515 541 534 511 q 462 589 496 571 q 385 606 428 606 q 305 589 342 606 q 243 540 268 571 q 200 449 218 509 l 544 449 m 378 769 l 181 899 l 199 933 l 378 870 l 557 933 l 575 899 l 378 769 z "},"Ĳ":{"ha":1305,"x_min":55,"x_max":1251,"o":"m 55 946 l 417 946 l 417 888 l 389 888 q 317 864 336 888 q 298 769 298 840 l 298 159 q 317 78 298 100 q 389 57 336 57 l 417 57 l 417 0 l 55 0 l 55 57 l 85 57 q 154 75 136 57 q 173 159 173 93 l 173 783 q 157 868 173 847 q 85 888 141 888 l 55 888 l 55 946 m 888 946 l 1251 946 l 1251 888 l 1215 888 q 1152 873 1171 888 q 1132 808 1132 857 l 1132 309 q 1091 124 1132 188 q 971 22 1050 61 q 789 -16 893 -16 q 555 61 642 -16 q 469 238 469 138 q 492 317 469 290 q 550 345 515 345 q 596 323 580 345 q 613 272 613 300 q 607 233 613 262 q 601 191 601 203 q 653 98 601 138 q 784 58 706 58 q 937 108 869 58 q 1006 292 1006 157 l 1006 787 q 987 870 1006 852 q 911 888 969 888 l 888 888 l 888 946 z "},"ĳ":{"ha":833,"x_min":45,"x_max":721,"o":"m 218 977 q 273 954 250 977 q 296 899 296 931 q 273 843 296 866 q 218 820 250 820 q 162 843 185 820 q 139 899 139 866 q 162 954 139 931 q 218 977 186 977 m 643 977 q 697 954 674 977 q 721 899 721 932 q 698 843 721 866 q 643 820 675 820 q 587 843 610 820 q 564 899 564 866 q 588 954 564 932 q 643 977 611 977 m 45 557 l 45 613 q 227 671 142 623 l 276 671 l 276 158 q 281 89 276 104 q 302 65 286 74 q 360 57 319 57 l 392 57 l 392 0 l 45 0 l 45 57 l 73 57 q 133 65 116 57 q 156 89 151 73 q 162 158 162 105 l 162 557 l 45 557 m 469 557 l 469 612 q 652 671 557 618 l 701 671 l 701 -68 q 634 -249 701 -178 q 454 -320 568 -320 q 339 -290 384 -320 q 294 -227 294 -260 q 312 -182 294 -199 q 357 -164 329 -164 q 419 -198 385 -164 q 503 -250 471 -250 q 587 -112 587 -250 l 587 557 l 469 557 z "},"Ĺ":{"ha":833,"x_min":64,"x_max":850,"o":"m 64 946 l 431 946 l 431 888 l 397 888 q 341 881 357 888 q 317 859 325 873 q 310 808 310 845 l 310 149 q 313 94 310 103 q 331 77 317 82 q 386 73 340 73 l 437 73 q 589 98 524 73 q 700 172 653 123 q 790 317 747 220 l 850 296 l 745 0 l 64 0 l 64 57 l 94 57 q 152 64 137 57 q 175 89 167 72 q 183 149 183 106 l 183 792 q 176 858 183 841 q 154 881 168 874 q 94 888 140 888 l 64 888 l 64 946 m 243 1018 l 243 1042 l 369 1134 q 477 1181 433 1181 q 511 1167 497 1181 q 525 1131 525 1152 q 506 1087 525 1104 q 437 1059 487 1069 l 243 1018 z "},"ĺ":{"ha":416,"x_min":43,"x_max":392,"o":"m 43 882 l 43 938 q 222 995 135 945 l 273 995 l 273 160 q 279 94 273 107 q 305 66 288 75 q 370 57 322 57 l 392 57 l 392 0 l 43 0 l 43 57 l 78 57 q 128 67 111 57 q 152 95 144 77 q 159 165 159 113 l 159 882 l 43 882 m 75 1021 l 75 1044 l 201 1137 q 309 1184 265 1184 q 343 1170 329 1184 q 357 1133 357 1155 q 338 1089 357 1107 q 269 1061 319 1072 l 75 1021 z "},"Ľ":{"ha":833,"x_min":64,"x_max":850,"o":"m 64 946 l 431 946 l 431 888 l 397 888 q 341 881 357 888 q 317 859 325 873 q 310 808 310 845 l 310 149 q 313 94 310 103 q 331 77 317 82 q 386 73 340 73 l 437 73 q 589 98 524 73 q 700 172 653 123 q 790 317 747 220 l 850 296 l 745 0 l 64 0 l 64 57 l 94 57 q 152 64 137 57 q 175 89 167 72 q 183 149 183 106 l 183 792 q 176 858 183 841 q 154 881 168 874 q 94 888 140 888 l 64 888 l 64 946 m 519 603 l 486 644 q 611 810 611 745 q 608 833 611 818 q 572 824 589 824 q 524 843 541 824 q 506 891 506 863 q 526 940 506 917 q 579 962 546 962 q 650 929 621 962 q 680 844 680 896 q 655 745 680 798 q 519 603 629 693 z "},"ľ":{"ha":496,"x_min":43,"x_max":498,"o":"m 43 882 l 43 938 q 222 995 135 945 l 273 995 l 273 160 q 279 94 273 107 q 305 66 288 75 q 370 57 322 57 l 392 57 l 392 0 l 43 0 l 43 57 l 78 57 q 128 67 111 57 q 152 95 144 77 q 159 165 159 113 l 159 882 l 43 882 m 336 629 l 303 669 q 429 836 429 771 q 426 859 429 844 q 390 850 406 850 q 341 869 359 850 q 323 917 323 888 q 343 965 323 943 q 397 988 363 988 q 468 955 438 988 q 498 869 498 922 q 472 771 498 823 q 336 629 447 719 z "},"Ŀ":{"ha":833,"x_min":64,"x_max":850,"o":"m 64 946 l 431 946 l 431 888 l 397 888 q 341 881 357 888 q 317 859 325 873 q 310 808 310 845 l 310 149 q 313 94 310 103 q 331 77 317 82 q 386 73 340 73 l 437 73 q 589 98 524 73 q 700 172 653 123 q 790 317 747 220 l 850 296 l 745 0 l 64 0 l 64 57 l 94 57 q 152 64 137 57 q 175 89 167 72 q 183 149 183 106 l 183 792 q 176 858 183 841 q 154 881 168 874 q 94 888 140 888 l 64 888 l 64 946 m 450 586 q 509 562 485 586 q 534 504 534 538 q 509 445 534 469 q 450 421 485 421 q 391 445 416 421 q 367 504 367 469 q 391 562 367 538 q 450 586 416 586 z "},"ŀ":{"ha":467,"x_min":43,"x_max":490,"o":"m 43 882 l 43 938 q 222 995 135 945 l 273 995 l 273 160 q 279 94 273 107 q 305 66 288 75 q 370 57 322 57 l 392 57 l 392 0 l 43 0 l 43 57 l 78 57 q 128 67 111 57 q 152 95 144 77 q 159 165 159 113 l 159 882 l 43 882 m 407 586 q 466 562 441 586 q 490 504 490 538 q 466 445 490 469 q 407 421 441 421 q 348 445 372 421 q 323 504 323 469 q 348 562 323 538 q 407 586 372 586 z "},"Ń":{"ha":1027,"x_min":60,"x_max":979,"o":"m 60 946 l 350 946 l 781 237 l 781 777 q 771 846 781 825 q 743 878 762 867 q 686 888 724 888 l 662 888 l 662 946 l 979 946 l 979 888 l 962 888 q 905 882 920 888 q 873 847 884 872 q 863 777 863 822 l 863 0 l 781 0 l 262 852 l 262 177 q 265 109 262 121 q 282 80 270 93 q 312 62 295 67 q 380 57 329 58 l 380 0 l 60 0 l 60 57 l 77 57 q 143 66 125 57 q 170 99 160 76 q 179 177 179 122 l 179 777 q 176 845 179 833 q 153 878 170 868 q 84 888 136 888 l 60 888 l 60 946 m 398 1018 l 398 1042 l 524 1134 q 631 1181 588 1181 q 666 1167 652 1181 q 680 1131 680 1152 q 661 1087 680 1104 q 592 1059 642 1069 l 398 1018 z "},"ń":{"ha":917,"x_min":51,"x_max":882,"o":"m 51 557 l 51 614 q 141 630 111 621 q 227 671 171 640 l 276 671 l 276 542 q 429 644 366 617 q 557 671 492 671 q 656 652 613 671 q 725 602 699 633 q 761 529 752 570 q 766 453 766 504 l 766 155 q 774 86 766 101 q 799 64 782 71 q 882 57 816 57 l 882 0 l 533 0 l 533 57 l 552 57 q 618 66 601 57 q 644 92 636 75 q 652 161 652 109 l 652 410 q 639 517 652 488 q 596 566 627 547 q 520 585 566 585 q 403 556 465 585 q 282 473 340 528 l 282 161 q 290 90 282 108 q 315 64 298 73 q 380 57 328 57 l 400 57 l 400 0 l 51 0 l 51 57 l 68 57 q 136 65 118 57 q 162 96 155 74 q 166 170 166 106 l 166 557 l 51 557 m 351 793 l 351 817 l 476 909 q 584 957 541 957 q 618 942 604 957 q 632 906 632 928 q 613 862 632 880 q 545 834 594 845 l 351 793 z "},"Ň":{"ha":1027,"x_min":60,"x_max":979,"o":"m 60 946 l 350 946 l 781 237 l 781 777 q 771 846 781 825 q 743 878 762 867 q 686 888 724 888 l 662 888 l 662 946 l 979 946 l 979 888 l 962 888 q 905 882 920 888 q 873 847 884 872 q 863 777 863 822 l 863 0 l 781 0 l 262 852 l 262 177 q 265 109 262 121 q 282 80 270 93 q 312 62 295 67 q 380 57 329 58 l 380 0 l 60 0 l 60 57 l 77 57 q 143 66 125 57 q 170 99 160 76 q 179 177 179 122 l 179 777 q 176 845 179 833 q 153 878 170 868 q 84 888 136 888 l 60 888 l 60 946 m 513 994 l 317 1124 l 335 1158 l 513 1095 l 692 1158 l 711 1124 l 513 994 z "},"ň":{"ha":917,"x_min":51,"x_max":882,"o":"m 51 557 l 51 614 q 141 630 111 621 q 227 671 171 640 l 276 671 l 276 542 q 429 644 366 617 q 557 671 492 671 q 656 652 613 671 q 725 602 699 633 q 761 529 752 570 q 766 453 766 504 l 766 155 q 774 86 766 101 q 799 64 782 71 q 882 57 816 57 l 882 0 l 533 0 l 533 57 l 552 57 q 618 66 601 57 q 644 92 636 75 q 652 161 652 109 l 652 410 q 639 517 652 488 q 596 566 627 547 q 520 585 566 585 q 403 556 465 585 q 282 473 340 528 l 282 161 q 290 90 282 108 q 315 64 298 73 q 380 57 328 57 l 400 57 l 400 0 l 51 0 l 51 57 l 68 57 q 136 65 118 57 q 162 96 155 74 q 166 170 166 106 l 166 557 l 51 557 m 458 769 l 261 899 l 279 933 l 458 870 l 637 933 l 655 899 l 458 769 z "},"ŉ":{"ha":1042,"x_min":-30,"x_max":1007,"o":"m 176 557 l 176 614 q 266 630 236 621 q 352 671 296 640 l 401 671 l 401 542 q 554 644 490 617 q 682 671 617 671 q 781 652 738 671 q 850 602 823 633 q 886 529 877 570 q 891 453 891 504 l 891 155 q 899 86 891 101 q 924 64 907 71 q 1007 57 941 57 l 1007 0 l 658 0 l 658 57 l 677 57 q 743 66 726 57 q 769 92 761 75 q 777 161 777 109 l 777 410 q 764 517 777 488 q 721 566 751 547 q 645 585 691 585 q 528 556 590 585 q 407 473 465 528 l 407 161 q 415 90 407 108 q 440 64 422 73 q 505 57 452 57 l 525 57 l 525 0 l 176 0 l 176 57 l 193 57 q 261 65 243 57 q 287 96 279 74 q 291 170 291 106 l 291 557 l 176 557 m 7 595 l -30 640 q 109 829 109 753 q 108 851 109 838 q 85 844 96 846 q 65 841 75 841 q 13 862 33 841 q -7 916 -7 883 q 17 971 -7 947 q 74 995 41 995 q 153 958 120 995 q 186 863 186 921 q 170 783 186 825 q 125 706 155 741 q 7 595 95 670 z "},"Ő":{"ha":1111,"x_min":73,"x_max":1038,"o":"m 569 962 q 803 900 699 962 q 977 726 916 833 q 1038 477 1038 618 q 902 121 1038 259 q 556 -16 766 -16 q 184 149 321 -16 q 73 472 73 284 q 136 723 73 612 q 315 898 199 833 q 569 962 431 962 m 569 889 q 387 841 463 889 q 266 698 311 792 q 220 465 220 604 q 265 241 220 333 q 386 100 310 149 q 557 52 462 52 q 724 99 651 52 q 844 250 796 147 q 891 478 891 353 q 844 711 891 606 q 736 846 803 802 q 569 889 669 889 m 491 1018 l 469 1033 l 517 1158 q 554 1224 537 1208 q 590 1241 570 1241 q 616 1231 606 1241 q 626 1208 626 1221 q 597 1141 626 1175 l 491 1018 m 671 1018 l 648 1033 l 697 1158 q 733 1224 716 1207 q 770 1240 750 1240 q 795 1231 785 1240 q 806 1208 806 1221 q 777 1141 806 1175 l 671 1018 z "},"ő":{"ha":778,"x_min":56,"x_max":722,"o":"m 393 671 q 565 629 492 671 q 680 509 638 588 q 722 328 722 429 q 679 146 722 226 q 562 25 636 67 q 385 -16 488 -16 q 138 86 220 -16 q 56 327 56 189 q 98 506 56 428 q 218 628 141 585 q 393 671 295 671 m 387 605 q 256 544 310 605 q 189 323 189 468 q 246 110 189 183 q 388 45 298 45 q 491 75 446 45 q 564 173 536 106 q 591 330 591 239 q 562 488 591 418 q 492 574 538 543 q 387 605 446 605 m 295 749 l 273 764 l 321 890 q 358 956 341 939 q 394 972 374 972 q 420 963 410 972 q 430 939 430 953 q 401 873 430 907 l 295 749 m 475 749 l 452 764 l 501 890 q 537 955 520 939 q 574 972 554 972 q 600 962 589 972 q 610 939 610 952 q 581 873 610 907 l 475 749 z "},"Ŕ":{"ha":1000,"x_min":67,"x_max":998,"o":"m 67 946 l 555 946 q 766 917 694 946 q 875 834 837 888 q 913 707 913 779 q 876 576 913 633 q 769 486 839 519 q 583 452 699 453 l 832 146 q 872 100 863 109 q 922 68 896 79 q 981 57 948 57 l 998 57 l 998 0 l 782 0 l 435 452 l 313 452 l 313 160 q 317 99 313 111 q 341 66 324 76 q 406 57 357 57 l 430 57 l 430 0 l 67 0 l 67 57 l 100 57 q 149 62 136 57 q 171 78 161 66 q 185 109 181 90 q 187 177 186 116 l 187 797 q 179 855 187 838 q 156 881 171 873 q 106 888 142 888 l 67 888 l 67 946 m 313 872 l 313 516 l 508 516 q 647 528 607 516 q 737 588 704 545 q 770 699 770 631 q 746 794 770 755 q 681 853 722 833 q 559 872 640 872 l 313 872 m 359 1018 l 359 1042 l 485 1134 q 593 1181 549 1181 q 627 1167 613 1181 q 641 1131 641 1152 q 622 1087 641 1104 q 553 1059 603 1069 l 359 1018 z "},"ŕ":{"ha":611,"x_min":49,"x_max":611,"o":"m 49 557 l 49 613 q 137 630 98 617 q 225 671 176 642 l 276 671 l 276 543 q 388 636 324 602 q 503 671 452 671 q 582 647 553 671 q 611 589 611 623 q 592 546 611 565 q 545 528 572 528 q 524 531 533 528 q 498 546 515 534 q 436 570 461 570 q 361 542 402 570 q 281 470 310 505 l 281 157 q 285 102 281 117 q 300 77 290 87 q 325 62 310 66 q 377 57 340 57 l 399 57 l 399 0 l 49 0 l 49 57 l 78 57 q 132 64 119 57 q 158 93 150 75 q 167 157 167 111 l 167 557 l 49 557 m 206 793 l 206 817 l 332 909 q 439 957 396 957 q 474 942 460 957 q 488 906 488 928 q 469 862 488 880 q 400 834 450 845 l 206 793 z "},"Ř":{"ha":1000,"x_min":67,"x_max":998,"o":"m 67 946 l 555 946 q 766 917 694 946 q 875 834 837 888 q 913 707 913 779 q 876 576 913 633 q 769 486 839 519 q 583 452 699 453 l 832 146 q 872 100 863 109 q 922 68 896 79 q 981 57 948 57 l 998 57 l 998 0 l 782 0 l 435 452 l 313 452 l 313 160 q 317 99 313 111 q 341 66 324 76 q 406 57 357 57 l 430 57 l 430 0 l 67 0 l 67 57 l 100 57 q 149 62 136 57 q 171 78 161 66 q 185 109 181 90 q 187 177 186 116 l 187 797 q 179 855 187 838 q 156 881 171 873 q 106 888 142 888 l 67 888 l 67 946 m 313 872 l 313 516 l 508 516 q 647 528 607 516 q 737 588 704 545 q 770 699 770 631 q 746 794 770 755 q 681 853 722 833 q 559 872 640 872 l 313 872 m 491 994 l 294 1124 l 313 1158 l 491 1095 l 670 1158 l 688 1124 l 491 994 z "},"ř":{"ha":611,"x_min":49,"x_max":611,"o":"m 49 557 l 49 613 q 137 630 98 617 q 225 671 176 642 l 276 671 l 276 543 q 388 636 324 602 q 503 671 452 671 q 582 647 553 671 q 611 589 611 623 q 592 546 611 565 q 545 528 572 528 q 524 531 533 528 q 498 546 515 534 q 436 570 461 570 q 361 542 402 570 q 281 470 310 505 l 281 157 q 285 102 281 117 q 300 77 290 87 q 325 62 310 66 q 377 57 340 57 l 399 57 l 399 0 l 49 0 l 49 57 l 78 57 q 132 64 119 57 q 158 93 150 75 q 167 157 167 111 l 167 557 l 49 557 m 306 769 l 109 899 l 127 933 l 306 870 l 485 933 l 503 899 l 306 769 z "},"Ś":{"ha":917,"x_min":81,"x_max":859,"o":"m 703 946 l 751 946 l 824 654 l 762 635 q 603 829 702 758 q 422 888 522 888 q 315 866 363 888 q 244 811 268 845 q 220 742 220 777 q 239 680 220 710 q 294 628 257 650 q 416 580 332 605 l 593 528 q 688 491 626 518 q 785 434 750 464 q 839 360 819 404 q 859 265 859 316 q 760 68 859 153 q 505 -16 661 -16 q 360 7 424 -16 q 222 90 296 31 l 191 0 l 144 0 l 81 340 l 144 353 q 236 193 178 258 q 362 93 293 127 q 504 60 432 60 q 675 119 602 60 q 736 235 736 168 q 692 336 736 297 q 532 410 647 376 l 362 458 q 161 564 220 500 q 103 712 103 629 q 141 832 103 777 q 258 925 179 888 q 430 962 336 962 q 581 935 509 962 q 674 881 631 916 l 703 946 m 342 1018 l 342 1042 l 468 1134 q 576 1181 532 1181 q 610 1167 596 1181 q 624 1131 624 1152 q 605 1087 624 1104 q 536 1059 586 1069 l 342 1018 z "},"ś":{"ha":722,"x_min":66,"x_max":655,"o":"m 509 654 l 557 654 l 618 447 l 557 427 q 454 558 520 510 q 320 606 388 606 q 235 580 268 606 q 203 522 203 555 q 227 468 203 490 q 330 416 250 445 l 463 369 q 615 283 574 329 q 655 179 655 237 q 625 84 655 130 q 539 11 595 38 q 409 -16 482 -16 q 214 49 295 -16 l 199 0 l 151 0 l 66 222 l 128 246 q 245 108 190 149 q 410 50 321 50 q 507 82 469 50 q 545 152 545 113 q 522 210 545 184 q 428 260 497 236 l 271 317 q 131 397 170 354 q 92 497 92 441 q 156 618 92 566 q 319 671 220 671 q 411 657 370 671 q 491 614 452 644 l 509 654 m 254 793 l 254 817 l 379 909 q 487 957 444 957 q 521 942 507 957 q 535 906 535 928 q 516 862 535 880 q 448 834 497 845 l 254 793 z "},"Ţ":{"ha":861,"x_min":-13,"x_max":874,"o":"m 85 978 l 132 978 l 139 946 l 720 946 l 725 978 l 774 978 l 874 700 l 813 678 q 715 830 774 780 q 554 880 656 880 q 501 872 508 880 q 494 819 494 865 l 494 162 q 513 74 494 91 q 614 57 532 57 l 614 0 l 249 0 l 249 57 q 329 63 310 57 q 357 88 347 68 q 367 157 367 107 l 367 827 q 360 872 367 864 q 317 880 353 880 q 156 837 221 880 q 48 678 92 793 l -13 700 l 85 978 m 397 -330 l 370 -297 q 446 -186 446 -230 q 446 -170 446 -180 q 412 -178 427 -178 q 366 -160 380 -178 q 352 -123 352 -143 q 371 -83 352 -100 q 418 -66 390 -66 q 482 -93 455 -66 q 509 -160 509 -120 q 397 -330 509 -246 z "},"ţ":{"ha":528,"x_min":45,"x_max":509,"o":"m 229 885 l 277 885 l 277 654 l 478 654 l 478 587 l 277 587 l 277 178 q 299 81 277 110 q 366 52 322 52 q 509 110 431 52 l 509 44 q 330 -16 422 -16 q 230 10 273 -16 q 175 69 187 37 q 163 170 163 101 l 163 587 l 45 587 l 45 644 q 229 885 202 673 m 255 -330 l 227 -297 q 304 -186 304 -230 q 302 -170 304 -180 q 269 -178 284 -178 q 224 -160 238 -178 q 210 -123 210 -143 q 229 -83 210 -100 q 275 -66 248 -66 q 339 -93 313 -66 q 366 -160 366 -120 q 255 -330 366 -246 z "},"Ť":{"ha":861,"x_min":-13,"x_max":874,"o":"m 85 978 l 132 978 l 139 946 l 720 946 l 725 978 l 774 978 l 874 700 l 813 678 q 709 834 769 789 q 554 880 648 880 q 507 877 515 880 q 497 866 500 873 q 494 819 494 859 l 494 162 q 499 99 494 115 q 513 74 504 83 q 539 61 523 65 q 614 57 556 58 l 614 0 l 249 0 l 249 57 q 323 61 309 58 q 357 87 347 68 q 367 157 367 106 l 367 827 q 364 865 367 859 q 352 876 361 872 q 317 880 344 880 q 199 861 243 880 q 115 796 155 842 q 48 678 76 751 l -13 700 l 85 978 m 431 994 l 234 1124 l 252 1158 l 431 1095 l 610 1158 l 628 1124 l 431 994 z "},"ť":{"ha":524,"x_min":45,"x_max":516,"o":"m 393 705 l 370 743 q 459 868 459 817 q 457 887 459 874 q 427 880 441 880 q 385 897 398 880 q 372 936 372 915 q 389 977 372 959 q 432 995 407 995 q 491 967 467 995 q 516 897 516 940 q 495 817 516 860 q 393 705 475 773 m 229 885 l 277 885 l 277 654 l 479 654 l 479 587 l 277 587 l 277 178 q 300 81 277 110 q 367 52 323 52 q 509 110 431 52 l 509 44 q 330 -16 423 -16 q 231 10 274 -16 q 176 69 188 37 q 164 170 164 101 l 164 587 l 45 587 l 45 644 q 229 885 203 673 z "},"Ů":{"ha":1083,"x_min":53,"x_max":1030,"o":"m 53 946 l 418 946 l 418 888 l 394 888 q 330 880 349 888 q 308 857 315 873 q 300 791 300 840 l 300 366 q 328 197 300 252 q 419 104 355 142 q 560 67 484 67 q 707 107 637 67 q 804 202 776 147 q 831 376 831 257 l 831 785 q 823 850 831 830 q 796 879 814 869 q 740 888 778 888 l 713 888 l 713 946 l 1030 946 l 1030 888 l 1008 888 q 935 868 955 888 q 915 791 915 848 l 915 355 q 870 156 915 236 q 740 30 825 77 q 541 -16 654 -16 q 345 31 434 -16 q 215 150 256 79 q 173 328 173 220 l 173 791 q 165 854 173 836 q 141 880 157 872 q 87 888 125 888 l 53 888 l 53 946 m 541 1242 q 632 1204 595 1242 q 669 1114 669 1166 q 632 1022 669 1060 q 541 985 594 985 q 451 1022 488 985 q 414 1114 414 1060 q 451 1204 414 1166 q 541 1242 488 1242 m 541 1194 q 485 1171 508 1194 q 461 1114 461 1147 q 485 1056 461 1080 q 541 1032 508 1032 q 598 1056 574 1032 q 622 1114 622 1080 q 598 1171 622 1147 q 541 1194 574 1194 z "},"ů":{"ha":945,"x_min":14,"x_max":904,"o":"m 14 654 l 271 665 l 271 228 q 287 136 271 170 q 335 84 302 102 q 412 65 368 65 q 535 94 467 65 q 673 181 604 123 l 673 497 q 665 563 673 547 q 639 588 658 578 q 579 597 620 597 l 530 597 l 530 654 l 787 665 l 787 159 q 795 91 787 110 q 819 65 803 73 q 883 57 835 57 l 904 57 l 904 0 l 679 -12 l 679 114 q 517 12 586 40 q 376 -16 448 -16 q 284 -2 323 -16 q 216 41 245 12 q 171 109 186 69 q 155 195 155 149 l 155 503 q 148 561 155 545 q 123 588 140 578 q 76 597 106 597 l 14 597 l 14 654 m 456 1017 q 547 979 509 1017 q 584 888 584 941 q 546 797 584 835 q 456 760 509 760 q 366 797 403 760 q 328 888 328 835 q 366 979 328 941 q 456 1017 403 1017 m 456 969 q 399 945 422 969 q 376 888 376 922 q 399 831 376 854 q 456 807 422 807 q 513 831 489 807 q 536 888 536 854 q 513 945 536 922 q 456 969 489 969 z "},"Ű":{"ha":1083,"x_min":53,"x_max":1030,"o":"m 53 946 l 418 946 l 418 888 l 394 888 q 330 880 349 888 q 308 857 315 873 q 300 791 300 840 l 300 366 q 328 197 300 252 q 419 104 355 142 q 560 67 484 67 q 707 107 637 67 q 804 202 776 147 q 831 376 831 257 l 831 785 q 823 850 831 830 q 796 879 814 869 q 740 888 778 888 l 713 888 l 713 946 l 1030 946 l 1030 888 l 1008 888 q 935 868 955 888 q 915 791 915 848 l 915 355 q 870 156 915 236 q 740 30 825 77 q 541 -16 654 -16 q 345 31 434 -16 q 215 150 256 79 q 173 328 173 220 l 173 791 q 165 854 173 836 q 141 880 157 872 q 87 888 125 888 l 53 888 l 53 946 m 479 975 l 456 989 l 505 1115 q 542 1181 525 1164 q 578 1198 558 1198 q 604 1188 593 1198 q 614 1164 614 1178 q 585 1098 614 1132 l 479 975 m 659 975 l 636 989 l 685 1115 q 721 1180 704 1164 q 758 1197 738 1197 q 783 1187 773 1197 q 793 1164 793 1177 q 765 1098 793 1132 l 659 975 z "},"ű":{"ha":945,"x_min":14,"x_max":904,"o":"m 14 654 l 271 665 l 271 228 q 287 136 271 170 q 335 84 302 102 q 412 65 368 65 q 535 94 467 65 q 673 181 604 123 l 673 497 q 665 563 673 547 q 639 588 658 578 q 579 597 620 597 l 530 597 l 530 654 l 787 665 l 787 159 q 795 91 787 110 q 819 65 803 73 q 883 57 835 57 l 904 57 l 904 0 l 679 -12 l 679 114 q 517 12 586 40 q 376 -16 448 -16 q 284 -2 323 -16 q 216 41 245 12 q 171 109 186 69 q 155 195 155 149 l 155 503 q 148 561 155 545 q 123 588 140 578 q 76 597 106 597 l 14 597 l 14 654 m 326 749 l 303 764 l 352 890 q 388 956 372 939 q 425 972 405 972 q 450 963 440 972 q 460 939 460 953 q 432 873 460 907 l 326 749 m 505 749 l 483 764 l 532 890 q 568 955 551 939 q 604 972 585 972 q 630 962 620 972 q 640 939 640 952 q 612 873 640 907 l 505 749 z "},"Ź":{"ha":889,"x_min":36,"x_max":877,"o":"m 166 946 l 825 946 l 825 888 l 207 73 l 434 73 q 670 125 589 73 q 814 315 751 177 l 877 294 l 768 0 l 36 0 l 36 57 l 655 873 l 458 873 q 302 854 359 873 q 201 794 244 835 q 110 668 157 754 l 52 696 l 166 946 m 353 1018 l 353 1042 l 478 1134 q 586 1181 543 1181 q 620 1167 606 1181 q 634 1131 634 1152 q 615 1087 634 1104 q 547 1059 596 1069 l 353 1018 z "},"ź":{"ha":667,"x_min":24,"x_max":657,"o":"m 139 654 l 633 654 l 633 597 l 176 63 l 289 63 q 479 95 421 63 q 597 246 558 140 l 657 224 l 574 0 l 24 0 l 24 57 l 481 587 l 348 587 q 203 553 255 587 q 107 427 151 520 l 49 455 l 139 654 m 258 793 l 258 817 l 384 909 q 492 957 448 957 q 526 942 512 957 q 540 906 540 928 q 521 862 540 880 q 452 834 502 845 l 258 793 z "},"Ż":{"ha":889,"x_min":36,"x_max":877,"o":"m 166 946 l 825 946 l 825 888 l 207 73 l 434 73 q 670 125 589 73 q 814 315 751 177 l 877 294 l 768 0 l 36 0 l 36 57 l 655 873 l 458 873 q 302 854 359 873 q 201 794 244 835 q 110 668 157 754 l 52 696 l 166 946 m 452 1158 q 511 1134 486 1158 q 535 1076 535 1110 q 511 1018 535 1042 q 452 994 486 994 q 393 1018 417 994 q 368 1076 368 1042 q 393 1134 368 1110 q 452 1158 417 1158 z "},"ż":{"ha":667,"x_min":24,"x_max":657,"o":"m 139 654 l 633 654 l 633 597 l 176 63 l 289 63 q 479 95 421 63 q 597 246 558 140 l 657 224 l 574 0 l 24 0 l 24 57 l 481 587 l 348 587 q 203 553 255 587 q 107 427 151 520 l 49 455 l 139 654 m 350 933 q 409 909 385 933 q 433 851 433 885 q 409 792 433 817 q 350 768 385 768 q 291 792 315 768 q 267 851 267 817 q 291 909 267 885 q 350 933 315 933 z "},"":{"ha":897,"x_min":66,"x_max":859,"o":"m 850 920 l 859 709 l 835 709 q 761 834 821 806 q 615 862 701 862 l 342 862 l 342 116 q 372 51 341 75 q 476 24 402 26 l 476 0 l 66 0 l 66 24 q 166 47 134 24 q 197 133 197 70 l 197 791 q 167 871 197 848 q 66 895 137 895 l 66 920 l 850 920 z "},"":{"ha":1080,"x_min":73,"x_max":1006,"o":"m 1006 462 q 869 119 1006 260 q 543 -21 732 -21 q 213 120 353 -21 q 73 460 73 261 q 209 799 73 657 q 539 941 345 941 q 868 801 730 941 q 1006 462 1006 662 m 841 457 q 760 770 841 653 q 537 888 679 888 q 318 773 399 888 q 238 462 238 659 q 321 148 238 264 q 541 31 405 31 q 762 151 682 31 q 841 457 841 270 m 376 621 l 401 621 q 424 541 400 566 q 502 515 448 515 l 577 515 q 654 541 630 515 q 678 621 679 566 l 703 621 l 703 296 l 678 296 q 655 378 679 352 q 577 404 631 404 l 502 404 q 425 378 449 404 q 401 296 400 352 l 376 296 l 376 621 z "},"":{"ha":1080,"x_min":73,"x_max":1007,"o":"m 612 130 q 743 24 621 24 l 743 0 l 337 0 l 337 24 q 467 130 456 24 q 180 226 287 130 q 73 460 73 323 q 186 699 73 608 q 467 790 300 790 q 337 895 458 895 l 337 920 l 743 920 l 743 895 q 612 790 621 895 q 900 694 792 790 q 1007 460 1007 597 q 892 219 1007 309 q 612 130 778 130 m 467 753 q 329 714 389 751 q 244 618 269 678 q 219 452 219 558 q 467 167 219 177 l 467 753 m 612 753 l 612 167 q 784 230 707 167 q 861 468 861 292 q 612 753 861 743 z "},"":{"ha":744,"x_min":56,"x_max":716,"o":"m 532 621 l 644 621 l 576 304 q 542 176 561 231 q 622 62 555 62 q 692 150 679 62 l 716 150 q 679 25 709 70 q 606 -19 648 -19 q 524 127 543 -19 q 294 -19 452 -19 q 119 67 182 -19 q 56 308 56 154 q 126 552 56 465 q 296 640 197 640 q 490 426 431 640 l 532 621 m 477 364 q 309 600 409 600 q 217 526 252 600 q 182 300 182 451 q 215 82 182 141 q 300 24 248 24 q 383 72 346 24 q 453 262 420 121 l 477 364 z "},"":{"ha":657,"x_min":56,"x_max":602,"o":"m 336 579 q 242 670 298 622 q 147 776 164 738 q 130 845 130 814 q 307 963 130 963 q 483 929 412 963 q 553 846 553 895 q 537 806 553 823 q 499 788 522 788 q 426 834 468 788 q 349 905 378 888 q 279 922 320 922 q 199 901 229 922 q 170 848 170 880 q 196 783 170 815 q 329 677 221 751 q 490 554 439 602 q 571 441 541 506 q 602 303 602 377 q 513 78 602 175 q 309 -19 425 -19 q 129 58 203 -19 q 56 267 56 135 q 140 479 56 396 q 336 579 224 563 m 366 547 q 172 280 172 515 q 221 90 172 155 q 333 25 271 25 q 444 90 400 25 q 487 264 487 154 q 464 402 487 345 q 397 510 441 458 q 366 547 371 540 z "},"":{"ha":615,"x_min":56,"x_max":560,"o":"m 219 330 q 85 478 85 382 q 154 595 85 550 q 328 640 222 640 q 477 610 417 640 q 536 535 536 580 q 519 494 536 511 q 477 477 501 477 q 415 528 439 477 q 313 599 381 599 q 226 566 262 599 q 191 469 191 533 q 318 345 191 345 q 350 347 332 345 q 397 352 381 352 q 439 328 439 352 q 397 301 439 301 q 352 307 382 301 q 316 310 329 310 q 182 172 182 310 q 218 64 182 104 q 318 23 254 23 q 425 106 399 23 q 456 168 439 151 q 500 184 472 184 q 541 168 522 184 q 560 124 560 152 q 489 21 560 61 q 323 -19 418 -19 q 139 33 222 -19 q 56 171 56 84 q 219 330 56 277 z "},"":{"ha":812,"x_min":56,"x_max":782,"o":"m 782 621 l 782 522 l 486 522 q 620 407 557 487 q 682 236 682 326 q 590 51 682 121 q 391 -19 498 -19 q 155 81 254 -19 q 56 322 56 182 q 107 496 56 420 q 227 596 159 571 q 400 621 296 621 l 782 621 m 440 522 l 416 522 q 280 503 327 522 q 202 434 233 483 q 172 314 172 385 q 237 110 172 195 q 391 25 302 25 q 515 88 465 25 q 564 249 564 151 q 440 522 564 397 z "},"":{"ha":593,"x_min":44,"x_max":549,"o":"m 549 621 l 549 522 l 346 522 q 321 203 321 304 q 345 120 321 148 q 404 92 368 92 q 481 171 469 92 l 505 171 q 467 40 505 98 q 369 -19 429 -19 q 248 205 248 -19 q 272 522 248 300 l 212 522 q 126 504 157 522 q 68 429 95 486 l 44 429 q 98 551 68 509 q 155 607 127 593 q 233 621 184 621 l 549 621 z "},"":{"ha":777,"x_min":56,"x_max":722,"o":"m 313 640 l 313 615 q 174 336 174 578 q 348 22 174 70 l 348 418 q 357 539 348 500 q 402 609 367 579 q 489 640 438 640 q 595 604 541 640 q 685 496 649 568 q 722 333 722 425 q 646 101 722 203 q 418 -16 571 -2 l 418 -284 l 348 -284 l 348 -16 q 136 90 216 -4 q 56 334 56 183 q 132 554 56 472 q 313 640 208 636 m 418 37 q 621 314 621 68 q 578 498 621 422 q 473 575 536 575 q 432 550 447 575 q 418 441 417 525 l 418 37 z "},"‗":{"ha":694,"x_min":-8,"x_max":703,"o":"m -8 -113 l 703 -113 l 703 -182 l -8 -182 l -8 -113 m -8 -233 l 703 -233 l 703 -302 l -8 -302 l -8 -233 z "},"′":{"ha":306,"x_min":89,"x_max":227,"o":"m 89 614 l 112 851 q 187 962 122 962 q 227 922 227 962 q 209 853 227 899 l 117 614 l 89 614 z "},"″":{"ha":528,"x_min":90,"x_max":448,"o":"m 311 614 l 334 851 q 409 962 345 962 q 448 922 448 962 q 431 853 448 899 l 339 614 l 311 614 m 90 614 l 113 851 q 189 962 123 962 q 228 922 228 962 q 210 853 228 899 l 118 614 l 90 614 z "},"‼":{"ha":751,"x_min":123,"x_max":628,"o":"m 179 227 l 127 833 q 125 866 125 859 q 210 962 125 962 q 268 941 244 962 q 292 880 292 920 q 289 839 292 867 l 235 227 l 179 227 m 514 227 l 462 833 q 460 866 460 859 q 545 962 460 962 q 605 939 583 962 q 627 880 627 916 q 624 839 627 867 l 570 227 l 514 227 m 208 158 q 269 134 243 158 q 294 73 294 109 q 269 14 294 39 q 208 -12 244 -12 q 149 13 174 -12 q 123 73 123 38 q 149 133 123 109 q 208 158 174 158 m 543 158 q 603 134 578 158 q 628 73 628 109 q 603 14 628 39 q 543 -12 578 -12 q 484 13 509 -12 q 458 73 458 38 q 483 133 458 109 q 543 158 508 158 z "},"ⁿ":{"ha":596,"x_min":25,"x_max":582,"o":"m 25 723 l 25 766 q 145 800 91 770 l 188 800 l 188 732 q 362 800 276 800 q 447 781 412 800 q 494 735 481 761 q 507 665 507 710 l 507 486 q 515 440 507 449 q 559 432 523 432 l 582 432 l 582 389 l 338 389 l 338 432 l 359 432 q 406 442 396 432 q 416 490 416 452 l 416 640 q 400 716 416 693 q 338 740 384 740 q 192 677 267 740 l 192 490 q 201 441 192 450 q 248 432 210 432 l 269 432 l 269 389 l 25 389 l 25 432 l 44 432 q 92 441 83 432 q 100 496 100 451 l 100 723 l 25 723 z "},"₧":{"ha":1896,"x_min":62,"x_max":1829,"o":"m 855 647 q 1023 885 997 682 l 1071 885 l 1071 654 l 1394 654 q 1493 671 1438 671 q 1665 614 1595 671 l 1683 654 l 1731 654 l 1792 447 l 1731 427 q 1633 554 1699 503 q 1494 606 1567 606 q 1412 582 1447 606 q 1376 521 1376 558 q 1401 466 1376 489 q 1504 416 1427 444 l 1636 369 q 1793 279 1756 326 q 1829 179 1829 231 q 1761 42 1829 100 q 1583 -16 1693 -16 q 1388 49 1469 -16 l 1373 0 l 1325 0 l 1303 58 l 1303 44 q 1124 -16 1217 -16 q 1024 10 1067 -16 q 969 69 981 37 q 958 170 958 101 l 958 587 l 842 587 q 770 481 822 530 q 654 418 719 433 q 483 404 589 404 l 310 404 l 310 161 q 326 76 310 95 q 396 57 341 57 l 429 57 l 429 0 l 62 0 l 62 57 l 85 57 q 164 75 147 57 q 181 152 181 93 l 181 799 q 164 872 181 856 q 85 888 148 888 l 62 888 l 62 946 l 436 946 q 677 923 604 946 q 804 837 751 899 q 857 676 857 774 q 855 647 857 662 m 310 872 l 310 475 l 456 475 q 603 492 557 475 q 681 558 649 508 q 713 677 713 608 q 679 797 713 749 q 594 858 644 844 q 429 872 545 872 l 310 872 m 1287 98 l 1240 222 l 1302 246 q 1430 99 1364 148 q 1584 50 1496 50 q 1680 81 1640 50 q 1719 152 1719 111 q 1602 260 1719 218 l 1445 317 q 1310 392 1354 351 q 1265 497 1265 434 q 1297 587 1265 548 l 1071 587 l 1071 178 q 1094 81 1071 110 q 1160 52 1117 52 q 1287 98 1219 52 z "},"℅":{"ha":1196,"x_min":49,"x_max":1147,"o":"m 435 672 l 473 643 q 269 534 390 534 q 107 601 165 534 q 49 749 49 667 q 113 902 49 842 q 281 962 178 962 q 413 924 363 962 q 463 852 463 886 q 449 820 463 831 q 416 808 435 808 q 387 819 398 808 q 360 863 376 829 q 278 915 335 915 q 186 871 223 915 q 150 752 150 827 q 188 632 150 677 q 281 586 227 586 q 356 604 324 586 q 435 672 388 623 m 935 962 l 305 -16 l 224 -16 l 854 962 l 935 962 m 928 418 q 1089 357 1030 418 q 1147 204 1147 297 q 1087 51 1147 111 q 924 -10 1027 -10 q 760 53 815 -10 q 705 204 705 117 q 767 358 705 298 q 928 418 829 418 m 925 369 q 840 325 873 369 q 806 201 806 280 q 837 80 806 123 q 925 36 869 36 q 1016 84 985 36 q 1047 205 1047 132 q 1015 325 1047 281 q 925 369 983 369 z "},"ℓ":{"ha":639,"x_min":44,"x_max":600,"o":"m 44 221 l 178 356 l 178 692 q 232 896 178 823 q 378 969 286 969 q 480 930 445 969 q 516 834 516 890 q 455 648 516 743 q 287 435 395 553 l 287 209 q 406 22 287 22 q 574 203 516 22 l 600 203 q 521 47 578 113 q 376 -18 463 -18 q 259 20 308 -18 q 194 106 210 58 q 178 254 178 155 l 178 319 l 61 204 l 44 221 m 287 473 q 478 807 478 684 q 452 896 478 862 q 383 930 425 930 q 287 749 287 930 l 287 473 z "},"←":{"ha":1389,"x_min":54,"x_max":1335,"o":"m 334 594 l 385 594 q 253 385 330 479 l 1335 385 l 1335 316 l 253 316 q 387 106 322 247 l 334 106 q 54 338 183 278 l 54 368 q 334 594 174 416 z "},"↑":{"ha":694,"x_min":104,"x_max":591,"o":"m 104 712 q 330 992 281 872 l 361 992 q 591 711 420 862 l 591 659 q 382 792 451 724 l 382 -291 l 313 -291 l 313 792 q 104 660 219 715 l 104 712 z "},"→":{"ha":1389,"x_min":54,"x_max":1335,"o":"m 1055 594 q 1335 368 1215 416 l 1335 338 q 1054 106 1205 278 l 1002 106 q 1135 316 1066 247 l 54 316 l 54 385 l 1135 385 q 1003 594 1058 479 l 1055 594 z "},"↓":{"ha":694,"x_min":104,"x_max":591,"o":"m 104 -11 l 104 41 q 313 -92 219 -14 l 313 992 l 382 992 l 382 -92 q 591 42 451 -22 l 591 -10 q 361 -291 420 -161 l 330 -291 q 104 -11 281 -172 z "},"↔":{"ha":1389,"x_min":54,"x_max":1335,"o":"m 1335 366 l 1335 336 q 1059 107 1212 282 l 1005 107 q 1137 318 1052 224 l 252 318 q 383 107 336 224 l 329 107 q 54 336 177 282 l 54 366 q 329 595 177 420 l 383 595 q 252 385 336 479 l 1137 385 q 1005 595 1052 479 l 1059 595 q 1335 366 1212 420 z "},"↕":{"ha":694,"x_min":103,"x_max":591,"o":"m 332 992 l 362 992 q 591 716 416 869 l 591 662 q 380 794 475 709 l 380 -92 q 591 40 475 -6 l 591 -14 q 362 -290 416 -166 l 332 -290 q 103 -14 278 -166 l 103 40 q 314 -92 219 -6 l 314 794 q 103 662 219 709 l 103 716 q 332 992 278 869 z "},"↨":{"ha":694,"x_min":103,"x_max":591,"o":"m 332 992 l 362 992 q 591 716 416 869 l 591 662 q 380 794 475 709 l 380 -92 q 591 40 475 -6 l 591 -14 q 362 -290 416 -166 l 332 -290 q 103 -14 278 -166 l 103 40 q 314 -92 219 -6 l 314 794 q 103 662 219 709 l 103 716 q 332 992 278 869 m 104 -354 l 591 -354 l 591 -420 l 104 -420 l 104 -354 z "},"∟":{"ha":1360,"x_min":245,"x_max":1114,"o":"m 245 867 l 313 867 l 313 68 l 1114 68 l 1114 0 l 245 0 l 245 867 z "},"∩":{"ha":998,"x_min":130,"x_max":869,"o":"m 205 0 l 130 0 l 130 380 q 132 534 131 460 q 145 664 133 608 q 185 767 157 720 q 263 854 214 813 q 374 917 313 895 q 499 939 435 939 q 681 891 597 939 q 807 777 766 843 q 859 637 849 711 q 869 380 869 564 l 869 0 l 795 0 l 795 384 q 787 610 795 541 q 746 734 779 679 q 645 828 713 789 q 499 867 576 867 q 353 827 422 867 q 253 734 284 788 q 213 611 221 681 q 205 384 205 542 l 205 0 z "},"≡":{"ha":833,"x_min":86,"x_max":747,"o":"m 747 678 l 747 595 l 86 595 l 86 678 l 747 678 m 747 515 l 747 431 l 86 431 l 86 515 l 747 515 m 747 351 l 747 267 l 86 267 l 86 351 l 747 351 z "},"□":{"ha":839,"x_min":99,"x_max":739,"o":"m 99 640 l 739 640 l 739 0 l 99 0 l 99 640 m 151 589 l 151 52 l 688 52 l 688 589 l 151 589 z "},"▪":{"ha":492,"x_min":89,"x_max":403,"o":"m 403 616 l 403 302 l 89 302 l 89 616 l 403 616 z "},"▫":{"ha":492,"x_min":89,"x_max":403,"o":"m 403 616 l 403 302 l 89 302 l 89 616 l 403 616 m 351 565 l 140 564 l 140 353 l 351 353 l 351 565 z "},"●":{"ha":839,"x_min":121,"x_max":718,"o":"m 420 690 q 630 603 543 690 q 718 392 718 515 q 631 181 718 269 q 420 93 543 93 q 209 181 296 93 q 121 392 121 269 q 210 605 121 520 q 420 690 299 690 z "},"◦":{"ha":492,"x_min":76,"x_max":416,"o":"m 246 629 q 366 581 315 629 q 416 459 416 532 q 367 339 416 389 q 246 289 317 289 q 126 339 176 289 q 76 459 76 389 q 126 579 76 530 q 246 629 176 629 m 246 578 q 163 544 198 578 q 127 459 127 510 q 162 375 127 410 q 246 340 197 340 q 330 375 295 340 q 365 459 365 410 q 330 544 365 509 q 246 578 294 578 z "},"":{"ha":444,"x_min":113,"x_max":308,"o":"m 146 -441 l 113 -401 q 239 -235 239 -299 q 236 -212 239 -227 q 200 -220 216 -220 q 151 -201 169 -220 q 134 -153 134 -182 q 154 -105 134 -127 q 207 -82 174 -82 q 278 -115 248 -82 q 308 -201 308 -149 q 282 -299 308 -247 q 146 -441 257 -351 z "},"Ā":{"ha":945,"x_min":3,"x_max":942,"o":"m 418 946 l 530 946 l 824 155 q 868 76 846 96 q 927 57 890 57 l 942 57 l 942 0 l 605 0 l 605 57 q 637 58 621 58 q 680 65 669 58 q 699 98 699 78 q 680 168 699 112 l 618 351 l 275 351 l 201 146 q 190 102 190 114 q 197 78 190 88 q 216 63 204 68 q 256 58 229 58 q 286 57 274 58 l 286 0 l 3 0 l 3 57 q 59 65 42 57 q 90 90 77 73 q 123 163 102 107 l 418 946 m 300 417 l 592 417 l 446 824 l 300 417 m 678 1110 l 678 1040 l 267 1040 l 267 1110 l 678 1110 z "},"ā":{"ha":806,"x_min":54,"x_max":808,"o":"m 538 393 l 538 467 q 496 574 538 542 q 377 606 454 606 q 311 597 339 606 q 265 572 282 588 q 239 536 248 556 q 223 478 236 528 q 160 417 208 417 q 116 435 133 417 q 100 484 100 453 q 133 571 100 528 q 234 643 166 614 q 395 671 302 671 q 544 644 482 671 q 635 567 606 617 q 655 441 655 532 l 655 180 q 659 107 655 124 q 685 63 666 78 q 733 49 703 49 q 808 64 764 49 l 808 5 q 707 -12 751 -12 q 626 2 659 -12 q 572 42 593 16 q 545 104 551 68 q 397 14 463 40 q 264 -12 332 -12 q 113 39 171 -12 q 54 159 54 90 q 76 237 54 200 q 141 303 97 275 q 278 353 184 332 q 538 393 372 375 m 538 334 q 343 302 380 311 q 237 264 269 285 q 192 221 205 244 q 178 171 178 197 q 194 120 178 144 q 237 81 209 95 q 296 66 264 66 q 395 87 340 66 q 538 170 451 109 l 538 334 m 602 885 l 602 815 l 191 815 l 191 885 l 602 885 z "},"Ĉ":{"ha":1027,"x_min":75,"x_max":982,"o":"m 819 946 l 868 946 l 954 631 l 891 613 q 814 760 840 722 q 706 855 770 820 q 563 890 641 890 q 394 841 471 890 q 270 697 317 792 q 222 484 222 602 q 270 266 222 361 q 401 119 319 170 q 580 67 484 67 q 764 119 670 67 q 928 263 859 170 l 982 226 q 891 120 940 163 q 730 17 814 50 q 547 -16 647 -16 q 189 147 327 -16 q 75 470 75 283 q 138 719 75 608 q 312 897 201 831 q 551 962 423 962 q 679 944 620 962 q 798 884 737 925 l 819 946 m 545 1177 l 743 1048 l 724 1013 l 545 1076 l 367 1013 l 349 1048 l 545 1177 z "},"ĉ":{"ha":722,"x_min":57,"x_max":693,"o":"m 650 189 l 693 154 q 387 -16 566 -16 q 153 83 248 -16 q 57 329 57 182 q 101 506 57 427 q 225 627 146 584 q 406 671 304 671 q 601 613 523 671 q 679 498 679 556 q 661 450 679 467 q 619 433 642 433 q 595 439 607 433 q 572 458 584 445 q 552 496 566 465 q 524 549 534 536 q 472 592 503 576 q 403 608 441 608 q 296 576 345 608 q 218 482 247 544 q 189 334 189 420 q 260 121 189 200 q 408 54 322 54 q 487 67 447 54 q 564 106 528 80 q 650 189 590 124 m 391 952 l 589 823 l 570 788 l 391 851 l 213 788 l 195 823 l 391 952 z "},"Ċ":{"ha":1027,"x_min":75,"x_max":982,"o":"m 819 946 l 868 946 l 954 631 l 891 613 q 814 760 840 722 q 706 855 770 820 q 563 890 641 890 q 394 841 471 890 q 270 697 317 792 q 222 484 222 602 q 270 266 222 361 q 401 119 319 170 q 580 67 484 67 q 764 119 670 67 q 928 263 859 170 l 982 226 q 891 120 940 163 q 730 17 814 50 q 547 -16 647 -16 q 189 147 327 -16 q 75 470 75 283 q 138 719 75 608 q 312 897 201 831 q 551 962 423 962 q 679 944 620 962 q 798 884 737 925 l 819 946 m 563 1158 q 622 1134 597 1158 q 646 1076 646 1109 q 622 1017 646 1041 q 563 993 597 993 q 504 1017 528 993 q 479 1076 479 1041 q 504 1134 479 1109 q 563 1158 528 1158 z "},"ċ":{"ha":722,"x_min":57,"x_max":693,"o":"m 650 189 l 693 154 q 387 -16 566 -16 q 153 83 248 -16 q 57 329 57 182 q 101 506 57 427 q 225 627 146 584 q 406 671 304 671 q 601 613 523 671 q 679 498 679 556 q 661 450 679 467 q 619 433 642 433 q 595 439 607 433 q 572 458 584 445 q 552 496 566 465 q 524 549 534 536 q 472 592 503 576 q 403 608 441 608 q 296 576 345 608 q 218 482 247 544 q 189 334 189 420 q 260 121 189 200 q 408 54 322 54 q 487 67 447 54 q 564 106 528 80 q 650 189 590 124 m 392 933 q 451 909 427 933 q 475 851 475 885 q 451 792 475 817 q 392 768 427 768 q 333 792 357 768 q 309 851 309 817 q 333 909 309 885 q 392 933 357 933 z "},"Ē":{"ha":1000,"x_min":66,"x_max":970,"o":"m 66 946 l 836 946 l 924 697 l 865 675 q 816 771 842 736 q 752 830 789 806 q 678 863 715 854 q 542 871 640 871 l 313 871 l 313 524 l 427 524 q 522 546 490 524 q 566 599 554 567 q 576 682 576 623 l 576 697 l 642 697 l 642 282 l 576 282 l 576 318 q 569 387 576 366 q 543 426 562 408 q 502 452 524 445 q 427 458 479 458 l 313 458 l 313 151 q 317 92 313 102 q 332 77 321 81 q 387 72 342 72 l 529 72 q 714 100 648 72 q 832 188 781 129 q 909 318 872 234 l 970 296 l 865 0 l 66 0 l 66 57 l 94 57 q 153 63 141 57 q 180 92 170 72 q 186 151 186 105 l 186 802 q 178 861 186 846 q 147 884 169 876 q 66 888 136 888 l 66 946 m 724 1110 l 724 1040 l 313 1040 l 313 1110 l 724 1110 z "},"ē":{"ha":722,"x_min":58,"x_max":674,"o":"m 631 175 l 674 140 q 578 46 625 81 q 490 -2 532 12 q 393 -16 449 -16 q 224 24 294 -16 q 101 146 144 71 q 58 324 58 222 q 100 507 58 431 q 215 627 141 583 q 387 671 290 671 q 513 648 460 671 q 604 579 567 625 q 659 475 642 534 q 669 385 668 440 l 190 385 q 188 336 188 352 q 218 183 188 250 q 297 85 248 117 q 408 54 346 54 q 511 78 461 54 q 631 175 560 103 m 544 449 q 515 541 534 511 q 462 589 496 571 q 385 606 428 606 q 305 589 342 606 q 243 540 268 571 q 200 449 218 509 l 544 449 m 580 885 l 580 815 l 169 815 l 169 885 l 580 885 z "},"Ĕ":{"ha":1000,"x_min":66,"x_max":970,"o":"m 66 946 l 836 946 l 924 697 l 865 675 q 816 771 842 736 q 752 830 789 806 q 678 863 715 854 q 542 871 640 871 l 313 871 l 313 524 l 427 524 q 522 546 490 524 q 566 599 554 567 q 576 682 576 623 l 576 697 l 642 697 l 642 282 l 576 282 l 576 318 q 569 387 576 366 q 543 426 562 408 q 502 452 524 445 q 427 458 479 458 l 313 458 l 313 151 q 317 92 313 102 q 332 77 321 81 q 387 72 342 72 l 529 72 q 714 100 648 72 q 832 188 781 129 q 909 318 872 234 l 970 296 l 865 0 l 66 0 l 66 57 l 94 57 q 153 63 141 57 q 180 92 170 72 q 186 151 186 105 l 186 802 q 178 861 186 846 q 147 884 169 876 q 66 888 136 888 l 66 946 m 290 1154 l 323 1180 q 520 1107 410 1107 q 629 1128 574 1107 q 715 1180 683 1149 l 747 1154 q 652 1053 715 1093 q 516 1014 589 1014 q 422 1031 467 1014 q 344 1079 377 1048 q 290 1154 311 1109 z "},"ĕ":{"ha":722,"x_min":58,"x_max":674,"o":"m 631 175 l 674 140 q 578 46 625 81 q 490 -2 532 12 q 393 -16 449 -16 q 224 24 294 -16 q 101 146 144 71 q 58 324 58 222 q 100 507 58 431 q 215 627 141 583 q 387 671 290 671 q 513 648 460 671 q 604 579 567 625 q 659 475 642 534 q 669 385 668 440 l 190 385 q 188 336 188 352 q 218 183 188 250 q 297 85 248 117 q 408 54 346 54 q 511 78 461 54 q 631 175 560 103 m 544 449 q 515 541 534 511 q 462 589 496 571 q 385 606 428 606 q 305 589 342 606 q 243 540 268 571 q 200 449 218 509 l 544 449 m 138 929 l 171 955 q 368 882 258 882 q 477 903 422 882 q 564 955 531 924 l 595 929 q 500 828 564 867 q 364 789 437 789 q 270 806 315 789 q 192 854 225 823 q 138 929 159 884 z "},"Ė":{"ha":1000,"x_min":66,"x_max":970,"o":"m 66 946 l 836 946 l 924 697 l 865 675 q 816 771 842 736 q 752 830 789 806 q 678 863 715 854 q 542 871 640 871 l 313 871 l 313 524 l 427 524 q 522 546 490 524 q 566 599 554 567 q 576 682 576 623 l 576 697 l 642 697 l 642 282 l 576 282 l 576 318 q 569 387 576 366 q 543 426 562 408 q 502 452 524 445 q 427 458 479 458 l 313 458 l 313 151 q 317 92 313 102 q 332 77 321 81 q 387 72 342 72 l 529 72 q 714 100 648 72 q 832 188 781 129 q 909 318 872 234 l 970 296 l 865 0 l 66 0 l 66 57 l 94 57 q 153 63 141 57 q 180 92 170 72 q 186 151 186 105 l 186 802 q 178 861 186 846 q 147 884 169 876 q 66 888 136 888 l 66 946 m 519 1158 q 578 1134 553 1158 q 602 1076 602 1109 q 578 1017 602 1041 q 519 993 553 993 q 460 1017 484 993 q 435 1076 435 1041 q 460 1134 435 1109 q 519 1158 484 1158 z "},"ė":{"ha":722,"x_min":58,"x_max":674,"o":"m 631 175 l 674 140 q 578 46 625 81 q 490 -2 532 12 q 393 -16 449 -16 q 224 24 294 -16 q 101 146 144 71 q 58 324 58 222 q 100 507 58 431 q 215 627 141 583 q 387 671 290 671 q 513 648 460 671 q 604 579 567 625 q 659 475 642 534 q 669 385 668 440 l 190 385 q 188 336 188 352 q 218 183 188 250 q 297 85 248 117 q 408 54 346 54 q 511 78 461 54 q 631 175 560 103 m 544 449 q 515 541 534 511 q 462 589 496 571 q 385 606 428 606 q 305 589 342 606 q 243 540 268 571 q 200 449 218 509 l 544 449 m 375 933 q 434 909 410 933 q 458 851 458 885 q 434 792 458 817 q 375 768 410 768 q 316 792 340 768 q 292 851 292 817 q 316 909 292 885 q 375 933 340 933 z "},"Ĝ":{"ha":1111,"x_min":73,"x_max":1064,"o":"m 812 946 l 861 946 l 939 654 l 878 633 q 737 831 817 772 q 557 890 658 890 q 315 770 413 890 q 218 484 218 650 q 268 264 218 364 q 401 113 317 165 q 578 60 484 60 q 693 82 638 60 q 781 135 747 104 q 815 186 806 158 q 823 263 824 214 l 823 308 q 811 384 823 361 q 775 416 798 406 q 680 423 758 423 l 680 480 l 1064 480 l 1064 423 l 1033 423 q 978 415 993 423 q 957 391 964 408 q 950 328 950 375 l 950 0 l 883 0 l 847 83 q 726 18 790 41 q 535 -16 629 -16 q 209 124 345 -16 q 73 473 73 264 q 210 821 73 680 q 540 962 348 962 q 635 953 588 962 q 720 926 682 943 q 788 884 749 913 l 812 946 m 551 1177 l 749 1048 l 730 1013 l 551 1076 l 373 1013 l 355 1048 l 551 1177 z "},"ĝ":{"ha":750,"x_min":47,"x_max":752,"o":"m 574 601 q 636 654 605 637 q 694 671 668 671 q 735 656 719 671 q 752 621 752 642 q 737 584 752 599 q 699 569 722 569 q 673 572 690 569 q 642 577 654 577 q 606 562 625 577 q 648 442 648 511 q 570 280 648 349 q 371 212 491 212 q 237 239 304 212 q 186 200 193 208 q 177 176 177 189 q 197 143 177 156 q 299 115 223 126 l 495 85 q 626 52 560 75 q 721 -10 692 28 q 751 -101 751 -48 q 668 -244 751 -191 q 356 -313 563 -313 q 180 -290 248 -313 q 75 -224 112 -267 q 47 -161 47 -194 q 75 -79 47 -119 q 202 35 102 -39 q 110 73 138 51 q 75 136 75 100 q 81 169 75 153 q 102 199 87 184 q 155 241 117 214 q 190 267 180 258 q 115 346 140 302 q 90 441 90 389 q 157 592 90 528 q 374 671 237 671 q 481 655 435 671 q 574 601 526 640 m 368 608 q 256 559 302 608 q 210 440 210 511 q 231 354 210 393 q 290 294 252 316 q 370 272 328 272 q 450 294 412 272 q 509 355 488 317 q 530 440 530 393 q 485 561 530 515 q 368 608 439 608 m 260 19 q 174 -71 195 -37 q 153 -138 153 -106 q 174 -190 153 -165 q 247 -232 195 -216 q 376 -248 298 -248 q 535 -228 469 -248 q 629 -177 601 -208 q 650 -119 650 -153 q 633 -71 650 -91 q 568 -37 616 -52 q 479 -16 520 -22 l 260 19 m 391 952 l 588 823 l 570 788 l 391 851 l 212 788 l 194 823 l 391 952 z "},"Ġ":{"ha":1111,"x_min":73,"x_max":1064,"o":"m 812 946 l 861 946 l 939 654 l 878 633 q 737 831 817 772 q 557 890 658 890 q 315 770 413 890 q 218 484 218 650 q 268 264 218 364 q 401 113 317 165 q 578 60 484 60 q 693 82 638 60 q 781 135 747 104 q 815 186 806 158 q 823 263 824 214 l 823 308 q 811 384 823 361 q 775 416 798 406 q 680 423 758 423 l 680 480 l 1064 480 l 1064 423 l 1033 423 q 978 415 993 423 q 957 391 964 408 q 950 328 950 375 l 950 0 l 883 0 l 847 83 q 726 18 790 41 q 535 -16 629 -16 q 209 124 345 -16 q 73 473 73 264 q 210 821 73 680 q 540 962 348 962 q 635 953 588 962 q 720 926 682 943 q 788 884 749 913 l 812 946 m 568 1158 q 627 1134 603 1158 q 652 1076 652 1109 q 627 1017 652 1041 q 568 993 603 993 q 509 1017 534 993 q 485 1076 485 1041 q 509 1134 485 1109 q 568 1158 534 1158 z "},"ġ":{"ha":750,"x_min":47,"x_max":752,"o":"m 574 601 q 636 654 605 637 q 694 671 668 671 q 735 656 719 671 q 752 621 752 642 q 737 584 752 599 q 699 569 722 569 q 673 572 690 569 q 642 577 654 577 q 606 562 625 577 q 648 442 648 511 q 570 280 648 349 q 371 212 491 212 q 237 239 304 212 q 186 200 193 208 q 177 176 177 189 q 197 143 177 156 q 299 115 223 126 l 495 85 q 626 52 560 75 q 721 -10 692 28 q 751 -101 751 -48 q 668 -244 751 -191 q 356 -313 563 -313 q 180 -290 248 -313 q 75 -224 112 -267 q 47 -161 47 -194 q 75 -79 47 -119 q 202 35 102 -39 q 110 73 138 51 q 75 136 75 100 q 81 169 75 153 q 102 199 87 184 q 155 241 117 214 q 190 267 180 258 q 115 346 140 302 q 90 441 90 389 q 157 592 90 528 q 374 671 237 671 q 481 655 435 671 q 574 601 526 640 m 368 608 q 256 559 302 608 q 210 440 210 511 q 231 354 210 393 q 290 294 252 316 q 370 272 328 272 q 450 294 412 272 q 509 355 488 317 q 530 440 530 393 q 485 561 530 515 q 368 608 439 608 m 260 19 q 174 -71 195 -37 q 153 -138 153 -106 q 174 -190 153 -165 q 247 -232 195 -216 q 376 -248 298 -248 q 535 -228 469 -248 q 629 -177 601 -208 q 650 -119 650 -153 q 633 -71 650 -91 q 568 -37 616 -52 q 479 -16 520 -22 l 260 19 m 400 933 q 459 909 435 933 q 484 851 484 885 q 459 792 484 817 q 400 768 435 768 q 341 792 366 768 q 317 851 317 817 q 341 909 317 885 q 400 933 366 933 z "},"Ģ":{"ha":1111,"x_min":73,"x_max":1064,"o":"m 812 946 l 861 946 l 939 654 l 878 633 q 737 831 817 772 q 557 890 658 890 q 315 770 413 890 q 218 484 218 650 q 268 264 218 364 q 401 113 317 165 q 578 60 484 60 q 693 82 638 60 q 781 135 747 104 q 815 186 806 158 q 823 263 824 214 l 823 308 q 811 384 823 361 q 775 416 798 406 q 680 423 758 423 l 680 480 l 1064 480 l 1064 423 l 1033 423 q 978 415 993 423 q 957 391 964 408 q 950 328 950 375 l 950 0 l 883 0 l 847 83 q 726 18 790 41 q 535 -16 629 -16 q 209 124 345 -16 q 73 473 73 264 q 210 821 73 680 q 540 962 348 962 q 635 953 588 962 q 720 926 682 943 q 788 884 749 913 l 812 946 m 549 0 l 531 -59 q 564 -57 559 -57 q 635 -72 602 -57 q 673 -105 659 -83 q 687 -159 687 -128 q 652 -245 687 -212 q 558 -278 617 -278 q 456 -249 499 -278 q 425 -200 425 -228 q 434 -175 425 -185 q 460 -165 444 -165 q 486 -172 475 -165 q 503 -199 496 -179 q 520 -228 513 -222 q 557 -240 536 -240 q 603 -219 584 -240 q 622 -165 622 -199 q 602 -113 622 -131 q 538 -94 581 -94 q 472 -108 511 -94 l 507 0 l 549 0 z "},"ģ":{"ha":750,"x_min":47,"x_max":752,"o":"m 574 601 q 636 654 605 637 q 694 671 668 671 q 735 656 719 671 q 752 621 752 642 q 737 584 752 599 q 699 569 722 569 q 673 572 690 569 q 642 577 654 577 q 606 562 625 577 q 648 442 648 511 q 570 280 648 349 q 371 212 491 212 q 237 239 304 212 q 186 200 193 208 q 177 176 177 189 q 197 143 177 156 q 299 115 223 126 l 495 85 q 626 52 560 75 q 721 -10 692 28 q 751 -101 751 -48 q 668 -244 751 -191 q 356 -313 563 -313 q 180 -290 248 -313 q 75 -224 112 -267 q 47 -161 47 -194 q 75 -79 47 -119 q 202 35 102 -39 q 110 73 138 51 q 75 136 75 100 q 81 169 75 153 q 102 199 87 184 q 155 241 117 214 q 190 267 180 258 q 115 346 140 302 q 90 441 90 389 q 157 592 90 528 q 374 671 237 671 q 481 655 435 671 q 574 601 526 640 m 368 608 q 256 559 302 608 q 210 440 210 511 q 231 354 210 393 q 290 294 252 316 q 370 272 328 272 q 450 294 412 272 q 509 355 488 317 q 530 440 530 393 q 485 561 530 515 q 368 608 439 608 m 260 19 q 174 -71 195 -37 q 153 -138 153 -106 q 174 -190 153 -165 q 247 -232 195 -216 q 376 -248 298 -248 q 535 -228 469 -248 q 629 -177 601 -208 q 650 -119 650 -153 q 633 -71 650 -91 q 568 -37 616 -52 q 479 -16 520 -22 l 260 19 m 406 1032 l 434 1000 q 357 888 357 932 q 359 873 357 882 q 393 880 377 880 q 438 863 424 880 q 452 826 452 846 q 433 786 452 803 q 386 768 414 768 q 322 795 349 768 q 296 863 296 823 q 406 1032 296 953 z "},"Ĥ":{"ha":1111,"x_min":66,"x_max":1045,"o":"m 66 946 l 431 946 l 431 888 l 406 888 q 343 880 362 888 q 317 852 325 872 q 311 789 311 837 l 311 525 l 802 525 l 802 782 q 798 845 802 834 q 775 878 793 867 q 720 888 757 888 l 683 888 l 683 946 l 1045 946 l 1045 888 l 1013 888 q 959 880 975 888 q 936 857 943 871 q 930 794 930 842 l 930 150 q 937 82 930 96 q 964 61 943 67 q 1045 57 976 57 l 1045 0 l 683 0 l 683 57 l 709 57 q 776 64 760 57 q 798 85 793 71 q 802 158 802 97 l 802 452 l 311 452 l 311 150 q 318 81 311 96 q 346 61 326 66 q 431 57 361 57 l 431 0 l 66 0 l 66 57 l 89 57 q 155 63 142 57 q 176 85 168 68 q 184 142 184 101 l 184 794 q 177 855 184 838 q 154 880 170 872 q 104 888 139 888 l 66 888 l 66 946 m 555 1177 l 752 1048 l 734 1013 l 555 1076 l 376 1013 l 358 1048 l 555 1177 z "},"ĥ":{"ha":917,"x_min":50,"x_max":882,"o":"m 50 880 l 50 938 q 153 959 116 947 q 229 995 189 970 l 282 995 l 282 547 q 427 641 359 611 q 558 671 496 671 q 708 616 649 671 q 766 484 766 562 l 766 151 q 774 86 766 102 q 800 64 782 71 q 882 57 819 57 l 882 0 l 532 0 l 532 57 l 558 57 q 623 65 608 57 q 646 91 639 73 q 653 165 653 109 l 653 396 q 648 496 653 473 q 606 559 637 535 q 524 583 574 583 q 408 555 469 583 q 282 473 347 528 l 282 133 q 289 82 282 95 q 311 63 296 69 q 374 57 327 57 l 401 57 l 401 0 l 50 0 l 50 57 l 71 57 q 143 69 121 57 q 161 93 155 75 q 166 191 166 111 l 166 880 l 50 880 m 440 1211 l 637 1081 l 619 1046 l 440 1109 l 262 1046 l 243 1081 l 440 1211 z "}}}
